TimmanaRegular.ufo
<glyph name="exclam" format="1">
  <advance width="198"/>
  <unicode hex="0021"/>
  <outline>
    <contour>
      <point x="186" y="488" type="line" name="hr00"/>
      <point x="82" y="488" type="line"/>
      <point x="51" y="183" type="line"/>
      <point x="133" y="183" type="line"/>
    </contour>
    <contour>
      <point x="125" y="51" type="curve" smooth="yes"/>
      <point x="130" y="87"/>
      <point x="110" y="109"/>
      <point x="81" y="109" type="curve" smooth="yes"/>
      <point x="52" y="109"/>
      <point x="26" y="87"/>
      <point x="20" y="51" type="curve" smooth="yes"/>
      <point x="15" y="16"/>
      <point x="35" y="-7"/>
      <point x="64" y="-7" type="curve" smooth="yes"/>
      <point x="95" y="-7"/>
      <point x="121" y="16"/>
    </contour>
  </outline>
</glyph>
<glyph name="quotedbl" format="1">
  <advance width="236"/>
  <unicode hex="0022"/>
  <outline>
    <contour>
      <point x="225" y="486" type="line" name="hr00"/>
      <point x="149" y="486" type="line"/>
      <point x="134" y="320" type="line"/>
      <point x="192" y="320" type="line"/>
    </contour>
    <contour>
      <point x="108" y="486" type="line"/>
      <point x="31" y="486" type="line"/>
      <point x="17" y="320" type="line"/>
      <point x="75" y="320" type="line"/>
    </contour>
  </outline>
</glyph>
<glyph name="numbersign" format="1">
  <advance width="379"/>
  <unicode hex="0023"/>
  <outline>
    <contour>
      <point x="286" y="432" type="line" name="hr00"/>
      <point x="255" y="334" type="line"/>
      <point x="200" y="334" type="line"/>
      <point x="231" y="428" type="line"/>
      <point x="163" y="435" type="line"/>
      <point x="131" y="334" type="line"/>
      <point x="71" y="334" type="line"/>
      <point x="53" y="269" type="line"/>
      <point x="109" y="269" type="line"/>
      <point x="84" y="193" type="line"/>
      <point x="34" y="193" type="line"/>
      <point x="17" y="127" type="line"/>
      <point x="63" y="127" type="line"/>
      <point x="30" y="29" type="line"/>
      <point x="53" y="25"/>
      <point x="73" y="25"/>
      <point x="96" y="22" type="curve"/>
      <point x="132" y="127" type="line"/>
      <point x="187" y="127" type="line"/>
      <point x="155" y="25" type="line"/>
      <point x="176" y="23"/>
      <point x="197" y="21"/>
      <point x="220" y="18" type="curve"/>
      <point x="257" y="127" type="line"/>
      <point x="317" y="127" type="line"/>
      <point x="335" y="193" type="line"/>
      <point x="278" y="193" type="line"/>
      <point x="302" y="269" type="line"/>
      <point x="354" y="269" type="line"/>
      <point x="371" y="334" type="line"/>
      <point x="324" y="334" type="line"/>
      <point x="335" y="365"/>
      <point x="343" y="393"/>
      <point x="354" y="424" type="curve"/>
    </contour>
    <contour>
      <point x="233" y="269" type="line"/>
      <point x="209" y="193" type="line"/>
      <point x="153" y="193" type="line"/>
      <point x="177" y="269" type="line"/>
    </contour>
  </outline>
</glyph>
<glyph name="dollar" format="1">
  <advance width="323"/>
  <unicode hex="0024"/>
  <outline>
    <contour>
      <point x="17" y="47" type="line" name="hr00"/>
      <point x="29" y="40"/>
      <point x="60" y="25"/>
      <point x="111" y="21" type="curve"/>
      <point x="101" y="-42" type="line"/>
      <point x="172" y="-42" type="line"/>
      <point x="179" y="26" type="line"/>
      <point x="247" y="39"/>
      <point x="279" y="80"/>
      <point x="288" y="139" type="curve" smooth="yes"/>
      <point x="303" y="244"/>
      <point x="154" y="259"/>
      <point x="162" y="319" type="curve" smooth="yes"/>
      <point x="165" y="342"/>
      <point x="187" y="354"/>
      <point x="218" y="354" type="curve" smooth="yes"/>
      <point x="250" y="354"/>
      <point x="282" y="345"/>
      <point x="294" y="340" type="curve"/>
      <point x="311" y="412" type="line"/>
      <point x="298" y="416"/>
      <point x="272" y="423"/>
      <point x="235" y="426" type="curve"/>
      <point x="240" y="449"/>
      <point x="242" y="471"/>
      <point x="247" y="492" type="curve"/>
      <point x="177" y="492" type="line"/>
      <point x="168" y="422" type="line"/>
      <point x="109" y="407"/>
      <point x="70" y="371"/>
      <point x="62" y="314" type="curve" smooth="yes"/>
      <point x="48" y="208"/>
      <point x="192" y="192"/>
      <point x="184" y="133" type="curve" smooth="yes"/>
      <point x="181" y="109"/>
      <point x="164" y="94"/>
      <point x="132" y="94" type="curve" smooth="yes"/>
      <point x="99" y="94"/>
      <point x="61" y="108"/>
      <point x="42" y="115" type="curve"/>
    </contour>
  </outline>
</glyph>
<glyph name="percent" format="1">
  <advance width="427"/>
  <unicode hex="0025"/>
  <outline>
    <contour>
      <point x="406" y="104" type="curve" smooth="yes" name="hr00"/>
      <point x="417" y="184"/>
      <point x="392" y="220"/>
      <point x="331" y="220" type="curve" smooth="yes"/>
      <point x="272" y="220"/>
      <point x="237" y="181"/>
      <point x="226" y="104" type="curve" smooth="yes"/>
      <point x="215" y="23"/>
      <point x="238" y="-14"/>
      <point x="299" y="-14" type="curve" smooth="yes"/>
      <point x="360" y="-14"/>
      <point x="394" y="23"/>
    </contour>
    <contour>
      <point x="396" y="458" type="line"/>
      <point x="321" y="458" type="line"/>
      <point x="33" y="-4" type="line"/>
      <point x="110" y="-4" type="line"/>
    </contour>
    <contour>
      <point x="204" y="351" type="curve" smooth="yes"/>
      <point x="215" y="428"/>
      <point x="190" y="467"/>
      <point x="131" y="467" type="curve" smooth="yes"/>
      <point x="71" y="467"/>
      <point x="36" y="428"/>
      <point x="25" y="351" type="curve" smooth="yes"/>
      <point x="14" y="270"/>
      <point x="37" y="233"/>
      <point x="98" y="233" type="curve" smooth="yes"/>
      <point x="159" y="233"/>
      <point x="192" y="270"/>
    </contour>
    <contour>
      <point x="348" y="104" type="curve" smooth="yes"/>
      <point x="342" y="60"/>
      <point x="330" y="35"/>
      <point x="306" y="35" type="curve" smooth="yes"/>
      <point x="283" y="35"/>
      <point x="279" y="60"/>
      <point x="285" y="104" type="curve" smooth="yes"/>
      <point x="292" y="149"/>
      <point x="303" y="172"/>
      <point x="326" y="172" type="curve" smooth="yes"/>
      <point x="347" y="172"/>
      <point x="355" y="149"/>
    </contour>
    <contour>
      <point x="147" y="351" type="curve" smooth="yes"/>
      <point x="141" y="306"/>
      <point x="129" y="281"/>
      <point x="105" y="281" type="curve" smooth="yes"/>
      <point x="84" y="281"/>
      <point x="75" y="304"/>
      <point x="82" y="351" type="curve" smooth="yes"/>
      <point x="88" y="395"/>
      <point x="101" y="419"/>
      <point x="124" y="419" type="curve" smooth="yes"/>
      <point x="147" y="419"/>
      <point x="153" y="395"/>
    </contour>
  </outline>
</glyph>
<glyph name="ampersand" format="1">
  <advance width="436"/>
  <unicode hex="0026"/>
  <outline>
    <contour>
      <point x="424" y="0" type="line" name="hr00"/>
      <point x="353" y="94" type="line"/>
      <point x="380" y="121"/>
      <point x="413" y="173"/>
      <point x="424" y="227" type="curve"/>
      <point x="333" y="227" type="line"/>
      <point x="328" y="206"/>
      <point x="313" y="176"/>
      <point x="302" y="157" type="curve"/>
      <point x="240" y="241" type="line"/>
      <point x="295" y="270"/>
      <point x="334" y="308"/>
      <point x="343" y="369" type="curve" smooth="yes"/>
      <point x="353" y="436"/>
      <point x="309" y="468"/>
      <point x="234" y="468" type="curve" smooth="yes"/>
      <point x="155" y="468"/>
      <point x="101" y="433"/>
      <point x="92" y="362" type="curve" smooth="yes"/>
      <point x="87" y="318"/>
      <point x="102" y="289"/>
      <point x="125" y="262" type="curve"/>
      <point x="69" y="235"/>
      <point x="30" y="194"/>
      <point x="22" y="133" type="curve" smooth="yes"/>
      <point x="9" y="33"/>
      <point x="67" y="-8"/>
      <point x="150" y="-8" type="curve" smooth="yes"/>
      <point x="207" y="-8"/>
      <point x="244" y="8"/>
      <point x="276" y="33" type="curve"/>
      <point x="301" y="0" type="line"/>
    </contour>
    <contour>
      <point x="250" y="359" type="curve" smooth="yes"/>
      <point x="245" y="331"/>
      <point x="225" y="311"/>
      <point x="206" y="299" type="curve"/>
      <point x="198" y="310" type="line"/>
      <point x="186" y="330"/>
      <point x="187" y="344"/>
      <point x="190" y="360" type="curve" smooth="yes"/>
      <point x="195" y="389"/>
      <point x="209" y="397"/>
      <point x="222" y="397" type="curve" smooth="yes"/>
      <point x="247" y="397"/>
      <point x="253" y="375"/>
    </contour>
    <contour>
      <point x="229" y="93" type="line"/>
      <point x="214" y="76"/>
      <point x="194" y="66"/>
      <point x="173" y="66" type="curve" smooth="yes"/>
      <point x="137" y="66"/>
      <point x="121" y="96"/>
      <point x="126" y="139" type="curve" smooth="yes"/>
      <point x="130" y="167"/>
      <point x="144" y="192"/>
      <point x="171" y="203" type="curve"/>
    </contour>
  </outline>
</glyph>
<glyph name="quotesingle" format="1">
  <advance width="124"/>
  <unicode hex="0027"/>
  <outline>
    <contour>
      <point x="108" y="486" type="line" name="hr00"/>
      <point x="31" y="486" type="line"/>
      <point x="17" y="320" type="line"/>
      <point x="75" y="320" type="line"/>
    </contour>
  </outline>
</glyph>
<glyph name="parenleft" format="1">
  <advance width="255"/>
  <unicode hex="0028"/>
  <outline>
    <contour>
      <point x="189" y="516" type="line" name="hr00"/>
      <point x="119" y="462"/>
      <point x="52" y="362"/>
      <point x="26" y="193" type="curve" smooth="yes"/>
      <point x="1" y="26"/>
      <point x="44" y="-79"/>
      <point x="97" y="-129" type="curve"/>
      <point x="163" y="-88" type="line"/>
      <point x="135" y="-53"/>
      <point x="101" y="51"/>
      <point x="121" y="193" type="curve" smooth="yes"/>
      <point x="141" y="336"/>
      <point x="206" y="442"/>
      <point x="241" y="474" type="curve"/>
    </contour>
  </outline>
</glyph>
<glyph name="parenright" format="1">
  <advance width="261"/>
  <unicode hex="0029"/>
  <outline>
    <contour>
      <point x="71" y="-129" type="line" name="hr00"/>
      <point x="136" y="-81"/>
      <point x="210" y="31"/>
      <point x="233" y="195" type="curve" smooth="yes"/>
      <point x="256" y="362"/>
      <point x="211" y="464"/>
      <point x="161" y="516" type="curve"/>
      <point x="96" y="474" type="line"/>
      <point x="122" y="439"/>
      <point x="158" y="339"/>
      <point x="138" y="195" type="curve" smooth="yes"/>
      <point x="118" y="51"/>
      <point x="53" y="-52"/>
      <point x="17" y="-88" type="curve"/>
    </contour>
  </outline>
</glyph>
<glyph name="asterisk" format="1">
  <advance width="287"/>
  <unicode hex="002A"/>
  <outline>
    <contour>
      <point x="49" y="412" type="line" name="hr00"/>
      <point x="17" y="345" type="line"/>
      <point x="44" y="338"/>
      <point x="71" y="332"/>
      <point x="99" y="327" type="curve"/>
      <point x="29" y="261" type="line"/>
      <point x="46" y="246"/>
      <point x="62" y="233"/>
      <point x="81" y="218" type="curve"/>
      <point x="139" y="297" type="line"/>
      <point x="173" y="218" type="line"/>
      <point x="238" y="261" type="line"/>
      <point x="185" y="328" type="line"/>
      <point x="273" y="345" type="line"/>
      <point x="268" y="368"/>
      <point x="265" y="389"/>
      <point x="261" y="412" type="curve"/>
      <point x="175" y="377" type="line"/>
      <point x="198" y="467" type="line"/>
      <point x="127" y="467" type="line"/>
      <point x="122" y="377" type="line"/>
    </contour>
  </outline>
</glyph>
<glyph name="plus" format="1">
  <advance width="308"/>
  <unicode hex="002B"/>
  <outline>
    <contour>
      <point x="215" y="353" type="line" name="hr00"/>
      <point x="138" y="353" type="line"/>
      <point x="123" y="246" type="line"/>
      <point x="27" y="246" type="line"/>
      <point x="17" y="173" type="line"/>
      <point x="114" y="173" type="line"/>
      <point x="99" y="65" type="line"/>
      <point x="176" y="65" type="line"/>
      <point x="191" y="173" type="line"/>
      <point x="287" y="173" type="line"/>
      <point x="297" y="246" type="line"/>
      <point x="201" y="246" type="line"/>
    </contour>
  </outline>
</glyph>
<glyph name="comma" format="1">
  <advance width="135"/>
  <unicode hex="002C"/>
  <outline>
    <contour>
      <point x="47" y="43" type="line" name="hr00"/>
      <point x="42" y="30"/>
      <point x="48" y="20"/>
      <point x="47" y="9" type="curve"/>
      <point x="43" y="-6"/>
      <point x="30" y="-24"/>
      <point x="17" y="-39" type="curve"/>
      <point x="47" y="-53" type="line"/>
      <point x="72" y="-26"/>
      <point x="108" y="8"/>
      <point x="113" y="40" type="curve" smooth="yes"/>
      <point x="117" y="63"/>
      <point x="107" y="77"/>
      <point x="83" y="78" type="curve" smooth="yes"/>
      <point x="68" y="79"/>
      <point x="51" y="65"/>
      <point x="47" y="46" type="curve" smooth="yes"/>
    </contour>
  </outline>
</glyph>
<glyph name="hyphen" format="1">
  <advance width="212"/>
  <unicode hex="002D"/>
  <outline>
    <contour>
      <point x="197" y="230" type="line" name="hr00"/>
      <point x="28" y="230" type="line"/>
      <point x="17" y="156" type="line"/>
      <point x="188" y="156" type="line"/>
    </contour>
  </outline>
</glyph>
<glyph name="period" format="1">
  <advance width="120"/>
  <unicode hex="002E"/>
  <outline>
    <contour>
      <point x="96" y="34" type="curve" smooth="yes" name="hr00"/>
      <point x="100" y="59"/>
      <point x="86" y="74"/>
      <point x="65" y="74" type="curve" smooth="yes"/>
      <point x="42" y="74"/>
      <point x="24" y="59"/>
      <point x="20" y="34" type="curve" smooth="yes"/>
      <point x="17" y="10"/>
      <point x="31" y="-6"/>
      <point x="52" y="-6" type="curve" smooth="yes"/>
      <point x="75" y="-6"/>
      <point x="92" y="10"/>
    </contour>
  </outline>
</glyph>
<glyph name="slash" format="1">
  <advance width="383"/>
  <unicode hex="002F"/>
  <outline>
    <contour>
      <point x="287" y="495" type="line" name="hr00"/>
      <point x="244" y="414"/>
      <point x="128" y="160"/>
      <point x="17" y="-94" type="curve"/>
      <point x="100" y="-94" type="line"/>
      <point x="209" y="160"/>
      <point x="327" y="414"/>
      <point x="370" y="495" type="curve"/>
    </contour>
  </outline>
</glyph>
<glyph name="zero" format="1">
  <advance width="371"/>
  <unicode hex="0030"/>
  <outline>
    <contour>
      <point x="345" y="226" type="curve" smooth="yes" name="hr00"/>
      <point x="369" y="393"/>
      <point x="320" y="462"/>
      <point x="223" y="462" type="curve" smooth="yes"/>
      <point x="122" y="462"/>
      <point x="60" y="394"/>
      <point x="35" y="226" type="curve" smooth="yes"/>
      <point x="11" y="59"/>
      <point x="57" y="-9"/>
      <point x="156" y="-9" type="curve" smooth="yes"/>
      <point x="256" y="-9"/>
      <point x="321" y="59"/>
    </contour>
    <contour>
      <point x="251" y="226" type="curve" smooth="yes"/>
      <point x="236" y="118"/>
      <point x="212" y="62"/>
      <point x="167" y="62" type="curve" smooth="yes"/>
      <point x="120" y="62"/>
      <point x="117" y="121"/>
      <point x="131" y="226" type="curve" smooth="yes"/>
      <point x="145" y="331"/>
      <point x="167" y="391"/>
      <point x="212" y="391" type="curve" smooth="yes"/>
      <point x="257" y="391"/>
      <point x="265" y="331"/>
    </contour>
  </outline>
</glyph>
<glyph name="one" format="1">
  <advance width="258"/>
  <unicode hex="0031"/>
  <outline>
    <contour>
      <point x="158" y="454" type="line" name="hr00"/>
      <point x="133" y="435"/>
      <point x="71" y="397"/>
      <point x="17" y="356" type="curve"/>
      <point x="51" y="297" type="line"/>
      <point x="76" y="314"/>
      <point x="106" y="337"/>
      <point x="135" y="358" type="curve"/>
      <point x="85" y="0" type="line"/>
      <point x="180" y="0" type="line"/>
      <point x="243" y="454" type="line"/>
    </contour>
  </outline>
</glyph>
<glyph name="two" format="1">
  <advance width="341"/>
  <unicode hex="0032"/>
  <outline>
    <contour>
      <point x="292" y="80" type="line" name="hr00"/>
      <point x="231" y="80"/>
      <point x="183" y="76"/>
      <point x="135" y="75" type="curve"/>
      <point x="210" y="140"/>
      <point x="309" y="235"/>
      <point x="323" y="339" type="curve" smooth="yes"/>
      <point x="333" y="419"/>
      <point x="296" y="462"/>
      <point x="205" y="462" type="curve" smooth="yes"/>
      <point x="149" y="462"/>
      <point x="96" y="443"/>
      <point x="82" y="433" type="curve"/>
      <point x="85" y="412"/>
      <point x="87" y="389"/>
      <point x="88" y="368" type="curve"/>
      <point x="99" y="375"/>
      <point x="138" y="387"/>
      <point x="172" y="387" type="curve" smooth="yes"/>
      <point x="212" y="387"/>
      <point x="229" y="364"/>
      <point x="224" y="319" type="curve"/>
      <point x="204" y="226"/>
      <point x="69" y="106"/>
      <point x="25" y="66" type="curve"/>
      <point x="17" y="0" type="line"/>
      <point x="281" y="0" type="line"/>
    </contour>
  </outline>
</glyph>
<glyph name="three" format="1">
  <advance width="357"/>
  <unicode hex="0033"/>
  <outline>
    <contour>
      <point x="101" y="370" type="line" name="hr00"/>
      <point x="105" y="372"/>
      <point x="146" y="386"/>
      <point x="182" y="386" type="curve" smooth="yes"/>
      <point x="223" y="386"/>
      <point x="246" y="369"/>
      <point x="241" y="332" type="curve" smooth="yes"/>
      <point x="235" y="294"/>
      <point x="207" y="278"/>
      <point x="200" y="271" type="curve"/>
      <point x="183" y="266"/>
      <point x="164" y="263"/>
      <point x="144" y="263" type="curve" smooth="yes"/>
      <point x="120" y="263" type="line"/>
      <point x="110" y="195" type="line"/>
      <point x="161" y="195" type="line" smooth="yes"/>
      <point x="206" y="195"/>
      <point x="232" y="177"/>
      <point x="225" y="136" type="curve" smooth="yes"/>
      <point x="217" y="87"/>
      <point x="186" y="68"/>
      <point x="141" y="68" type="curve" smooth="yes"/>
      <point x="97" y="68"/>
      <point x="60" y="90"/>
      <point x="51" y="93" type="curve"/>
      <point x="17" y="26" type="line"/>
      <point x="29" y="23"/>
      <point x="70" y="-9"/>
      <point x="144" y="-9" type="curve" smooth="yes"/>
      <point x="238" y="-9"/>
      <point x="311" y="33"/>
      <point x="325" y="133" type="curve" smooth="yes"/>
      <point x="333" y="194"/>
      <point x="308" y="226"/>
      <point x="263" y="241" type="curve"/>
      <point x="300" y="261"/>
      <point x="334" y="293"/>
      <point x="342" y="348" type="curve" smooth="yes"/>
      <point x="353" y="423"/>
      <point x="305" y="462"/>
      <point x="213" y="462" type="curve" smooth="yes"/>
      <point x="153" y="462"/>
      <point x="106" y="446"/>
      <point x="94" y="439" type="curve"/>
    </contour>
  </outline>
</glyph>
<glyph name="four" format="1">
  <advance width="354"/>
  <unicode hex="0034"/>
  <outline>
    <contour>
      <point x="184" y="454" type="line" name="hr00"/>
      <point x="25" y="179" type="line"/>
      <point x="17" y="118" type="line"/>
      <point x="201" y="118" type="line"/>
      <point x="184" y="0" type="line"/>
      <point x="280" y="0" type="line"/>
      <point x="297" y="118" type="line"/>
      <point x="332" y="118" type="line"/>
      <point x="343" y="195" type="line"/>
      <point x="306" y="195" type="line"/>
      <point x="320" y="288" type="line"/>
      <point x="222" y="275" type="line"/>
      <point x="212" y="195" type="line"/>
      <point x="135" y="195" type="line"/>
      <point x="283" y="454" type="line"/>
    </contour>
  </outline>
</glyph>
<glyph name="five" format="1">
  <advance width="348"/>
  <unicode hex="0035"/>
  <outline>
    <contour>
      <point x="125" y="454" type="line" name="hr00"/>
      <point x="71" y="210" type="line"/>
      <point x="80" y="209"/>
      <point x="88" y="206"/>
      <point x="96" y="202" type="curve"/>
      <point x="104" y="209"/>
      <point x="133" y="218"/>
      <point x="160" y="218" type="curve" smooth="yes"/>
      <point x="204" y="218"/>
      <point x="223" y="193"/>
      <point x="216" y="143" type="curve" smooth="yes"/>
      <point x="208" y="92"/>
      <point x="183" y="65"/>
      <point x="142" y="65" type="curve" smooth="yes"/>
      <point x="108" y="65"/>
      <point x="66" y="82"/>
      <point x="50" y="90" type="curve"/>
      <point x="17" y="30" type="line"/>
      <point x="30" y="22"/>
      <point x="63" y="-9"/>
      <point x="135" y="-9" type="curve" smooth="yes"/>
      <point x="226" y="-9"/>
      <point x="297" y="34"/>
      <point x="311" y="142" type="curve" smooth="yes"/>
      <point x="323" y="238"/>
      <point x="281" y="286"/>
      <point x="202" y="286" type="curve" smooth="yes"/>
      <point x="186" y="286"/>
      <point x="176" y="283"/>
      <point x="164" y="279" type="curve"/>
      <point x="186" y="378" type="line"/>
      <point x="326" y="378" type="line"/>
      <point x="337" y="454" type="line"/>
    </contour>
  </outline>
</glyph>
<glyph name="six" format="1">
  <advance width="332"/>
  <unicode hex="0036"/>
  <outline>
    <contour>
      <point x="274" y="466" type="line" name="hr00"/>
      <point x="157" y="422"/>
      <point x="46" y="334"/>
      <point x="24" y="172" type="curve" smooth="yes"/>
      <point x="6" y="45"/>
      <point x="62" y="-9"/>
      <point x="144" y="-9" type="curve" smooth="yes"/>
      <point x="224" y="-9"/>
      <point x="300" y="48"/>
      <point x="314" y="156" type="curve" smooth="yes"/>
      <point x="324" y="232"/>
      <point x="287" y="289"/>
      <point x="217" y="289" type="curve" smooth="yes"/>
      <point x="192" y="289"/>
      <point x="172" y="281"/>
      <point x="153" y="276" type="curve"/>
      <point x="186" y="341"/>
      <point x="237" y="377"/>
      <point x="292" y="400" type="curve"/>
    </contour>
    <contour>
      <point x="181" y="227" type="curve" smooth="yes"/>
      <point x="210" y="227"/>
      <point x="227" y="202"/>
      <point x="220" y="150" type="curve" smooth="yes"/>
      <point x="211" y="91"/>
      <point x="190" y="60"/>
      <point x="157" y="60" type="curve" smooth="yes"/>
      <point x="125" y="60"/>
      <point x="109" y="94"/>
      <point x="116" y="146" type="curve" smooth="yes"/>
      <point x="119" y="169"/>
      <point x="123" y="189"/>
      <point x="129" y="206" type="curve"/>
      <point x="143" y="220"/>
      <point x="160" y="227"/>
    </contour>
  </outline>
</glyph>
<glyph name="seven" format="1">
  <advance width="335"/>
  <unicode hex="0037"/>
  <outline>
    <contour>
      <point x="328" y="454" type="line" name="hr00"/>
      <point x="60" y="454" type="line"/>
      <point x="49" y="375" type="line"/>
      <point x="219" y="380" type="line"/>
      <point x="201" y="341"/>
      <point x="70" y="110"/>
      <point x="17" y="0" type="curve"/>
      <point x="117" y="0" type="line"/>
      <point x="189" y="153"/>
      <point x="269" y="309"/>
      <point x="320" y="395" type="curve"/>
    </contour>
  </outline>
</glyph>
<glyph name="eight" format="1">
  <advance width="348"/>
  <unicode hex="0038"/>
  <outline>
    <contour>
      <point x="220" y="462" type="curve" smooth="yes" name="hr00"/>
      <point x="137" y="462"/>
      <point x="77" y="423"/>
      <point x="65" y="348" type="curve" smooth="yes"/>
      <point x="57" y="293"/>
      <point x="84" y="261"/>
      <point x="117" y="241" type="curve"/>
      <point x="68" y="226"/>
      <point x="30" y="194"/>
      <point x="22" y="133" type="curve" smooth="yes"/>
      <point x="9" y="33"/>
      <point x="64" y="-9"/>
      <point x="150" y="-9" type="curve" smooth="yes"/>
      <point x="240" y="-9"/>
      <point x="304" y="33"/>
      <point x="318" y="133" type="curve" smooth="yes"/>
      <point x="326" y="194"/>
      <point x="302" y="226"/>
      <point x="255" y="241" type="curve"/>
      <point x="294" y="261"/>
      <point x="327" y="293"/>
      <point x="335" y="348" type="curve" smooth="yes"/>
      <point x="346" y="423"/>
      <point x="303" y="462"/>
    </contour>
    <contour>
      <point x="122" y="129" type="curve" smooth="yes"/>
      <point x="128" y="172"/>
      <point x="144" y="195"/>
      <point x="165" y="195" type="curve" smooth="yes"/>
      <point x="205" y="195"/>
      <point x="224" y="172"/>
      <point x="218" y="129" type="curve" smooth="yes"/>
      <point x="212" y="84"/>
      <point x="190" y="62"/>
      <point x="161" y="62" type="curve" smooth="yes"/>
      <point x="132" y="62"/>
      <point x="116" y="84"/>
    </contour>
    <contour>
      <point x="164" y="340" type="curve" smooth="yes"/>
      <point x="168" y="371"/>
      <point x="183" y="391"/>
      <point x="207" y="391" type="curve" smooth="yes"/>
      <point x="230" y="391"/>
      <point x="240" y="371"/>
      <point x="235" y="340" type="curve" smooth="yes"/>
      <point x="230" y="308"/>
      <point x="225" y="267"/>
      <point x="203" y="267" type="curve" smooth="yes"/>
      <point x="153" y="267"/>
      <point x="160" y="310"/>
    </contour>
  </outline>
</glyph>
<glyph name="nine" format="1">
  <advance width="328"/>
  <unicode hex="0039"/>
  <outline>
    <contour>
      <point x="61" y="-13" type="line" name="hr00"/>
      <point x="177" y="29"/>
      <point x="288" y="121"/>
      <point x="310" y="282" type="curve" smooth="yes"/>
      <point x="328" y="409"/>
      <point x="272" y="462"/>
      <point x="190" y="462" type="curve" smooth="yes"/>
      <point x="110" y="462"/>
      <point x="34" y="406"/>
      <point x="20" y="298" type="curve" smooth="yes"/>
      <point x="10" y="218"/>
      <point x="48" y="164"/>
      <point x="120" y="164" type="curve" smooth="yes"/>
      <point x="145" y="164"/>
      <point x="165" y="170"/>
      <point x="181" y="177" type="curve"/>
      <point x="148" y="112"/>
      <point x="97" y="74"/>
      <point x="42" y="53" type="curve"/>
    </contour>
    <contour>
      <point x="154" y="225" type="curve" smooth="yes"/>
      <point x="125" y="225"/>
      <point x="107" y="250"/>
      <point x="115" y="303" type="curve" smooth="yes"/>
      <point x="123" y="362"/>
      <point x="145" y="393"/>
      <point x="178" y="393" type="curve" smooth="yes"/>
      <point x="210" y="393"/>
      <point x="226" y="361"/>
      <point x="218" y="309" type="curve"/>
      <point x="218" y="285"/>
      <point x="210" y="264"/>
      <point x="205" y="248" type="curve"/>
      <point x="191" y="233"/>
      <point x="174" y="225"/>
    </contour>
  </outline>
</glyph>
<glyph name="colon" format="1">
  <advance width="168"/>
  <unicode hex="003A"/>
  <outline>
    <contour>
      <point x="152" y="276" type="curve" smooth="yes" name="hr00"/>
      <point x="157" y="312"/>
      <point x="139" y="334"/>
      <point x="110" y="334" type="curve" smooth="yes"/>
      <point x="81" y="334"/>
      <point x="55" y="312"/>
      <point x="50" y="276" type="curve" smooth="yes"/>
      <point x="46" y="240"/>
      <point x="64" y="219"/>
      <point x="93" y="219" type="curve" smooth="yes"/>
      <point x="122" y="219"/>
      <point x="148" y="240"/>
    </contour>
    <contour>
      <point x="122" y="65" type="curve" smooth="yes"/>
      <point x="127" y="97"/>
      <point x="108" y="122"/>
      <point x="79" y="122" type="curve" smooth="yes"/>
      <point x="50" y="122"/>
      <point x="27" y="97"/>
      <point x="20" y="65" type="curve"/>
      <point x="16" y="28"/>
      <point x="35" y="7"/>
      <point x="64" y="7" type="curve" smooth="yes"/>
      <point x="93" y="7"/>
      <point x="117" y="28"/>
    </contour>
  </outline>
</glyph>
<glyph name="semicolon" format="1">
  <advance width="191"/>
  <unicode hex="003B"/>
  <outline>
    <contour>
      <point x="55" y="49" type="line" smooth="yes" name="hr00"/>
      <point x="50" y="26"/>
      <point x="58" y="11"/>
      <point x="55" y="-6" type="curve" smooth="yes"/>
      <point x="51" y="-29"/>
      <point x="33" y="-59"/>
      <point x="17" y="-82" type="curve"/>
      <point x="28" y="-90"/>
      <point x="42" y="-96"/>
      <point x="55" y="-104" type="curve"/>
      <point x="91" y="-59"/>
      <point x="134" y="-4"/>
      <point x="144" y="42" type="curve" smooth="yes"/>
      <point x="152" y="83"/>
      <point x="137" y="103"/>
      <point x="104" y="103" type="curve" smooth="yes"/>
      <point x="83" y="103"/>
      <point x="62" y="81"/>
      <point x="55" y="52" type="curve"/>
    </contour>
    <contour>
      <point x="181" y="276" type="curve" smooth="yes"/>
      <point x="186" y="312"/>
      <point x="168" y="334"/>
      <point x="139" y="334" type="curve" smooth="yes"/>
      <point x="108" y="334"/>
      <point x="84" y="312"/>
      <point x="79" y="276" type="curve" smooth="yes"/>
      <point x="75" y="240"/>
      <point x="93" y="219"/>
      <point x="122" y="219" type="curve" smooth="yes"/>
      <point x="151" y="219"/>
      <point x="177" y="240"/>
    </contour>
  </outline>
</glyph>
<glyph name="less" format="1">
  <advance width="272"/>
  <unicode hex="003C"/>
  <outline>
    <contour>
      <point x="17" y="212" type="line" name="hr00"/>
      <point x="221" y="75" type="line"/>
      <point x="230" y="146" type="line"/>
      <point x="119" y="227" type="line"/>
      <point x="253" y="308" type="line"/>
      <point x="264" y="380" type="line"/>
      <point x="21" y="243" type="line"/>
    </contour>
  </outline>
</glyph>
<glyph name="equal" format="1">
  <advance width="329"/>
  <unicode hex="003D"/>
  <outline>
    <contour>
      <point x="316" y="314" type="line" name="hr00"/>
      <point x="46" y="314" type="line"/>
      <point x="37" y="241" type="line"/>
      <point x="306" y="241" type="line"/>
    </contour>
    <contour>
      <point x="297" y="177" type="line"/>
      <point x="26" y="177" type="line"/>
      <point x="17" y="105" type="line"/>
      <point x="287" y="105" type="line"/>
    </contour>
  </outline>
</glyph>
<glyph name="greater" format="1">
  <advance width="280"/>
  <unicode hex="003E"/>
  <outline>
    <contour>
      <point x="263" y="243" type="line" name="hr00"/>
      <point x="59" y="380" type="line"/>
      <point x="49" y="308" type="line"/>
      <point x="162" y="227" type="line"/>
      <point x="26" y="146" type="line"/>
      <point x="17" y="75" type="line"/>
      <point x="260" y="212" type="line"/>
    </contour>
  </outline>
</glyph>
<glyph name="question" format="1">
  <advance width="275"/>
  <unicode hex="003F"/>
  <outline>
    <contour>
      <point x="42" y="397" type="line" name="hr00"/>
      <point x="51" y="401"/>
      <point x="82" y="415"/>
      <point x="114" y="415" type="curve" smooth="yes"/>
      <point x="151" y="415"/>
      <point x="166" y="402"/>
      <point x="161" y="365" type="curve" smooth="yes"/>
      <point x="151" y="292"/>
      <point x="64" y="280"/>
      <point x="52" y="179" type="curve" smooth="yes"/>
      <point x="51" y="175"/>
      <point x="51" y="169"/>
      <point x="51" y="164" type="curve"/>
      <point x="65" y="164"/>
      <point x="110" y="170"/>
      <point x="125" y="170" type="curve"/>
      <point x="137" y="263"/>
      <point x="245" y="258"/>
      <point x="261" y="377" type="curve" smooth="yes"/>
      <point x="272" y="459"/>
      <point x="222" y="494"/>
      <point x="146" y="494" type="curve" smooth="yes"/>
      <point x="82" y="494"/>
      <point x="45" y="472"/>
      <point x="36" y="466" type="curve"/>
    </contour>
    <contour>
      <point x="122" y="50" type="curve" smooth="yes"/>
      <point x="128" y="86"/>
      <point x="110" y="108"/>
      <point x="81" y="108" type="curve" smooth="yes"/>
      <point x="52" y="108"/>
      <point x="26" y="86"/>
      <point x="21" y="50" type="curve" smooth="yes"/>
      <point x="16" y="15"/>
      <point x="35" y="-6"/>
      <point x="64" y="-6" type="curve" smooth="yes"/>
      <point x="93" y="-6"/>
      <point x="117" y="15"/>
    </contour>
  </outline>
</glyph>
<glyph name="at" format="1">
  <advance width="539"/>
  <unicode hex="0040"/>
  <outline>
    <contour>
      <point x="371" y="-12" type="curve" smooth="yes" name="hr00"/>
      <point x="413" y="-12"/>
      <point x="497" y="19"/>
      <point x="520" y="178" type="curve" smooth="yes"/>
      <point x="545" y="346"/>
      <point x="466" y="444"/>
      <point x="325" y="444" type="curve" smooth="yes"/>
      <point x="166" y="444"/>
      <point x="53" y="325"/>
      <point x="26" y="141" type="curve" smooth="yes"/>
      <point x="0" y="-36"/>
      <point x="74" y="-151"/>
      <point x="229" y="-151" type="curve" smooth="yes"/>
      <point x="268" y="-151"/>
      <point x="304" y="-143"/>
      <point x="320" y="-142" type="curve"/>
      <point x="316" y="-82" type="line"/>
      <point x="303" y="-83"/>
      <point x="277" y="-88"/>
      <point x="248" y="-88" type="curve" smooth="yes"/>
      <point x="127" y="-88"/>
      <point x="76" y="-6"/>
      <point x="98" y="143" type="curve" smooth="yes"/>
      <point x="121" y="303"/>
      <point x="203" y="381"/>
      <point x="315" y="381" type="curve" smooth="yes"/>
      <point x="426" y="381"/>
      <point x="467" y="303"/>
      <point x="447" y="166" type="curve" smooth="yes"/>
      <point x="436" y="87"/>
      <point x="413" y="42"/>
      <point x="385" y="42" type="curve" smooth="yes"/>
      <point x="366" y="42"/>
      <point x="365" y="63"/>
      <point x="369" y="88" type="curve" smooth="yes"/>
      <point x="397" y="287" type="line"/>
      <point x="340" y="296" type="line"/>
      <point x="337" y="291"/>
      <point x="337" y="276"/>
      <point x="334" y="271" type="curve"/>
      <point x="317" y="280"/>
      <point x="297" y="294"/>
      <point x="269" y="294" type="curve" smooth="yes"/>
      <point x="221" y="294"/>
      <point x="165" y="243"/>
      <point x="150" y="136" type="curve" smooth="yes"/>
      <point x="136" y="31"/>
      <point x="178" y="-12"/>
      <point x="224" y="-12" type="curve" smooth="yes"/>
      <point x="264" y="-12"/>
      <point x="289" y="19"/>
      <point x="307" y="37" type="curve"/>
      <point x="311" y="4"/>
      <point x="340" y="-12"/>
    </contour>
    <contour>
      <point x="252" y="48" type="curve" smooth="yes"/>
      <point x="224" y="48"/>
      <point x="216" y="79"/>
      <point x="224" y="141" type="curve" smooth="yes"/>
      <point x="232" y="202"/>
      <point x="251" y="241"/>
      <point x="284" y="241" type="curve" smooth="yes"/>
      <point x="301" y="241"/>
      <point x="312" y="228"/>
      <point x="320" y="220" type="curve"/>
      <point x="300" y="82" type="line"/>
      <point x="289" y="67"/>
      <point x="273" y="48"/>
    </contour>
  </outline>
</glyph>
<glyph name="B" format="1">
  <advance width="365"/>
  <unicode hex="0042"/>
  <outline>
    <contour>
      <point x="17" y="0" type="line" name="hr00"/>
      <point x="41" y="0"/>
      <point x="88" y="-4"/>
      <point x="137" y="-4" type="curve" smooth="yes"/>
      <point x="254" y="-4"/>
      <point x="311" y="38"/>
      <point x="325" y="131" type="curve" smooth="yes"/>
      <point x="334" y="195"/>
      <point x="308" y="225"/>
      <point x="270" y="236" type="curve"/>
      <point x="299" y="253"/>
      <point x="330" y="289"/>
      <point x="338" y="341" type="curve" smooth="yes"/>
      <point x="351" y="428"/>
      <point x="308" y="457"/>
      <point x="197" y="457" type="curve" smooth="yes"/>
      <point x="150" y="457"/>
      <point x="105" y="454"/>
      <point x="81" y="454" type="curve"/>
    </contour>
    <contour>
      <point x="164" y="199" type="curve" smooth="yes"/>
      <point x="214" y="199"/>
      <point x="236" y="178"/>
      <point x="230" y="136" type="curve" smooth="yes"/>
      <point x="222" y="81"/>
      <point x="194" y="65"/>
      <point x="139" y="65" type="curve" smooth="yes"/>
      <point x="131" y="65"/>
      <point x="125" y="66"/>
      <point x="117" y="66" type="curve"/>
      <point x="137" y="198" type="line"/>
      <point x="145" y="199"/>
      <point x="153" y="199"/>
    </contour>
    <contour>
      <point x="191" y="388" type="curve" smooth="yes"/>
      <point x="239" y="388"/>
      <point x="249" y="365"/>
      <point x="245" y="325" type="curve" smooth="yes"/>
      <point x="241" y="288"/>
      <point x="219" y="255"/>
      <point x="167" y="255" type="curve" smooth="yes"/>
      <point x="145" y="255" type="line"/>
      <point x="162" y="387" type="line"/>
      <point x="171" y="387"/>
      <point x="180" y="388"/>
    </contour>
  </outline>
</glyph>
<glyph name="C" format="1">
  <advance width="373"/>
  <unicode hex="0043"/>
  <outline>
    <contour>
      <point x="134" y="226" type="curve" smooth="yes" name="hr00"/>
      <point x="149" y="334"/>
      <point x="178" y="386"/>
      <point x="258" y="386" type="curve" smooth="yes"/>
      <point x="289" y="386"/>
      <point x="316" y="373"/>
      <point x="331" y="369" type="curve"/>
      <point x="354" y="441" type="line"/>
      <point x="342" y="444"/>
      <point x="311" y="462"/>
      <point x="252" y="462" type="curve" smooth="yes"/>
      <point x="128" y="462"/>
      <point x="57" y="389"/>
      <point x="34" y="226" type="curve" smooth="yes"/>
      <point x="11" y="65"/>
      <point x="61" y="-11"/>
      <point x="185" y="-11" type="curve" smooth="yes"/>
      <point x="242" y="-11"/>
      <point x="282" y="6"/>
      <point x="294" y="11" type="curve"/>
      <point x="291" y="35"/>
      <point x="292" y="59"/>
      <point x="291" y="83" type="curve"/>
      <point x="276" y="79"/>
      <point x="245" y="66"/>
      <point x="212" y="66" type="curve" smooth="yes"/>
      <point x="135" y="66"/>
      <point x="120" y="119"/>
    </contour>
  </outline>
</glyph>
<glyph name="D" format="1">
  <advance width="395"/>
  <unicode hex="0044"/>
  <outline>
    <contour>
      <point x="17" y="0" type="line" name="hr00"/>
      <point x="40" y="0"/>
      <point x="82" y="-4"/>
      <point x="137" y="-4" type="curve" smooth="yes"/>
      <point x="262" y="-4"/>
      <point x="343" y="42"/>
      <point x="367" y="226" type="curve" smooth="yes"/>
      <point x="391" y="414"/>
      <point x="330" y="457"/>
      <point x="201" y="457" type="curve" smooth="yes"/>
      <point x="146" y="457"/>
      <point x="104" y="454"/>
      <point x="81" y="454" type="curve"/>
    </contour>
    <contour>
      <point x="123" y="71" type="line"/>
      <point x="167" y="381" type="line"/>
      <point x="178" y="382"/>
      <point x="188" y="382"/>
      <point x="200" y="382" type="curve" smooth="yes"/>
      <point x="263" y="382"/>
      <point x="285" y="335"/>
      <point x="269" y="226" type="curve" smooth="yes"/>
      <point x="254" y="122"/>
      <point x="220" y="71"/>
      <point x="156" y="71" type="curve" smooth="yes"/>
    </contour>
  </outline>
</glyph>
<glyph name="F" format="1">
  <advance width="332"/>
  <unicode hex="0046"/>
  <outline>
    <contour>
      <point x="266" y="252" type="line" name="hr00"/>
      <point x="149" y="252" type="line"/>
      <point x="167" y="376" type="line"/>
      <point x="307" y="376" type="line"/>
      <point x="318" y="454" type="line"/>
      <point x="81" y="454" type="line"/>
      <point x="17" y="0" type="line"/>
      <point x="114" y="0" type="line"/>
      <point x="139" y="178" type="line"/>
      <point x="256" y="178" type="line"/>
    </contour>
  </outline>
</glyph>
<glyph name="G" format="1">
  <advance width="373"/>
  <unicode hex="0047"/>
  <outline>
    <contour>
      <point x="355" y="263" type="line" name="hr00"/>
      <point x="212" y="263" type="line"/>
      <point x="201" y="187" type="line"/>
      <point x="249" y="187" type="line"/>
      <point x="232" y="66" type="line"/>
      <point x="212" y="66" type="line" smooth="yes"/>
      <point x="135" y="66"/>
      <point x="120" y="119"/>
      <point x="134" y="226" type="curve" smooth="yes"/>
      <point x="149" y="334"/>
      <point x="178" y="386"/>
      <point x="258" y="386" type="curve" smooth="yes"/>
      <point x="290" y="386"/>
      <point x="332" y="374"/>
      <point x="343" y="369" type="curve"/>
      <point x="366" y="441" type="line"/>
      <point x="355" y="444"/>
      <point x="310" y="462"/>
      <point x="252" y="462" type="curve" smooth="yes"/>
      <point x="128" y="462"/>
      <point x="57" y="389"/>
      <point x="34" y="226" type="curve" smooth="yes"/>
      <point x="11" y="65"/>
      <point x="61" y="-11"/>
      <point x="185" y="-11" type="curve" smooth="yes"/>
      <point x="248" y="-11"/>
      <point x="307" y="7"/>
      <point x="320" y="11" type="curve"/>
    </contour>
  </outline>
</glyph>
<glyph name="H" format="1">
  <advance width="401"/>
  <unicode hex="0048"/>
  <outline>
    <contour>
      <point x="395" y="454" type="line" name="hr00"/>
      <point x="299" y="454" type="line"/>
      <point x="273" y="263" type="line"/>
      <point x="150" y="263" type="line"/>
      <point x="177" y="454" type="line"/>
      <point x="81" y="454" type="line"/>
      <point x="17" y="0" type="line"/>
      <point x="113" y="0" type="line"/>
      <point x="139" y="187" type="line"/>
      <point x="263" y="187" type="line"/>
      <point x="236" y="0" type="line"/>
      <point x="331" y="0" type="line"/>
    </contour>
  </outline>
</glyph>
<glyph name="I" format="1">
  <advance width="185"/>
  <unicode hex="0049"/>
  <outline>
    <contour>
      <point x="177" y="454" type="line" name="hr00"/>
      <point x="81" y="454" type="line"/>
      <point x="17" y="0" type="line"/>
      <point x="113" y="0" type="line"/>
    </contour>
  </outline>
</glyph>
<glyph name="J" format="1">
  <advance width="264"/>
  <unicode hex="004A"/>
  <outline>
    <contour>
      <point x="257" y="454" type="line" name="hr00"/>
      <point x="161" y="454" type="line"/>
      <point x="106" y="68" type="line" smooth="yes"/>
      <point x="99" y="16"/>
      <point x="90" y="-7"/>
      <point x="70" y="-20" type="curve"/>
      <point x="59" y="-34"/>
      <point x="47" y="-42"/>
      <point x="32" y="-43" type="curve"/>
      <point x="17" y="-114" type="line"/>
      <point x="25" y="-115"/>
      <point x="31" y="-115"/>
      <point x="39" y="-115" type="curve" smooth="yes"/>
      <point x="128" y="-115"/>
      <point x="181" y="-81"/>
      <point x="205" y="89" type="curve" smooth="yes"/>
    </contour>
  </outline>
</glyph>
<glyph name="K" format="1">
  <advance width="398"/>
  <unicode hex="004B"/>
  <outline>
    <contour>
      <point x="17" y="0" type="line" name="hr00"/>
      <point x="113" y="0" type="line"/>
      <point x="144" y="221" type="line"/>
      <point x="230" y="0" type="line"/>
      <point x="345" y="0" type="line"/>
      <point x="309" y="84"/>
      <point x="272" y="164"/>
      <point x="237" y="248" type="curve"/>
      <point x="394" y="454" type="line"/>
      <point x="287" y="454" type="line"/>
      <point x="149" y="255" type="line"/>
      <point x="177" y="454" type="line"/>
      <point x="81" y="454" type="line"/>
    </contour>
  </outline>
</glyph>
<glyph name="L" format="1">
  <advance width="271"/>
  <unicode hex="004C"/>
  <outline>
    <contour>
      <point x="241" y="0" type="line" name="hr00"/>
      <point x="258" y="78" type="line"/>
      <point x="123" y="78" type="line"/>
      <point x="177" y="454" type="line"/>
      <point x="81" y="454" type="line"/>
      <point x="17" y="0" type="line"/>
    </contour>
  </outline>
</glyph>
<glyph name="M" format="1">
  <advance width="490"/>
  <unicode hex="004D"/>
  <outline>
    <contour>
      <point x="481" y="454" type="line" name="hr00"/>
      <point x="387" y="454" type="line"/>
      <point x="368" y="416"/>
      <point x="278" y="221"/>
      <point x="261" y="167" type="curve"/>
      <point x="256" y="224"/>
      <point x="224" y="414"/>
      <point x="217" y="454" type="curve"/>
      <point x="123" y="454" type="line"/>
      <point x="17" y="0" type="line"/>
      <point x="110" y="0" type="line"/>
      <point x="169" y="289" type="line"/>
      <point x="177" y="241"/>
      <point x="204" y="73"/>
      <point x="208" y="38" type="curve"/>
      <point x="274" y="38" type="line"/>
      <point x="382" y="289" type="line"/>
      <point x="378" y="230"/>
      <point x="366" y="46"/>
      <point x="362" y="0" type="curve"/>
      <point x="459" y="0" type="line"/>
    </contour>
  </outline>
</glyph>
<glyph name="N" format="1">
  <advance width="406"/>
  <unicode hex="004E"/>
  <outline>
    <contour>
      <point x="394" y="454" type="line" name="hr00"/>
      <point x="309" y="454" type="line"/>
      <point x="276" y="219" type="line"/>
      <point x="275" y="199"/>
      <point x="274" y="177"/>
      <point x="271" y="169" type="curve"/>
      <point x="270" y="169" type="line"/>
      <point x="167" y="454" type="line"/>
      <point x="81" y="454" type="line"/>
      <point x="17" y="0" type="line"/>
      <point x="101" y="0" type="line"/>
      <point x="133" y="235" type="line" smooth="yes"/>
      <point x="136" y="256"/>
      <point x="138" y="277"/>
      <point x="139" y="286" type="curve"/>
      <point x="245" y="0" type="line"/>
      <point x="330" y="0" type="line"/>
    </contour>
  </outline>
</glyph>
<glyph name="O" format="1">
  <advance width="406"/>
  <unicode hex="004F"/>
  <outline>
    <contour>
      <point x="381" y="226" type="curve" smooth="yes" name="hr00"/>
      <point x="404" y="389"/>
      <point x="352" y="462"/>
      <point x="241" y="462" type="curve" smooth="yes"/>
      <point x="129" y="462"/>
      <point x="57" y="389"/>
      <point x="34" y="226" type="curve" smooth="yes"/>
      <point x="11" y="65"/>
      <point x="62" y="-9"/>
      <point x="174" y="-9" type="curve" smooth="yes"/>
      <point x="286" y="-9"/>
      <point x="358" y="65"/>
    </contour>
    <contour>
      <point x="282" y="226" type="curve" smooth="yes"/>
      <point x="268" y="125"/>
      <point x="240" y="67"/>
      <point x="184" y="67" type="curve" smooth="yes"/>
      <point x="131" y="67"/>
      <point x="118" y="125"/>
      <point x="133" y="226" type="curve" smooth="yes"/>
      <point x="148" y="329"/>
      <point x="177" y="386"/>
      <point x="229" y="386" type="curve" smooth="yes"/>
      <point x="282" y="386"/>
      <point x="296" y="329"/>
    </contour>
  </outline>
</glyph>
<glyph name="P" format="1">
  <advance width="365"/>
  <unicode hex="0050"/>
  <outline>
    <contour>
      <point x="17" y="0" type="line" name="hr00"/>
      <point x="110" y="0" type="line"/>
      <point x="131" y="150" type="line"/>
      <point x="142" y="149"/>
      <point x="152" y="149"/>
      <point x="163" y="149" type="curve" smooth="yes"/>
      <point x="251" y="149"/>
      <point x="324" y="188"/>
      <point x="341" y="303" type="curve" smooth="yes"/>
      <point x="356" y="404"/>
      <point x="317" y="457"/>
      <point x="200" y="457" type="curve" smooth="yes"/>
      <point x="158" y="457"/>
      <point x="102" y="454"/>
      <point x="81" y="454" type="curve"/>
    </contour>
    <contour>
      <point x="193" y="385" type="curve" smooth="yes"/>
      <point x="235" y="385"/>
      <point x="253" y="358"/>
      <point x="245" y="303" type="curve" smooth="yes"/>
      <point x="235" y="240"/>
      <point x="206" y="219"/>
      <point x="167" y="219" type="curve" smooth="yes"/>
      <point x="140" y="219" type="line"/>
      <point x="164" y="384" type="line"/>
      <point x="175" y="385"/>
      <point x="184" y="385"/>
    </contour>
  </outline>
</glyph>
<glyph name="R" format="1">
  <advance width="370"/>
  <unicode hex="0052"/>
  <outline>
    <contour>
      <point x="17" y="0" type="line" name="hr00"/>
      <point x="108" y="0" type="line"/>
      <point x="132" y="173" type="line"/>
      <point x="137" y="173"/>
      <point x="150" y="172"/>
      <point x="167" y="172" type="curve"/>
      <point x="215" y="0" type="line"/>
      <point x="317" y="0" type="line"/>
      <point x="254" y="185" type="line"/>
      <point x="297" y="198"/>
      <point x="338" y="238"/>
      <point x="348" y="310" type="curve" smooth="yes"/>
      <point x="362" y="419"/>
      <point x="316" y="457"/>
      <point x="203" y="457" type="curve" smooth="yes"/>
      <point x="155" y="457"/>
      <point x="105" y="454"/>
      <point x="81" y="454" type="curve"/>
    </contour>
    <contour>
      <point x="184" y="241" type="curve" smooth="yes"/>
      <point x="168" y="241"/>
      <point x="150" y="243"/>
      <point x="142" y="243" type="curve"/>
      <point x="161" y="383" type="line"/>
      <point x="177" y="384"/>
      <point x="188" y="385"/>
      <point x="200" y="385" type="curve" smooth="yes"/>
      <point x="244" y="385"/>
      <point x="260" y="360"/>
      <point x="252" y="312" type="curve" smooth="yes"/>
      <point x="245" y="265"/>
      <point x="222" y="241"/>
    </contour>
  </outline>
</glyph>
<glyph name="S" format="1">
  <advance width="362"/>
  <unicode hex="0053"/>
  <outline>
    <contour>
      <point x="231" y="462" type="curve" smooth="yes" name="hr00"/>
      <point x="139" y="462"/>
      <point x="80" y="412"/>
      <point x="68" y="331" type="curve" smooth="yes"/>
      <point x="49" y="198"/>
      <point x="221" y="195"/>
      <point x="209" y="118" type="curve" smooth="yes"/>
      <point x="204" y="84"/>
      <point x="169" y="66"/>
      <point x="134" y="66" type="curve" smooth="yes"/>
      <point x="96" y="66"/>
      <point x="62" y="89"/>
      <point x="49" y="94" type="curve"/>
      <point x="17" y="25" type="line"/>
      <point x="33" y="17"/>
      <point x="66" y="-9"/>
      <point x="138" y="-9" type="curve" smooth="yes"/>
      <point x="238" y="-9"/>
      <point x="295" y="42"/>
      <point x="308" y="127" type="curve" smooth="yes"/>
      <point x="327" y="255"/>
      <point x="155" y="256"/>
      <point x="167" y="340" type="curve"/>
      <point x="167" y="358"/>
      <point x="193" y="390"/>
      <point x="231" y="390" type="curve" smooth="yes"/>
      <point x="269" y="390"/>
      <point x="304" y="369"/>
      <point x="316" y="363" type="curve"/>
      <point x="349" y="432" type="line"/>
      <point x="334" y="438"/>
      <point x="302" y="462"/>
    </contour>
  </outline>
</glyph>
<glyph name="T" format="1">
  <advance width="325"/>
  <unicode hex="0054"/>
  <outline>
    <contour>
      <point x="311" y="454" type="line" name="hr00"/>
      <point x="27" y="454" type="line"/>
      <point x="17" y="376" type="line"/>
      <point x="110" y="376" type="line"/>
      <point x="58" y="0" type="line"/>
      <point x="154" y="0" type="line"/>
      <point x="207" y="376" type="line"/>
      <point x="299" y="376" type="line"/>
    </contour>
  </outline>
</glyph>
<glyph name="U" format="1">
  <advance width="375"/>
  <unicode hex="0055"/>
  <outline>
    <contour>
      <point x="25" y="212" type="line" smooth="yes" name="hr00"/>
      <point x="2" y="53"/>
      <point x="40" y="-9"/>
      <point x="149" y="-9" type="curve" smooth="yes"/>
      <point x="260" y="-9"/>
      <point x="309" y="53"/>
      <point x="331" y="212" type="curve" smooth="yes"/>
      <point x="365" y="454" type="line"/>
      <point x="270" y="454" type="line"/>
      <point x="237" y="212" type="line" smooth="yes"/>
      <point x="223" y="113"/>
      <point x="215" y="67"/>
      <point x="159" y="67" type="curve" smooth="yes"/>
      <point x="106" y="67"/>
      <point x="108" y="113"/>
      <point x="122" y="212" type="curve" smooth="yes"/>
      <point x="156" y="454" type="line"/>
      <point x="60" y="454" type="line"/>
    </contour>
  </outline>
</glyph>
<glyph name="V" format="1">
  <advance width="376"/>
  <unicode hex="0056"/>
  <outline>
    <contour>
      <point x="178" y="0" type="line" name="hr00"/>
      <point x="368" y="454" type="line"/>
      <point x="269" y="454" type="line"/>
      <point x="156" y="141" type="line"/>
      <point x="139" y="73" type="line"/>
      <point x="139" y="141" type="line"/>
      <point x="116" y="454" type="line"/>
      <point x="17" y="454" type="line"/>
      <point x="80" y="0" type="line"/>
    </contour>
  </outline>
</glyph>
<glyph name="W" format="1">
  <advance width="519"/>
  <unicode hex="0057"/>
  <outline>
    <contour>
      <point x="418" y="454" type="line" name="hr00"/>
      <point x="319" y="147" type="line"/>
      <point x="298" y="417" type="line"/>
      <point x="224" y="417" type="line"/>
      <point x="126" y="147" type="line"/>
      <point x="113" y="454" type="line"/>
      <point x="17" y="454" type="line"/>
      <point x="48" y="0" type="line"/>
      <point x="137" y="0" type="line"/>
      <point x="241" y="289" type="line"/>
      <point x="263" y="0" type="line"/>
      <point x="354" y="0" type="line"/>
      <point x="512" y="454" type="line"/>
    </contour>
  </outline>
</glyph>
<glyph name="X" format="1">
  <advance width="447"/>
  <unicode hex="0058"/>
  <outline>
    <contour>
      <point x="17" y="0" type="line" name="hr00"/>
      <point x="127" y="0" type="line"/>
      <point x="144" y="25"/>
      <point x="203" y="127"/>
      <point x="222" y="159" type="curve"/>
      <point x="227" y="124"/>
      <point x="260" y="26"/>
      <point x="270" y="0" type="curve"/>
      <point x="383" y="0" type="line"/>
      <point x="287" y="227" type="line"/>
      <point x="441" y="454" type="line"/>
      <point x="331" y="454" type="line"/>
      <point x="317" y="429"/>
      <point x="254" y="329"/>
      <point x="241" y="297" type="curve"/>
      <point x="236" y="327"/>
      <point x="203" y="429"/>
      <point x="195" y="454" type="curve"/>
      <point x="86" y="454" type="line"/>
      <point x="176" y="228" type="line"/>
    </contour>
  </outline>
</glyph>
<glyph name="Y" format="1">
  <advance width="390"/>
  <unicode hex="0059"/>
  <outline>
    <contour>
      <point x="206" y="150" type="line" name="hr00"/>
      <point x="222" y="178" type="line" smooth="yes"/>
      <point x="275" y="270"/>
      <point x="328" y="359"/>
      <point x="383" y="454" type="curve"/>
      <point x="280" y="454" type="line"/>
      <point x="170" y="235" type="line"/>
      <point x="159" y="272"/>
      <point x="140" y="369"/>
      <point x="119" y="454" type="curve"/>
      <point x="17" y="454" type="line"/>
      <point x="45" y="359"/>
      <point x="76" y="270"/>
      <point x="102" y="178" type="curve" smooth="yes"/>
      <point x="110" y="150" type="line"/>
      <point x="89" y="0" type="line"/>
      <point x="185" y="0" type="line"/>
    </contour>
  </outline>
</glyph>
<glyph name="Z" format="1">
  <advance width="362"/>
  <unicode hex="005A"/>
  <outline>
    <contour>
      <point x="357" y="454" type="line" name="hr00"/>
      <point x="86" y="454" type="line"/>
      <point x="75" y="377" type="line"/>
      <point x="239" y="377" type="line"/>
      <point x="25" y="62" type="line"/>
      <point x="17" y="0" type="line"/>
      <point x="297" y="0" type="line"/>
      <point x="308" y="77" type="line"/>
      <point x="135" y="77" type="line"/>
      <point x="207" y="182"/>
      <point x="278" y="287"/>
      <point x="348" y="392" type="curve"/>
    </contour>
  </outline>
</glyph>
<glyph name="bracketleft" format="1">
  <advance width="271"/>
  <unicode hex="005B"/>
  <outline>
    <contour>
      <point x="180" y="-36" type="line" name="hr00"/>
      <point x="104" y="-36" type="line"/>
      <point x="174" y="462" type="line"/>
      <point x="250" y="462" type="line"/>
      <point x="258" y="524" type="line"/>
      <point x="105" y="524" type="line"/>
      <point x="17" y="-99" type="line"/>
      <point x="171" y="-99" type="line"/>
    </contour>
  </outline>
</glyph>
<glyph name="backslash" format="1">
  <advance width="210"/>
  <unicode hex="005C"/>
  <outline>
    <contour>
      <point x="17" y="495" type="line" name="hr00"/>
      <point x="57" y="243"/>
      <point x="105" y="-13"/>
      <point x="123" y="-94" type="curve"/>
      <point x="207" y="-94" type="line"/>
      <point x="188" y="-12"/>
      <point x="142" y="243"/>
      <point x="100" y="495" type="curve"/>
    </contour>
  </outline>
</glyph>
<glyph name="bracketright" format="1">
  <advance width="262"/>
  <unicode hex="005D"/>
  <outline>
    <contour>
      <point x="257" y="524" type="line" name="hr00"/>
      <point x="103" y="524" type="line"/>
      <point x="95" y="462" type="line"/>
      <point x="172" y="462" type="line"/>
      <point x="101" y="-36" type="line"/>
      <point x="25" y="-36" type="line"/>
      <point x="17" y="-99" type="line"/>
      <point x="170" y="-99" type="line"/>
    </contour>
  </outline>
</glyph>
<glyph name="asciicircum" format="1">
  <advance width="273"/>
  <unicode hex="005E"/>
  <outline>
    <contour>
      <point x="136" y="466" type="line" name="hr00"/>
      <point x="17" y="361" type="line"/>
      <point x="51" y="320" type="line"/>
      <point x="138" y="392" type="line"/>
      <point x="162" y="367"/>
      <point x="184" y="345"/>
      <point x="205" y="320" type="curve"/>
      <point x="251" y="361" type="line"/>
      <point x="161" y="466" type="line"/>
    </contour>
  </outline>
</glyph>
<glyph name="underscore" format="1">
  <advance width="363"/>
  <unicode hex="005F"/>
  <outline>
    <contour>
      <point x="342" y="-53" type="line" name="hr00"/>
      <point x="26" y="-53" type="line"/>
      <point x="17" y="-122" type="line"/>
      <point x="331" y="-122" type="line"/>
    </contour>
  </outline>
</glyph>
<glyph name="grave" format="1">
  <advance width="174"/>
  <unicode hex="0060"/>
  <outline>
    <contour>
      <point x="17" y="497" type="line" name="hr00"/>
      <point x="110" y="394" type="line"/>
      <point x="156" y="432" type="line"/>
      <point x="76" y="547" type="line"/>
    </contour>
  </outline>
</glyph>
<glyph name="b" format="1">
  <advance width="353"/>
  <unicode hex="0062"/>
  <outline>
    <contour>
      <point x="17" y="0" type="line" name="hr00"/>
      <point x="95" y="0" type="line"/>
      <point x="109" y="41" type="line"/>
      <point x="123" y="22"/>
      <point x="144" y="-4"/>
      <point x="190" y="-4" type="curve" smooth="yes"/>
      <point x="259" y="-4"/>
      <point x="322" y="57"/>
      <point x="341" y="182" type="curve" smooth="yes"/>
      <point x="360" y="307"/>
      <point x="315" y="362"/>
      <point x="254" y="362" type="curve" smooth="yes"/>
      <point x="210" y="362"/>
      <point x="176" y="331"/>
      <point x="154" y="314" type="curve"/>
      <point x="181" y="509" type="line"/>
      <point x="86" y="496" type="line"/>
    </contour>
    <contour>
      <point x="204" y="283" type="curve" smooth="yes"/>
      <point x="240" y="283"/>
      <point x="256" y="255"/>
      <point x="244" y="174" type="curve" smooth="yes"/>
      <point x="233" y="102"/>
      <point x="210" y="73"/>
      <point x="163" y="73" type="curve" smooth="yes"/>
      <point x="147" y="73"/>
      <point x="136" y="83"/>
      <point x="123" y="94" type="curve"/>
      <point x="145" y="251" type="line"/>
      <point x="153" y="262"/>
      <point x="181" y="283"/>
    </contour>
  </outline>
</glyph>
<glyph name="c" format="1">
  <advance width="295"/>
  <unicode hex="0063"/>
  <outline>
    <contour>
      <point x="241" y="82" type="line" name="hr00"/>
      <point x="232" y="79"/>
      <point x="203" y="65"/>
      <point x="175" y="65" type="curve" smooth="yes"/>
      <point x="135" y="65"/>
      <point x="115" y="94"/>
      <point x="127" y="175" type="curve" smooth="yes"/>
      <point x="138" y="255"/>
      <point x="163" y="290"/>
      <point x="210" y="290" type="curve" smooth="yes"/>
      <point x="235" y="290"/>
      <point x="258" y="282"/>
      <point x="266" y="279" type="curve"/>
      <point x="287" y="348" type="line"/>
      <point x="276" y="352"/>
      <point x="244" y="362"/>
      <point x="207" y="362" type="curve" smooth="yes"/>
      <point x="108" y="362"/>
      <point x="47" y="301"/>
      <point x="30" y="172" type="curve" smooth="yes"/>
      <point x="13" y="48"/>
      <point x="54" y="-9"/>
      <point x="149" y="-9" type="curve" smooth="yes"/>
      <point x="201" y="-9"/>
      <point x="241" y="16"/>
      <point x="254" y="24" type="curve"/>
    </contour>
  </outline>
</glyph>
<glyph name="d" format="1">
  <advance width="377"/>
  <unicode hex="0064"/>
  <outline>
    <contour>
      <point x="370" y="509" type="line" name="hr00"/>
      <point x="276" y="496" type="line"/>
      <point x="255" y="345" type="line"/>
      <point x="236" y="354"/>
      <point x="216" y="360"/>
      <point x="195" y="360" type="curve" smooth="yes"/>
      <point x="119" y="360"/>
      <point x="44" y="310"/>
      <point x="24" y="170" type="curve" smooth="yes"/>
      <point x="6" y="42"/>
      <point x="49" y="-9"/>
      <point x="110" y="-9" type="curve" smooth="yes"/>
      <point x="157" y="-9"/>
      <point x="194" y="18"/>
      <point x="221" y="42" type="curve"/>
      <point x="221" y="0" type="line"/>
      <point x="299" y="0" type="line"/>
    </contour>
    <contour>
      <point x="161" y="70" type="curve" smooth="yes"/>
      <point x="124" y="70"/>
      <point x="111" y="95"/>
      <point x="122" y="178" type="curve" smooth="yes"/>
      <point x="134" y="262"/>
      <point x="159" y="289"/>
      <point x="204" y="289" type="curve" smooth="yes"/>
      <point x="220" y="289"/>
      <point x="231" y="285"/>
      <point x="246" y="277" type="curve"/>
      <point x="221" y="103" type="line"/>
      <point x="208" y="87"/>
      <point x="184" y="70"/>
    </contour>
  </outline>
</glyph>
<glyph name="e" format="1">
  <advance width="322"/>
  <unicode hex="0065"/>
  <outline>
    <contour>
      <point x="260" y="87" type="line" name="hr00"/>
      <point x="243" y="77"/>
      <point x="208" y="62"/>
      <point x="172" y="62" type="curve" smooth="yes"/>
      <point x="132" y="62"/>
      <point x="105" y="88"/>
      <point x="114" y="149" type="curve"/>
      <point x="293" y="149" type="line"/>
      <point x="296" y="152"/>
      <point x="301" y="172"/>
      <point x="305" y="197" type="curve" smooth="yes"/>
      <point x="321" y="313"/>
      <point x="270" y="362"/>
      <point x="194" y="362" type="curve" smooth="yes"/>
      <point x="115" y="362"/>
      <point x="43" y="300"/>
      <point x="24" y="167" type="curve" smooth="yes"/>
      <point x="6" y="43"/>
      <point x="66" y="-9"/>
      <point x="144" y="-9" type="curve" smooth="yes"/>
      <point x="211" y="-9"/>
      <point x="260" y="18"/>
      <point x="270" y="25" type="curve"/>
    </contour>
    <contour>
      <point x="184" y="296" type="curve" smooth="yes"/>
      <point x="209" y="296"/>
      <point x="225" y="275"/>
      <point x="216" y="207" type="curve"/>
      <point x="122" y="207" type="line"/>
      <point x="131" y="274"/>
      <point x="160" y="296"/>
    </contour>
  </outline>
</glyph>
<glyph name="f" format="1">
  <advance width="288"/>
  <unicode hex="0066"/>
  <outline>
    <contour>
      <point x="246" y="354" type="line" name="hr00"/>
      <point x="182" y="354" type="line"/>
      <point x="186" y="382" type="line" smooth="yes"/>
      <point x="192" y="427"/>
      <point x="201" y="443"/>
      <point x="225" y="443" type="curve" smooth="yes"/>
      <point x="244" y="443"/>
      <point x="259" y="440"/>
      <point x="264" y="437" type="curve"/>
      <point x="269" y="460"/>
      <point x="273" y="480"/>
      <point x="276" y="503" type="curve"/>
      <point x="268" y="507"/>
      <point x="248" y="517"/>
      <point x="203" y="517" type="curve" smooth="yes"/>
      <point x="140" y="517"/>
      <point x="107" y="482"/>
      <point x="94" y="395" type="curve" smooth="yes"/>
      <point x="88" y="354" type="line"/>
      <point x="51" y="354" type="line"/>
      <point x="42" y="286" type="line"/>
      <point x="80" y="286" type="line"/>
      <point x="17" y="-157" type="line"/>
      <point x="110" y="-157" type="line"/>
      <point x="173" y="286" type="line"/>
      <point x="235" y="286" type="line"/>
    </contour>
  </outline>
</glyph>
<glyph name="g" format="1">
  <advance width="356"/>
  <unicode hex="0067"/>
  <outline>
    <contour>
      <point x="174" y="359" type="curve" smooth="yes" name="hr00"/>
      <point x="108" y="359"/>
      <point x="44" y="294"/>
      <point x="24" y="164" type="curve" smooth="yes"/>
      <point x="6" y="47"/>
      <point x="49" y="-9"/>
      <point x="110" y="-9" type="curve" smooth="yes"/>
      <point x="154" y="-9"/>
      <point x="191" y="18"/>
      <point x="212" y="39" type="curve"/>
      <point x="213" y="39" type="line"/>
      <point x="202" y="-31" type="line" smooth="yes"/>
      <point x="193" y="-90"/>
      <point x="166" y="-96"/>
      <point x="137" y="-96" type="curve" smooth="yes"/>
      <point x="102" y="-96"/>
      <point x="70" y="-88"/>
      <point x="50" y="-81" type="curve"/>
      <point x="31" y="-145" type="line"/>
      <point x="52" y="-152"/>
      <point x="93" y="-166"/>
      <point x="144" y="-166" type="curve" smooth="yes"/>
      <point x="236" y="-166"/>
      <point x="282" y="-122"/>
      <point x="295" y="-29" type="curve" smooth="yes"/>
      <point x="348" y="354" type="line"/>
      <point x="270" y="354" type="line"/>
      <point x="257" y="306" type="line"/>
      <point x="236" y="338"/>
      <point x="214" y="359"/>
    </contour>
    <contour>
      <point x="157" y="71" type="curve" smooth="yes"/>
      <point x="128" y="71"/>
      <point x="111" y="95"/>
      <point x="122" y="173" type="curve" smooth="yes"/>
      <point x="132" y="245"/>
      <point x="144" y="282"/>
      <point x="188" y="282" type="curve" smooth="yes"/>
      <point x="208" y="282"/>
      <point x="220" y="275"/>
      <point x="241" y="248" type="curve"/>
      <point x="222" y="107" type="line"/>
      <point x="209" y="91"/>
      <point x="185" y="71"/>
    </contour>
  </outline>
</glyph>
<glyph name="h" format="1">
  <advance width="347"/>
  <unicode hex="0068"/>
  <outline>
    <contour>
      <point x="17" y="0" type="line" name="hr00"/>
      <point x="110" y="0" type="line"/>
      <point x="144" y="242" type="line"/>
      <point x="152" y="253"/>
      <point x="182" y="281"/>
      <point x="209" y="281" type="curve" smooth="yes"/>
      <point x="238" y="281"/>
      <point x="243" y="267"/>
      <point x="236" y="216" type="curve" smooth="yes"/>
      <point x="207" y="0" type="line"/>
      <point x="300" y="0" type="line"/>
      <point x="332" y="239" type="line" smooth="yes"/>
      <point x="343" y="323"/>
      <point x="326" y="362"/>
      <point x="259" y="362" type="curve" smooth="yes"/>
      <point x="201" y="362"/>
      <point x="166" y="318"/>
      <point x="154" y="309" type="curve"/>
      <point x="153" y="309" type="line"/>
      <point x="181" y="509" type="line"/>
      <point x="86" y="496" type="line"/>
    </contour>
  </outline>
</glyph>
<glyph name="i" format="1">
  <advance width="193"/>
  <unicode hex="0069"/>
  <outline>
    <contour>
      <point x="161" y="361" type="line" name="hr00"/>
      <point x="65" y="348" type="line"/>
      <point x="17" y="0" type="line"/>
      <point x="110" y="0" type="line"/>
    </contour>
    <contour>
      <point x="182" y="462" type="curve" smooth="yes"/>
      <point x="187" y="495"/>
      <point x="167" y="519"/>
      <point x="138" y="519" type="curve" smooth="yes"/>
      <point x="107" y="519"/>
      <point x="82" y="495"/>
      <point x="76" y="462" type="curve" smooth="yes"/>
      <point x="71" y="430"/>
      <point x="91" y="407"/>
      <point x="122" y="407" type="curve" smooth="yes"/>
      <point x="151" y="407"/>
      <point x="178" y="430"/>
    </contour>
  </outline>
</glyph>
<glyph name="j" format="1">
  <advance width="260"/>
  <unicode hex="006A"/>
  <outline>
    <contour>
      <point x="91" y="-15" type="line" smooth="yes" name="hr00"/>
      <point x="83" y="-75"/>
      <point x="68" y="-85"/>
      <point x="31" y="-91" type="curve"/>
      <point x="17" y="-159" type="line"/>
      <point x="28" y="-162"/>
      <point x="39" y="-164"/>
      <point x="51" y="-164" type="curve" smooth="yes"/>
      <point x="126" y="-164"/>
      <point x="169" y="-125"/>
      <point x="183" y="-25" type="curve" smooth="yes"/>
      <point x="236" y="361" type="line"/>
      <point x="142" y="348" type="line"/>
    </contour>
    <contour>
      <point x="257" y="462" type="curve"/>
      <point x="261" y="495"/>
      <point x="241" y="519"/>
      <point x="212" y="519" type="curve" smooth="yes"/>
      <point x="183" y="519"/>
      <point x="157" y="495"/>
      <point x="151" y="462" type="curve" smooth="yes"/>
      <point x="146" y="430"/>
      <point x="167" y="407"/>
      <point x="196" y="407" type="curve" smooth="yes"/>
      <point x="225" y="407"/>
      <point x="250" y="430"/>
    </contour>
  </outline>
</glyph>
<glyph name="k" format="1">
  <advance width="355"/>
  <unicode hex="006B"/>
  <outline>
    <contour>
      <point x="17" y="0" type="line" name="hr00"/>
      <point x="110" y="0" type="line"/>
      <point x="133" y="169" type="line"/>
      <point x="205" y="0" type="line"/>
      <point x="315" y="0" type="line"/>
      <point x="217" y="196" type="line"/>
      <point x="354" y="354" type="line"/>
      <point x="249" y="354" type="line"/>
      <point x="138" y="201" type="line"/>
      <point x="181" y="509" type="line"/>
      <point x="87" y="496" type="line"/>
    </contour>
  </outline>
</glyph>
<glyph name="l" format="1">
  <advance width="194"/>
  <unicode hex="006C"/>
  <outline>
    <contour>
      <point x="181" y="509" type="line" name="hr00"/>
      <point x="86" y="496" type="line"/>
      <point x="17" y="0" type="line"/>
      <point x="110" y="0" type="line"/>
    </contour>
  </outline>
</glyph>
<glyph name="m" format="1">
  <advance width="485"/>
  <unicode hex="006D"/>
  <outline>
    <contour>
      <point x="17" y="0" type="line" name="hr00"/>
      <point x="109" y="0" type="line"/>
      <point x="143" y="242" type="line"/>
      <point x="148" y="255"/>
      <point x="172" y="281"/>
      <point x="195" y="281" type="curve" smooth="yes"/>
      <point x="220" y="281"/>
      <point x="222" y="263"/>
      <point x="218" y="232" type="curve" smooth="yes"/>
      <point x="185" y="0" type="line"/>
      <point x="275" y="0" type="line"/>
      <point x="308" y="242" type="line"/>
      <point x="313" y="254"/>
      <point x="337" y="281"/>
      <point x="361" y="281" type="curve" smooth="yes"/>
      <point x="385" y="281"/>
      <point x="389" y="263"/>
      <point x="382" y="232" type="curve"/>
      <point x="351" y="0" type="line"/>
      <point x="444" y="0" type="line"/>
      <point x="476" y="240" type="line" smooth="yes"/>
      <point x="488" y="328"/>
      <point x="468" y="362"/>
      <point x="408" y="362" type="curve" smooth="yes"/>
      <point x="360" y="362"/>
      <point x="320" y="323"/>
      <point x="310" y="308" type="curve"/>
      <point x="305" y="349"/>
      <point x="284" y="362"/>
      <point x="243" y="362" type="curve" smooth="yes"/>
      <point x="189" y="362"/>
      <point x="159" y="318"/>
      <point x="145" y="307" type="curve"/>
      <point x="149" y="354" type="line"/>
      <point x="67" y="354" type="line"/>
    </contour>
  </outline>
</glyph>
<glyph name="n" format="1">
  <advance width="346"/>
  <unicode hex="006E"/>
  <outline>
    <contour>
      <point x="17" y="0" type="line" name="hr00"/>
      <point x="110" y="0" type="line"/>
      <point x="144" y="242" type="line"/>
      <point x="150" y="253"/>
      <point x="184" y="281"/>
      <point x="208" y="281" type="curve" smooth="yes"/>
      <point x="236" y="281"/>
      <point x="243" y="267"/>
      <point x="236" y="216" type="curve" smooth="yes"/>
      <point x="207" y="0" type="line"/>
      <point x="298" y="0" type="line"/>
      <point x="332" y="239" type="line" smooth="yes"/>
      <point x="344" y="323"/>
      <point x="326" y="362"/>
      <point x="259" y="362" type="curve" smooth="yes"/>
      <point x="199" y="362"/>
      <point x="161" y="317"/>
      <point x="147" y="309" type="curve"/>
      <point x="145" y="309" type="line"/>
      <point x="149" y="354" type="line"/>
      <point x="67" y="354" type="line"/>
    </contour>
  </outline>
</glyph>
<glyph name="o" format="1">
  <advance width="340"/>
  <unicode hex="006F"/>
  <outline>
    <contour>
      <point x="328" y="178" type="curve" smooth="yes" name="hr00"/>
      <point x="347" y="309"/>
      <point x="293" y="362"/>
      <point x="201" y="362" type="curve" smooth="yes"/>
      <point x="112" y="362"/>
      <point x="43" y="309"/>
      <point x="25" y="178" type="curve" smooth="yes"/>
      <point x="6" y="44"/>
      <point x="59" y="-9"/>
      <point x="150" y="-9" type="curve" smooth="yes"/>
      <point x="243" y="-9"/>
      <point x="308" y="43"/>
    </contour>
    <contour>
      <point x="232" y="178" type="curve" smooth="yes"/>
      <point x="220" y="94"/>
      <point x="199" y="59"/>
      <point x="160" y="59" type="curve" smooth="yes"/>
      <point x="120" y="59"/>
      <point x="109" y="93"/>
      <point x="121" y="178" type="curve" smooth="yes"/>
      <point x="132" y="261"/>
      <point x="153" y="294"/>
      <point x="192" y="294" type="curve" smooth="yes"/>
      <point x="231" y="294"/>
      <point x="243" y="261"/>
    </contour>
  </outline>
</glyph>
<glyph name="p" format="1">
  <advance width="378"/>
  <unicode hex="0070"/>
  <outline>
    <contour>
      <point x="17" y="-157" type="line" name="hr00"/>
      <point x="109" y="-157" type="line"/>
      <point x="133" y="5" type="line"/>
      <point x="153" y="-4"/>
      <point x="176" y="-9"/>
      <point x="201" y="-9" type="curve" smooth="yes"/>
      <point x="278" y="-9"/>
      <point x="346" y="51"/>
      <point x="364" y="182" type="curve" smooth="yes"/>
      <point x="381" y="305"/>
      <point x="339" y="362"/>
      <point x="276" y="362" type="curve" smooth="yes"/>
      <point x="230" y="362"/>
      <point x="188" y="324"/>
      <point x="174" y="308" type="curve"/>
      <point x="173" y="308" type="line"/>
      <point x="176" y="354" type="line"/>
      <point x="89" y="354" type="line"/>
    </contour>
    <contour>
      <point x="227" y="283" type="curve" smooth="yes"/>
      <point x="263" y="283"/>
      <point x="278" y="255"/>
      <point x="267" y="174" type="curve" smooth="yes"/>
      <point x="255" y="90"/>
      <point x="228" y="59"/>
      <point x="181" y="59" type="curve" smooth="yes"/>
      <point x="166" y="59"/>
      <point x="153" y="62"/>
      <point x="142" y="67" type="curve"/>
      <point x="167" y="244" type="line"/>
      <point x="177" y="258"/>
      <point x="203" y="283"/>
    </contour>
  </outline>
</glyph>
<glyph name="q" format="1">
  <advance width="358"/>
  <unicode hex="0071"/>
  <outline>
    <contour>
      <point x="348" y="354" type="line" name="hr00"/>
      <point x="263" y="354" type="line"/>
      <point x="251" y="306" type="line"/>
      <point x="235" y="333"/>
      <point x="212" y="359"/>
      <point x="177" y="359" type="curve" smooth="yes"/>
      <point x="106" y="359"/>
      <point x="42" y="294"/>
      <point x="24" y="171" type="curve" smooth="yes"/>
      <point x="5" y="43"/>
      <point x="49" y="-9"/>
      <point x="111" y="-9" type="curve" smooth="yes"/>
      <point x="153" y="-9"/>
      <point x="194" y="18"/>
      <point x="212" y="39" type="curve"/>
      <point x="213" y="39" type="line"/>
      <point x="184" y="-157" type="line"/>
      <point x="276" y="-157" type="line"/>
    </contour>
    <contour>
      <point x="160" y="71" type="curve" smooth="yes"/>
      <point x="124" y="71"/>
      <point x="108" y="94"/>
      <point x="122" y="178" type="curve" smooth="yes"/>
      <point x="134" y="255"/>
      <point x="153" y="286"/>
      <point x="186" y="286" type="curve" smooth="yes"/>
      <point x="209" y="286"/>
      <point x="225" y="268"/>
      <point x="241" y="248" type="curve"/>
      <point x="222" y="107" type="line"/>
      <point x="210" y="92"/>
      <point x="182" y="71"/>
    </contour>
  </outline>
</glyph>
<glyph name="r" format="1">
  <advance width="268"/>
  <unicode hex="0072"/>
  <outline>
    <contour>
      <point x="144" y="248" type="line" name="hr00"/>
      <point x="171" y="272"/>
      <point x="186" y="282"/>
      <point x="203" y="282" type="curve" smooth="yes"/>
      <point x="218" y="282"/>
      <point x="231" y="276"/>
      <point x="239" y="275" type="curve"/>
      <point x="258" y="356" type="line"/>
      <point x="251" y="359"/>
      <point x="246" y="363"/>
      <point x="231" y="363" type="curve" smooth="yes"/>
      <point x="200" y="363"/>
      <point x="167" y="339"/>
      <point x="147" y="307" type="curve"/>
      <point x="146" y="307" type="line"/>
      <point x="149" y="354" type="line"/>
      <point x="67" y="354" type="line"/>
      <point x="17" y="0" type="line"/>
      <point x="110" y="0" type="line"/>
    </contour>
  </outline>
</glyph>
<glyph name="s" format="1">
  <advance width="289"/>
  <unicode hex="0073"/>
  <outline>
    <contour>
      <point x="17" y="19" type="line" name="hr00"/>
      <point x="28" y="11"/>
      <point x="67" y="-9"/>
      <point x="124" y="-9" type="curve" smooth="yes"/>
      <point x="209" y="-9"/>
      <point x="252" y="39"/>
      <point x="260" y="97" type="curve" smooth="yes"/>
      <point x="273" y="196"/>
      <point x="143" y="213"/>
      <point x="151" y="265" type="curve" smooth="yes"/>
      <point x="154" y="284"/>
      <point x="170" y="293"/>
      <point x="198" y="293" type="curve" smooth="yes"/>
      <point x="227" y="293"/>
      <point x="256" y="281"/>
      <point x="267" y="280" type="curve"/>
      <point x="281" y="348" type="line"/>
      <point x="269" y="352"/>
      <point x="241" y="362"/>
      <point x="194" y="362" type="curve" smooth="yes"/>
      <point x="117" y="362"/>
      <point x="68" y="325"/>
      <point x="60" y="262" type="curve" smooth="yes"/>
      <point x="47" y="167"/>
      <point x="172" y="146"/>
      <point x="164" y="92" type="curve" smooth="yes"/>
      <point x="160" y="65"/>
      <point x="145" y="59"/>
      <point x="117" y="59" type="curve" smooth="yes"/>
      <point x="86" y="59"/>
      <point x="51" y="78"/>
      <point x="42" y="81" type="curve"/>
    </contour>
  </outline>
</glyph>
<glyph name="t" format="1">
  <advance width="240"/>
  <unicode hex="0074"/>
  <outline>
    <contour>
      <point x="156" y="354" type="line" name="hr00"/>
      <point x="171" y="454" type="line"/>
      <point x="76" y="439" type="line"/>
      <point x="64" y="354" type="line"/>
      <point x="26" y="354" type="line"/>
      <point x="17" y="286" type="line"/>
      <point x="55" y="286" type="line"/>
      <point x="28" y="103" type="line" smooth="yes"/>
      <point x="16" y="22"/>
      <point x="38" y="-9"/>
      <point x="102" y="-9" type="curve" smooth="yes"/>
      <point x="147" y="-9"/>
      <point x="176" y="12"/>
      <point x="188" y="15" type="curve"/>
      <point x="188" y="81" type="line"/>
      <point x="183" y="80"/>
      <point x="165" y="71"/>
      <point x="144" y="71" type="curve" smooth="yes"/>
      <point x="121" y="71"/>
      <point x="119" y="85"/>
      <point x="123" y="116" type="curve" smooth="yes"/>
      <point x="147" y="286" type="line"/>
      <point x="224" y="286" type="line"/>
      <point x="232" y="354" type="line"/>
    </contour>
  </outline>
</glyph>
<glyph name="u" format="1">
  <advance width="346"/>
  <unicode hex="0075"/>
  <outline>
    <contour>
      <point x="342" y="354" type="line" name="hr00"/>
      <point x="248" y="354" type="line"/>
      <point x="214" y="112" type="line"/>
      <point x="203" y="101"/>
      <point x="175" y="73"/>
      <point x="150" y="73" type="curve" smooth="yes"/>
      <point x="115" y="73"/>
      <point x="116" y="94"/>
      <point x="125" y="161" type="curve" smooth="yes"/>
      <point x="152" y="354" type="line"/>
      <point x="59" y="354" type="line"/>
      <point x="25" y="115" type="line" smooth="yes"/>
      <point x="13" y="31"/>
      <point x="32" y="-9"/>
      <point x="99" y="-9" type="curve" smooth="yes"/>
      <point x="144" y="-9"/>
      <point x="181" y="20"/>
      <point x="190" y="31" type="curve"/>
      <point x="212" y="48" type="line"/>
      <point x="211" y="0" type="line"/>
      <point x="292" y="0" type="line"/>
    </contour>
  </outline>
</glyph>
<glyph name="v" format="1">
  <advance width="329"/>
  <unicode hex="0076"/>
  <outline>
    <contour>
      <point x="172" y="0" type="line" name="hr00"/>
      <point x="326" y="354" type="line"/>
      <point x="230" y="354" type="line"/>
      <point x="176" y="207" type="line"/>
      <point x="130" y="59" type="line"/>
      <point x="125" y="207" type="line"/>
      <point x="111" y="354" type="line"/>
      <point x="17" y="354" type="line"/>
      <point x="71" y="0" type="line"/>
    </contour>
  </outline>
</glyph>
<glyph name="w" format="1">
  <advance width="488"/>
  <unicode hex="0077"/>
  <outline>
    <contour>
      <point x="397" y="354" type="line" name="hr00"/>
      <point x="314" y="115" type="line"/>
      <point x="292" y="354" type="line"/>
      <point x="215" y="354" type="line"/>
      <point x="127" y="115" type="line"/>
      <point x="109" y="354" type="line"/>
      <point x="17" y="354" type="line"/>
      <point x="57" y="0" type="line"/>
      <point x="142" y="0" type="line"/>
      <point x="231" y="230" type="line"/>
      <point x="254" y="0" type="line"/>
      <point x="342" y="0" type="line"/>
      <point x="485" y="354" type="line"/>
    </contour>
  </outline>
</glyph>
<glyph name="x" format="1">
  <advance width="372"/>
  <unicode hex="0078"/>
  <outline>
    <contour>
      <point x="270" y="354" type="line" name="hr00"/>
      <point x="206" y="231" type="line"/>
      <point x="198" y="257"/>
      <point x="181" y="337"/>
      <point x="173" y="354" type="curve"/>
      <point x="73" y="354" type="line"/>
      <point x="143" y="184" type="line"/>
      <point x="17" y="0" type="line"/>
      <point x="115" y="0" type="line"/>
      <point x="186" y="129" type="line"/>
      <point x="197" y="100"/>
      <point x="217" y="20"/>
      <point x="225" y="0" type="curve"/>
      <point x="324" y="0" type="line"/>
      <point x="248" y="180" type="line"/>
      <point x="289" y="239"/>
      <point x="328" y="295"/>
      <point x="368" y="354" type="curve"/>
    </contour>
  </outline>
</glyph>
<glyph name="y" format="1">
  <advance width="351"/>
  <unicode hex="0079"/>
  <outline>
    <contour>
      <point x="194" y="-31" type="line" smooth="yes" name="hr00"/>
      <point x="185" y="-90"/>
      <point x="162" y="-96"/>
      <point x="129" y="-96" type="curve" smooth="yes"/>
      <point x="96" y="-96"/>
      <point x="62" y="-88"/>
      <point x="42" y="-81" type="curve"/>
      <point x="24" y="-145" type="line"/>
      <point x="44" y="-152"/>
      <point x="87" y="-166"/>
      <point x="136" y="-166" type="curve" smooth="yes"/>
      <point x="229" y="-166"/>
      <point x="275" y="-122"/>
      <point x="288" y="-29" type="curve" smooth="yes"/>
      <point x="342" y="354" type="line"/>
      <point x="249" y="354" type="line"/>
      <point x="215" y="111" type="line"/>
      <point x="204" y="103"/>
      <point x="176" y="73"/>
      <point x="149" y="73" type="curve" smooth="yes"/>
      <point x="119" y="73"/>
      <point x="115" y="87"/>
      <point x="122" y="139" type="curve" smooth="yes"/>
      <point x="153" y="354" type="line"/>
      <point x="59" y="354" type="line"/>
      <point x="25" y="116" type="line" smooth="yes"/>
      <point x="13" y="32"/>
      <point x="32" y="-8"/>
      <point x="99" y="-8" type="curve" smooth="yes"/>
      <point x="155" y="-8"/>
      <point x="196" y="37"/>
      <point x="204" y="45" type="curve"/>
      <point x="206" y="45" type="line"/>
    </contour>
  </outline>
</glyph>
<glyph name="z" format="1">
  <advance width="304"/>
  <unicode hex="007A"/>
  <outline>
    <contour>
      <point x="297" y="354" type="line" name="hr00"/>
      <point x="75" y="354" type="line"/>
      <point x="65" y="283" type="line"/>
      <point x="182" y="283" type="line"/>
      <point x="25" y="59" type="line"/>
      <point x="17" y="0" type="line"/>
      <point x="250" y="0" type="line"/>
      <point x="258" y="71" type="line"/>
      <point x="129" y="71" type="line"/>
      <point x="288" y="296" type="line"/>
    </contour>
  </outline>
</glyph>
<glyph name="braceleft" format="1">
  <advance width="265"/>
  <unicode hex="007B"/>
  <outline>
    <contour>
      <point x="84" y="293" type="line" smooth="yes" name="hr00"/>
      <point x="78" y="253"/>
      <point x="52" y="241"/>
      <point x="27" y="241" type="curve"/>
      <point x="17" y="175" type="line"/>
      <point x="53" y="172"/>
      <point x="67" y="157"/>
      <point x="58" y="100" type="curve" smooth="yes"/>
      <point x="45" y="15" type="line" smooth="yes"/>
      <point x="27" y="-103"/>
      <point x="54" y="-128"/>
      <point x="161" y="-128" type="curve"/>
      <point x="169" y="-69" type="line"/>
      <point x="109" y="-69"/>
      <point x="112" y="-52"/>
      <point x="122" y="15" type="curve" smooth="yes"/>
      <point x="138" y="126" type="line" smooth="yes"/>
      <point x="144" y="165"/>
      <point x="130" y="193"/>
      <point x="99" y="208" type="curve"/>
      <point x="134" y="222"/>
      <point x="155" y="249"/>
      <point x="161" y="289" type="curve" smooth="yes"/>
      <point x="176" y="397" type="line" smooth="yes"/>
      <point x="184" y="457"/>
      <point x="185" y="481"/>
      <point x="247" y="481" type="curve"/>
      <point x="256" y="540" type="line"/>
      <point x="154" y="540"/>
      <point x="117" y="523"/>
      <point x="99" y="398" type="curve" smooth="yes"/>
    </contour>
  </outline>
</glyph>
<glyph name="bar" format="1">
  <advance width="206"/>
  <unicode hex="007C"/>
  <outline>
    <contour>
      <point x="189" y="532" type="line" name="hr00"/>
      <point x="114" y="532" type="line"/>
      <point x="17" y="-157" type="line"/>
      <point x="92" y="-157" type="line"/>
    </contour>
  </outline>
</glyph>
<glyph name="braceright" format="1">
  <advance width="269"/>
  <unicode hex="007D"/>
  <outline>
    <contour>
      <point x="256" y="240" type="line" name="hr00"/>
      <point x="220" y="241"/>
      <point x="209" y="254"/>
      <point x="216" y="310" type="curve" smooth="yes"/>
      <point x="228" y="401" type="line" smooth="yes"/>
      <point x="244" y="521"/>
      <point x="214" y="540"/>
      <point x="111" y="540" type="curve"/>
      <point x="103" y="481" type="line"/>
      <point x="165" y="481"/>
      <point x="159" y="464"/>
      <point x="150" y="397" type="curve" smooth="yes"/>
      <point x="135" y="289" type="line" smooth="yes"/>
      <point x="129" y="249"/>
      <point x="142" y="221"/>
      <point x="173" y="206" type="curve"/>
      <point x="138" y="191"/>
      <point x="117" y="165"/>
      <point x="112" y="126" type="curve" smooth="yes"/>
      <point x="97" y="11" type="line" smooth="yes"/>
      <point x="89" y="-48"/>
      <point x="88" y="-69"/>
      <point x="25" y="-69" type="curve"/>
      <point x="17" y="-128" type="line"/>
      <point x="115" y="-128"/>
      <point x="154" y="-114"/>
      <point x="173" y="11" type="curve" smooth="yes"/>
      <point x="187" y="104" type="line" smooth="yes"/>
      <point x="195" y="159"/>
      <point x="211" y="173"/>
      <point x="246" y="173" type="curve"/>
    </contour>
  </outline>
</glyph>
<glyph name="asciitilde" format="1">
  <advance width="337"/>
  <unicode hex="007E"/>
  <outline>
    <contour>
      <point x="236" y="254" type="curve" smooth="yes" name="hr00"/>
      <point x="199" y="254"/>
      <point x="182" y="308"/>
      <point x="127" y="308" type="curve" smooth="yes"/>
      <point x="81" y="308"/>
      <point x="37" y="263"/>
      <point x="17" y="241" type="curve"/>
      <point x="28" y="226"/>
      <point x="36" y="212"/>
      <point x="45" y="195" type="curve"/>
      <point x="52" y="205"/>
      <point x="81" y="228"/>
      <point x="112" y="228" type="curve" smooth="yes"/>
      <point x="152" y="228"/>
      <point x="169" y="176"/>
      <point x="221" y="176" type="curve" smooth="yes"/>
      <point x="270" y="176"/>
      <point x="306" y="218"/>
      <point x="326" y="241" type="curve"/>
      <point x="298" y="283" type="line"/>
      <point x="290" y="275"/>
      <point x="265" y="254"/>
    </contour>
  </outline>
</glyph>
<glyph name="cent" format="1">
  <advance width="299"/>
  <unicode hex="00A2"/>
  <outline>
    <contour>
      <point x="241" y="137" type="line" name="hr00"/>
      <point x="229" y="132"/>
      <point x="202" y="119"/>
      <point x="173" y="119" type="curve" smooth="yes"/>
      <point x="130" y="119"/>
      <point x="113" y="149"/>
      <point x="124" y="224" type="curve" smooth="yes"/>
      <point x="136" y="300"/>
      <point x="161" y="332"/>
      <point x="206" y="332" type="curve" smooth="yes"/>
      <point x="231" y="332"/>
      <point x="256" y="326"/>
      <point x="264" y="322" type="curve"/>
      <point x="273" y="345"/>
      <point x="278" y="365"/>
      <point x="286" y="388" type="curve"/>
      <point x="275" y="393"/>
      <point x="252" y="400"/>
      <point x="223" y="401" type="curve"/>
      <point x="227" y="426"/>
      <point x="232" y="449"/>
      <point x="233" y="470" type="curve"/>
      <point x="164" y="470" type="line"/>
      <point x="156" y="398" type="line"/>
      <point x="88" y="381"/>
      <point x="41" y="324"/>
      <point x="27" y="220" type="curve" smooth="yes"/>
      <point x="13" y="119"/>
      <point x="43" y="66"/>
      <point x="107" y="51" type="curve"/>
      <point x="102" y="28"/>
      <point x="100" y="6"/>
      <point x="96" y="-18" type="curve"/>
      <point x="165" y="-18" type="line"/>
      <point x="173" y="49" type="line"/>
      <point x="214" y="57"/>
      <point x="242" y="75"/>
      <point x="254" y="80" type="curve"/>
    </contour>
  </outline>
</glyph>
<glyph name="copyright" format="1">
  <advance width="455"/>
  <unicode hex="00A9"/>
  <outline>
    <contour>
      <point x="433" y="226" type="curve" smooth="yes" name="hr00"/>
      <point x="453" y="371"/>
      <point x="378" y="463"/>
      <point x="262" y="463" type="curve" smooth="yes"/>
      <point x="146" y="463"/>
      <point x="45" y="371"/>
      <point x="25" y="226" type="curve" smooth="yes"/>
      <point x="5" y="85"/>
      <point x="81" y="-10"/>
      <point x="195" y="-10" type="curve" smooth="yes"/>
      <point x="313" y="-10"/>
      <point x="413" y="85"/>
    </contour>
    <contour>
      <point x="378" y="226" type="curve" smooth="yes"/>
      <point x="362" y="115"/>
      <point x="288" y="42"/>
      <point x="201" y="42" type="curve" smooth="yes"/>
      <point x="120" y="42"/>
      <point x="63" y="115"/>
      <point x="79" y="226" type="curve" smooth="yes"/>
      <point x="95" y="338"/>
      <point x="169" y="410"/>
      <point x="254" y="410" type="curve" smooth="yes"/>
      <point x="339" y="410"/>
      <point x="394" y="338"/>
    </contour>
    <contour>
      <point x="198" y="225" type="curve" smooth="yes"/>
      <point x="206" y="284"/>
      <point x="224" y="303"/>
      <point x="257" y="303" type="curve" smooth="yes"/>
      <point x="273" y="303"/>
      <point x="290" y="297"/>
      <point x="297" y="296" type="curve"/>
      <point x="312" y="340" type="line"/>
      <point x="304" y="344"/>
      <point x="288" y="352"/>
      <point x="255" y="352" type="curve" smooth="yes"/>
      <point x="191" y="352"/>
      <point x="151" y="312"/>
      <point x="139" y="225" type="curve" smooth="yes"/>
      <point x="127" y="138"/>
      <point x="155" y="97"/>
      <point x="219" y="97" type="curve" smooth="yes"/>
      <point x="252" y="97"/>
      <point x="268" y="105"/>
      <point x="279" y="109" type="curve"/>
      <point x="277" y="154" type="line"/>
      <point x="268" y="150"/>
      <point x="250" y="147"/>
      <point x="235" y="147" type="curve" smooth="yes"/>
      <point x="203" y="147"/>
      <point x="190" y="166"/>
    </contour>
  </outline>
</glyph>
<glyph name="registered" format="1">
  <advance width="389"/>
  <unicode hex="00AE"/>
  <outline>
    <contour>
      <point x="365" y="330" type="curve" smooth="yes" name="hr00"/>
      <point x="382" y="454"/>
      <point x="319" y="531"/>
      <point x="224" y="531" type="curve" smooth="yes"/>
      <point x="129" y="531"/>
      <point x="43" y="454"/>
      <point x="25" y="330" type="curve" smooth="yes"/>
      <point x="6" y="206"/>
      <point x="69" y="127"/>
      <point x="167" y="127" type="curve" smooth="yes"/>
      <point x="261" y="127"/>
      <point x="347" y="205"/>
    </contour>
    <contour>
      <point x="320" y="330" type="curve" smooth="yes"/>
      <point x="305" y="230"/>
      <point x="243" y="173"/>
      <point x="172" y="173" type="curve" smooth="yes"/>
      <point x="103" y="173"/>
      <point x="54" y="230"/>
      <point x="69" y="330" type="curve" smooth="yes"/>
      <point x="84" y="428"/>
      <point x="144" y="486"/>
      <point x="216" y="486" type="curve" smooth="yes"/>
      <point x="286" y="486"/>
      <point x="334" y="428"/>
    </contour>
    <contour>
      <point x="122" y="227" type="line"/>
      <point x="160" y="227" type="line"/>
      <point x="170" y="297" type="line"/>
      <point x="175" y="293"/>
      <point x="181" y="292"/>
      <point x="185" y="289" type="curve"/>
      <point x="208" y="227" type="line"/>
      <point x="255" y="227" type="line"/>
      <point x="219" y="310" type="line"/>
      <point x="246" y="319"/>
      <point x="264" y="338"/>
      <point x="269" y="371" type="curve" smooth="yes"/>
      <point x="276" y="418"/>
      <point x="251" y="433"/>
      <point x="204" y="433" type="curve" smooth="yes"/>
      <point x="175" y="433"/>
      <point x="158" y="431"/>
      <point x="150" y="431" type="curve"/>
    </contour>
    <contour>
      <point x="202" y="399" type="line" smooth="yes"/>
      <point x="223" y="399"/>
      <point x="231" y="392"/>
      <point x="227" y="367" type="curve" smooth="yes"/>
      <point x="223" y="342"/>
      <point x="198" y="331"/>
      <point x="174" y="331" type="curve"/>
      <point x="184" y="399" type="line"/>
    </contour>
  </outline>
</glyph>
<glyph name="onequarter" format="1">
  <advance width="650"/>
  <unicode hex="00BC"/>
  <outline>
    <contour>
      <point x="476" y="276" type="line" name="hr00"/>
      <point x="353" y="64" type="line"/>
      <point x="346" y="15" type="line"/>
      <point x="490" y="15" type="line"/>
      <point x="476" y="-77" type="line"/>
      <point x="550" y="-77" type="line"/>
      <point x="563" y="15" type="line"/>
      <point x="592" y="15" type="line"/>
      <point x="600" y="75" type="line"/>
      <point x="571" y="75" type="line"/>
      <point x="582" y="148" type="line"/>
      <point x="507" y="137" type="line"/>
      <point x="498" y="75" type="line"/>
      <point x="438" y="75" type="line"/>
      <point x="553" y="276" type="line"/>
    </contour>
    <contour>
      <point x="170" y="519" type="line"/>
      <point x="146" y="504"/>
      <point x="105" y="473"/>
      <point x="58" y="437" type="curve"/>
      <point x="82" y="386" type="line"/>
      <point x="103" y="401"/>
      <point x="123" y="417"/>
      <point x="144" y="434" type="curve"/>
      <point x="105" y="163" type="line"/>
      <point x="184" y="163" type="line"/>
      <point x="235" y="519" type="line"/>
    </contour>
    <contour>
      <point x="523" y="473" type="line"/>
      <point x="448" y="483" type="line"/>
      <point x="140" y="20" type="line"/>
      <point x="167" y="15"/>
      <point x="188" y="12"/>
      <point x="215" y="8" type="curve"/>
    </contour>
  </outline>
</glyph>
<glyph name="onehalf" format="1">
  <advance width="666"/>
  <unicode hex="00BD"/>
  <outline>
    <contour>
      <point x="170" y="519" type="line" name="hr00"/>
      <point x="146" y="504"/>
      <point x="105" y="473"/>
      <point x="58" y="437" type="curve"/>
      <point x="82" y="386" type="line"/>
      <point x="103" y="401"/>
      <point x="123" y="417"/>
      <point x="144" y="434" type="curve"/>
      <point x="105" y="163" type="line"/>
      <point x="184" y="163" type="line"/>
      <point x="235" y="519" type="line"/>
    </contour>
    <contour>
      <point x="523" y="473" type="line"/>
      <point x="448" y="483" type="line"/>
      <point x="140" y="20" type="line"/>
      <point x="167" y="15"/>
      <point x="188" y="12"/>
      <point x="215" y="8" type="curve"/>
    </contour>
    <contour>
      <point x="587" y="-8" type="line"/>
      <point x="471" y="-8" type="line"/>
      <point x="533" y="46"/>
      <point x="598" y="109"/>
      <point x="609" y="182" type="curve" smooth="yes"/>
      <point x="618" y="247"/>
      <point x="584" y="283"/>
      <point x="511" y="283" type="curve" smooth="yes"/>
      <point x="466" y="283"/>
      <point x="430" y="267"/>
      <point x="417" y="262" type="curve"/>
      <point x="422" y="204" type="line"/>
      <point x="430" y="208"/>
      <point x="457" y="217"/>
      <point x="484" y="217" type="curve" smooth="yes"/>
      <point x="515" y="217"/>
      <point x="530" y="204"/>
      <point x="524" y="172" type="curve" smooth="yes"/>
      <point x="512" y="106"/>
      <point x="406" y="12"/>
      <point x="376" y="-18" type="curve"/>
      <point x="367" y="-77" type="line"/>
      <point x="577" y="-77" type="line"/>
    </contour>
  </outline>
</glyph>
<glyph name="threequarters" format="1">
  <advance width="718"/>
  <unicode hex="00BE"/>
  <outline>
    <contour>
      <point x="106" y="449" type="line" name="hr00"/>
      <point x="111" y="450"/>
      <point x="141" y="461"/>
      <point x="170" y="461" type="curve" smooth="yes"/>
      <point x="202" y="461"/>
      <point x="221" y="449"/>
      <point x="216" y="421" type="curve" smooth="yes"/>
      <point x="211" y="392"/>
      <point x="190" y="376"/>
      <point x="183" y="373" type="curve" smooth="yes"/>
      <point x="170" y="368"/>
      <point x="156" y="367"/>
      <point x="140" y="367" type="curve" smooth="yes"/>
      <point x="122" y="367" type="line"/>
      <point x="114" y="313" type="line"/>
      <point x="119" y="313"/>
      <point x="137" y="314"/>
      <point x="153" y="314" type="curve" smooth="yes"/>
      <point x="189" y="314"/>
      <point x="208" y="300"/>
      <point x="204" y="268" type="curve" smooth="yes"/>
      <point x="199" y="229"/>
      <point x="174" y="214"/>
      <point x="138" y="214" type="curve" smooth="yes"/>
      <point x="103" y="214"/>
      <point x="74" y="230"/>
      <point x="69" y="235" type="curve"/>
      <point x="42" y="182" type="line"/>
      <point x="47" y="177"/>
      <point x="85" y="155"/>
      <point x="140" y="155" type="curve" smooth="yes"/>
      <point x="215" y="155"/>
      <point x="271" y="187"/>
      <point x="282" y="264" type="curve" smooth="yes"/>
      <point x="290" y="315"/>
      <point x="267" y="340"/>
      <point x="231" y="348" type="curve"/>
      <point x="260" y="364"/>
      <point x="288" y="389"/>
      <point x="294" y="433" type="curve" smooth="yes"/>
      <point x="302" y="492"/>
      <point x="265" y="521"/>
      <point x="194" y="521" type="curve" smooth="yes"/>
      <point x="145" y="521"/>
      <point x="113" y="508"/>
      <point x="101" y="504" type="curve"/>
    </contour>
    <contour>
      <point x="545" y="276" type="line"/>
      <point x="422" y="64" type="line"/>
      <point x="415" y="15" type="line"/>
      <point x="558" y="15" type="line"/>
      <point x="545" y="-77" type="line"/>
      <point x="618" y="-77" type="line"/>
      <point x="632" y="15" type="line"/>
      <point x="660" y="15" type="line"/>
      <point x="668" y="75" type="line"/>
      <point x="639" y="75" type="line"/>
      <point x="650" y="148" type="line"/>
      <point x="575" y="137" type="line"/>
      <point x="566" y="75" type="line"/>
      <point x="507" y="75" type="line"/>
      <point x="621" y="276" type="line"/>
    </contour>
    <contour>
      <point x="591" y="473" type="line"/>
      <point x="516" y="483" type="line"/>
      <point x="208" y="20" type="line"/>
      <point x="235" y="15"/>
      <point x="258" y="12"/>
      <point x="283" y="8" type="curve"/>
    </contour>
  </outline>
</glyph>
<glyph name="Adieresis" format="1">
  <advance width="392"/>
  <unicode hex="00C4"/>
  <outline>
    <contour>
      <point x="17" y="0" type="line" name="hr00"/>
      <point x="113" y="0" type="line"/>
      <point x="145" y="79" type="line"/>
      <point x="272" y="79" type="line"/>
      <point x="281" y="0" type="line"/>
      <point x="382" y="0" type="line"/>
      <point x="322" y="454" type="line"/>
      <point x="207" y="454" type="line"/>
    </contour>
    <contour>
      <point x="250" y="365" type="curve"/>
      <point x="250" y="318"/>
      <point x="261" y="223"/>
      <point x="266" y="144" type="curve"/>
      <point x="168" y="144" type="line"/>
      <point x="200" y="223"/>
      <point x="231" y="319"/>
    </contour>
  </outline>
</glyph>
<glyph name="Ccedilla" format="1">
  <advance width="367"/>
  <unicode hex="00C7"/>
  <outline>
    <contour>
      <point x="134" y="226" type="curve" smooth="yes" name="hr00"/>
      <point x="149" y="334"/>
      <point x="178" y="386"/>
      <point x="258" y="386" type="curve" smooth="yes"/>
      <point x="289" y="386"/>
      <point x="316" y="373"/>
      <point x="331" y="369" type="curve"/>
      <point x="354" y="441" type="line"/>
      <point x="342" y="444"/>
      <point x="311" y="462"/>
      <point x="252" y="462" type="curve" smooth="yes"/>
      <point x="128" y="462"/>
      <point x="57" y="389"/>
      <point x="34" y="226" type="curve" smooth="yes"/>
      <point x="11" y="65"/>
      <point x="61" y="-11"/>
      <point x="185" y="-11" type="curve" smooth="yes"/>
      <point x="242" y="-11"/>
      <point x="282" y="6"/>
      <point x="294" y="11" type="curve"/>
      <point x="291" y="35"/>
      <point x="292" y="59"/>
      <point x="291" y="83" type="curve"/>
      <point x="276" y="79"/>
      <point x="245" y="66"/>
      <point x="212" y="66" type="curve" smooth="yes"/>
      <point x="135" y="66"/>
      <point x="120" y="119"/>
    </contour>
    <contour>
      <point x="144" y="2" type="line"/>
      <point x="121" y="-50" type="line"/>
      <point x="109" y="-68"/>
      <point x="167" y="-71"/>
      <point x="163" y="-95" type="curve" smooth="yes"/>
      <point x="161" y="-112"/>
      <point x="149" y="-120"/>
      <point x="130" y="-120" type="curve" smooth="yes"/>
      <point x="115" y="-120"/>
      <point x="104" y="-109"/>
      <point x="99" y="-106" type="curve"/>
      <point x="75" y="-142" type="line"/>
      <point x="79" y="-146"/>
      <point x="102" y="-165"/>
      <point x="135" y="-165" type="curve" smooth="yes"/>
      <point x="182" y="-165"/>
      <point x="217" y="-143"/>
      <point x="225" y="-98" type="curve" smooth="yes"/>
      <point x="232" y="-57"/>
      <point x="203" y="-39"/>
      <point x="185" y="-30" type="curve" smooth="yes"/>
      <point x="180" y="-28"/>
      <point x="177" y="-26"/>
      <point x="177" y="-25" type="curve" smooth="yes"/>
      <point x="174" y="-13"/>
      <point x="184" y="-5"/>
      <point x="185" y="2" type="curve"/>
    </contour>
  </outline>
</glyph>
<glyph name="Eacute" format="1">
  <advance width="338"/>
  <unicode hex="00C9"/>
  <outline>
    <contour>
      <point x="263" y="0" type="line" name="hr00"/>
      <point x="273" y="78" type="line"/>
      <point x="124" y="78" type="line"/>
      <point x="141" y="198" type="line"/>
      <point x="254" y="198" type="line"/>
      <point x="264" y="271" type="line"/>
      <point x="152" y="271" type="line"/>
      <point x="167" y="376" type="line"/>
      <point x="314" y="376" type="line"/>
      <point x="326" y="454" type="line"/>
      <point x="81" y="454" type="line"/>
      <point x="17" y="0" type="line"/>
    </contour>
  </outline>
</glyph>
<glyph name="Ntilde" format="1">
  <advance width="398"/>
  <unicode hex="00D1"/>
  <outline>
    <contour>
      <point x="350" y="608" type="line" name="hr00"/>
      <point x="344" y="602"/>
      <point x="324" y="584"/>
      <point x="301" y="584" type="curve" smooth="yes"/>
      <point x="272" y="584"/>
      <point x="255" y="613"/>
      <point x="216" y="613" type="curve" smooth="yes"/>
      <point x="171" y="613"/>
      <point x="141" y="568"/>
      <point x="123" y="550" type="curve"/>
      <point x="153" y="519" type="line"/>
      <point x="158" y="527"/>
      <point x="183" y="544"/>
      <point x="205" y="544" type="curve" smooth="yes"/>
      <point x="234" y="544"/>
      <point x="251" y="516"/>
      <point x="291" y="516" type="curve" smooth="yes"/>
      <point x="334" y="516"/>
      <point x="366" y="562"/>
      <point x="382" y="581" type="curve"/>
    </contour>
    <contour>
      <point x="394" y="454" type="line"/>
      <point x="309" y="454" type="line"/>
      <point x="276" y="219" type="line"/>
      <point x="275" y="199"/>
      <point x="274" y="177"/>
      <point x="271" y="169" type="curve"/>
      <point x="270" y="169" type="line"/>
      <point x="167" y="454" type="line"/>
      <point x="81" y="454" type="line"/>
      <point x="17" y="0" type="line"/>
      <point x="101" y="0" type="line"/>
      <point x="133" y="235" type="line" smooth="yes"/>
      <point x="136" y="256"/>
      <point x="138" y="277"/>
      <point x="139" y="286" type="curve"/>
      <point x="245" y="0" type="line"/>
      <point x="330" y="0" type="line"/>
    </contour>
  </outline>
</glyph>
<glyph name="multiply" format="1">
  <advance width="444"/>
  <unicode hex="00D7"/>
  <outline>
    <contour>
      <point x="286" y="394" type="line" name="hr00"/>
      <point x="213" y="257" type="line"/>
      <point x="208" y="287"/>
      <point x="184" y="372"/>
      <point x="178" y="394" type="curve"/>
      <point x="66" y="394" type="line"/>
      <point x="144" y="204" type="line"/>
      <point x="4" y="0" type="line"/>
      <point x="112" y="0" type="line"/>
      <point x="126" y="22"/>
      <point x="173" y="109"/>
      <point x="192" y="144" type="curve"/>
      <point x="200" y="108"/>
      <point x="225" y="21"/>
      <point x="235" y="0" type="curve"/>
      <point x="345" y="0" type="line"/>
      <point x="261" y="201" type="line"/>
      <point x="306" y="265"/>
      <point x="350" y="329"/>
      <point x="394" y="394" type="curve"/>
    </contour>
  </outline>
</glyph>
<glyph name="divide" format="1">
  <advance width="322"/>
  <unicode hex="00F7"/>
  <outline>
    <contour>
      <point x="235" y="359" type="curve" smooth="yes" name="hr00"/>
      <point x="240" y="392"/>
      <point x="219" y="416"/>
      <point x="191" y="416" type="curve" smooth="yes"/>
      <point x="163" y="416"/>
      <point x="139" y="392"/>
      <point x="134" y="359" type="curve" smooth="yes"/>
      <point x="129" y="323"/>
      <point x="148" y="302"/>
      <point x="176" y="302" type="curve" smooth="yes"/>
      <point x="203" y="302"/>
      <point x="229" y="323"/>
    </contour>
    <contour>
      <point x="196" y="80" type="curve" smooth="yes"/>
      <point x="201" y="113"/>
      <point x="181" y="136"/>
      <point x="153" y="136" type="curve" smooth="yes"/>
      <point x="125" y="136"/>
      <point x="99" y="113"/>
      <point x="94" y="80" type="curve" smooth="yes"/>
      <point x="89" y="44"/>
      <point x="109" y="22"/>
      <point x="137" y="22" type="curve" smooth="yes"/>
      <point x="165" y="22"/>
      <point x="191" y="44"/>
    </contour>
    <contour>
      <point x="309" y="243" type="line"/>
      <point x="28" y="243" type="line"/>
      <point x="17" y="171" type="line"/>
      <point x="297" y="171" type="line"/>
    </contour>
  </outline>
</glyph>
<glyph name="uni0950" format="1">
  <advance width="675"/>
  <unicode hex="0950"/>
  <outline>
    <contour>
      <point x="29" y="286" type="line" name="hr00"/>
      <point x="37" y="201"/>
      <point x="59" y="133"/>
      <point x="107" y="77" type="curve" smooth="yes"/>
      <point x="154" y="22"/>
      <point x="207" y="-5"/>
      <point x="267" y="-5" type="curve" smooth="yes"/>
      <point x="343" y="-5"/>
      <point x="392" y="41"/>
      <point x="392" y="112" type="curve" smooth="yes"/>
      <point x="392" y="156"/>
      <point x="375" y="201"/>
      <point x="341" y="246" type="curve"/>
      <point x="365" y="263"/>
      <point x="386" y="272"/>
      <point x="403" y="272" type="curve" smooth="yes"/>
      <point x="422" y="272"/>
      <point x="432" y="254"/>
      <point x="432" y="218" type="curve" smooth="yes"/>
      <point x="432" y="188" type="line" smooth="yes"/>
      <point x="432" y="109"/>
      <point x="452" y="79"/>
      <point x="504" y="79" type="curve" smooth="yes"/>
      <point x="579" y="79"/>
      <point x="625" y="151"/>
      <point x="625" y="268" type="curve" smooth="yes"/>
      <point x="625" y="382"/>
      <point x="590" y="439"/>
      <point x="520" y="439" type="curve" smooth="yes"/>
      <point x="465" y="439"/>
      <point x="433" y="407"/>
      <point x="422" y="342" type="curve"/>
      <point x="415" y="343"/>
      <point x="412" y="343"/>
      <point x="408" y="343" type="curve" smooth="yes"/>
      <point x="375" y="343"/>
      <point x="342" y="326"/>
      <point x="307" y="292" type="curve"/>
      <point x="295" y="303" type="line"/>
      <point x="301" y="319"/>
      <point x="304" y="334"/>
      <point x="304" y="348" type="curve" smooth="yes"/>
      <point x="304" y="424"/>
      <point x="254" y="475"/>
      <point x="182" y="475" type="curve" smooth="yes"/>
      <point x="157" y="475"/>
      <point x="131" y="469"/>
      <point x="102" y="456" type="curve"/>
      <point x="129" y="390" type="line"/>
      <point x="161" y="407"/>
      <point x="191" y="415"/>
      <point x="218" y="415" type="curve" smooth="yes"/>
      <point x="256" y="415"/>
      <point x="275" y="399"/>
      <point x="275" y="368" type="curve" smooth="yes"/>
      <point x="275" y="327"/>
      <point x="244" y="298"/>
      <point x="181" y="279" type="curve"/>
      <point x="209" y="212" type="line"/>
      <point x="237" y="225"/>
      <point x="260" y="245"/>
      <point x="280" y="274" type="curve"/>
      <point x="319" y="233"/>
      <point x="338" y="190"/>
      <point x="338" y="143" type="curve" smooth="yes"/>
      <point x="338" y="91"/>
      <point x="299" y="49"/>
      <point x="248" y="49" type="curve" smooth="yes"/>
      <point x="201" y="49"/>
      <point x="159" y="71"/>
      <point x="123" y="116" type="curve" smooth="yes"/>
      <point x="87" y="161"/>
      <point x="63" y="220"/>
      <point x="51" y="292" type="curve"/>
    </contour>
    <contour>
      <point x="440" y="335" type="curve"/>
      <point x="455" y="366"/>
      <point x="480" y="381"/>
      <point x="513" y="381" type="curve" smooth="yes"/>
      <point x="561" y="381"/>
      <point x="595" y="332"/>
      <point x="595" y="263" type="curve" smooth="yes"/>
      <point x="595" y="190"/>
      <point x="556" y="139"/>
      <point x="507" y="139" type="curve" smooth="yes"/>
      <point x="477" y="139"/>
      <point x="462" y="163"/>
      <point x="462" y="212" type="curve" smooth="yes"/>
      <point x="462" y="236" type="line"/>
      <point x="462" y="283" type="line" smooth="yes"/>
      <point x="462" y="310"/>
      <point x="455" y="328"/>
    </contour>
    <contour>
      <point x="227" y="538" type="line"/>
      <point x="266" y="479"/>
      <point x="313" y="450"/>
      <point x="367" y="450" type="curve" smooth="yes"/>
      <point x="404" y="450"/>
      <point x="441" y="469"/>
      <point x="476" y="507" type="curve"/>
      <point x="422" y="552" type="line"/>
      <point x="398" y="520"/>
      <point x="370" y="504"/>
      <point x="337" y="504" type="curve" smooth="yes"/>
      <point x="302" y="504"/>
      <point x="272" y="520"/>
      <point x="247" y="552" type="curve"/>
    </contour>
    <contour>
      <point x="303" y="578" type="line"/>
      <point x="345" y="534" type="line"/>
      <point x="387" y="575" type="line"/>
      <point x="345" y="618" type="line"/>
    </contour>
  </outline>
</glyph>
<glyph name="uni0964" format="1">
  <advance width="234"/>
  <unicode hex="0964"/>
  <outline>
    <contour>
      <point x="151" y="42" type="line" name="hr00"/>
      <point x="167" y="231"/>
      <point x="177" y="358"/>
      <point x="184" y="429" type="curve"/>
      <point x="107" y="429" type="line"/>
      <point x="76" y="42" type="line"/>
    </contour>
  </outline>
</glyph>
<glyph name="uni0965" format="1">
  <advance width="479"/>
  <unicode hex="0965"/>
  <outline>
    <contour>
      <point x="397" y="42" type="line" name="hr00"/>
      <point x="412" y="231"/>
      <point x="424" y="358"/>
      <point x="429" y="429" type="curve"/>
      <point x="353" y="429" type="line"/>
      <point x="322" y="42" type="line"/>
    </contour>
    <contour>
      <point x="151" y="42" type="line"/>
      <point x="167" y="231"/>
      <point x="177" y="358"/>
      <point x="184" y="429" type="curve"/>
      <point x="107" y="429" type="line"/>
      <point x="76" y="42" type="line"/>
    </contour>
  </outline>
</glyph>
<glyph name="U0C01" format="1">
  <advance width="271"/>
  <unicode hex="0C01"/>
  <outline>
    <contour>
      <point x="175" y="0" type="curve" smooth="yes" name="hr00"/>
      <point x="190" y="0"/>
      <point x="201" y="15"/>
      <point x="201" y="31" type="curve" smooth="yes"/>
      <point x="201" y="45"/>
      <point x="195" y="52"/>
      <point x="182" y="52" type="curve" smooth="yes"/>
      <point x="118" y="52"/>
      <point x="87" y="100"/>
      <point x="93" y="173" type="curve" smooth="yes"/>
      <point x="99" y="248"/>
      <point x="140" y="297"/>
      <point x="199" y="297" type="curve" smooth="yes"/>
      <point x="214" y="297"/>
      <point x="221" y="306"/>
      <point x="221" y="325" type="curve" smooth="yes"/>
      <point x="221" y="340"/>
      <point x="214" y="348"/>
      <point x="201" y="348" type="curve" smooth="yes"/>
      <point x="144" y="348"/>
      <point x="98" y="332"/>
      <point x="62" y="299" type="curve" smooth="yes"/>
      <point x="27" y="268"/>
      <point x="7" y="226"/>
      <point x="3" y="173" type="curve" smooth="yes"/>
      <point x="-6" y="68"/>
      <point x="58" y="0"/>
    </contour>
  </outline>
</glyph>
<glyph name="U0C02" format="1">
  <advance width="438"/>
  <unicode hex="0C02"/>
  <outline>
    <contour>
      <point x="377" y="173" type="curve" smooth="yes" name="hr00"/>
      <point x="385" y="290"/>
      <point x="325" y="348"/>
      <point x="198" y="348" type="curve" smooth="yes"/>
      <point x="141" y="348"/>
      <point x="95" y="332"/>
      <point x="59" y="299" type="curve" smooth="yes"/>
      <point x="25" y="268"/>
      <point x="5" y="226"/>
      <point x="1" y="173" type="curve" smooth="yes"/>
      <point x="-8" y="68"/>
      <point x="54" y="0"/>
      <point x="173" y="0" type="curve" smooth="yes"/>
      <point x="287" y="0"/>
      <point x="370" y="68"/>
    </contour>
    <contour>
      <point x="285" y="173" type="curve" smooth="yes"/>
      <point x="278" y="92"/>
      <point x="244" y="52"/>
      <point x="181" y="52" type="curve" smooth="yes"/>
      <point x="117" y="52"/>
      <point x="86" y="100"/>
      <point x="91" y="173" type="curve" smooth="yes"/>
      <point x="96" y="248"/>
      <point x="137" y="297"/>
      <point x="196" y="297" type="curve" smooth="yes"/>
      <point x="229" y="297"/>
      <point x="254" y="285"/>
      <point x="269" y="261" type="curve" smooth="yes"/>
      <point x="282" y="240"/>
      <point x="288" y="210"/>
    </contour>
  </outline>
</glyph>
<glyph name="U0C03" format="1">
  <advance width="285"/>
  <unicode hex="0C03"/>
  <outline>
    <contour>
      <point x="233" y="268" type="curve" smooth="yes" name="hr00"/>
      <point x="235" y="295"/>
      <point x="224" y="316"/>
      <point x="201" y="331" type="curve" smooth="yes"/>
      <point x="182" y="344"/>
      <point x="158" y="351"/>
      <point x="130" y="351" type="curve" smooth="yes"/>
      <point x="102" y="351"/>
      <point x="77" y="344"/>
      <point x="56" y="331" type="curve" smooth="yes"/>
      <point x="31" y="316"/>
      <point x="17" y="295"/>
      <point x="15" y="268" type="curve" smooth="yes"/>
      <point x="13" y="240"/>
      <point x="23" y="218"/>
      <point x="45" y="202" type="curve" smooth="yes"/>
      <point x="64" y="189"/>
      <point x="88" y="182"/>
      <point x="117" y="182" type="curve" smooth="yes"/>
      <point x="146" y="182"/>
      <point x="171" y="189"/>
      <point x="192" y="202" type="curve" smooth="yes"/>
      <point x="217" y="217"/>
      <point x="231" y="239"/>
    </contour>
    <contour>
      <point x="217" y="86" type="curve" smooth="yes"/>
      <point x="220" y="113"/>
      <point x="209" y="135"/>
      <point x="186" y="150" type="curve" smooth="yes"/>
      <point x="167" y="162"/>
      <point x="144" y="168"/>
      <point x="115" y="168" type="curve" smooth="yes"/>
      <point x="87" y="168"/>
      <point x="62" y="162"/>
      <point x="41" y="149" type="curve" smooth="yes"/>
      <point x="17" y="134"/>
      <point x="4" y="113"/>
      <point x="1" y="86" type="curve" smooth="yes"/>
      <point x="-2" y="57"/>
      <point x="8" y="35"/>
      <point x="31" y="20" type="curve" smooth="yes"/>
      <point x="50" y="7"/>
      <point x="74" y="0"/>
      <point x="103" y="0" type="curve" smooth="yes"/>
      <point x="131" y="0"/>
      <point x="156" y="6"/>
      <point x="178" y="20" type="curve" smooth="yes"/>
      <point x="201" y="35"/>
      <point x="214" y="57"/>
    </contour>
    <contour>
      <point x="148" y="268" type="curve" smooth="yes"/>
      <point x="145" y="237"/>
      <point x="138" y="221"/>
      <point x="124" y="221" type="curve" smooth="yes"/>
      <point x="108" y="221"/>
      <point x="101" y="236"/>
      <point x="104" y="265" type="curve" smooth="yes"/>
      <point x="107" y="297"/>
      <point x="115" y="313"/>
      <point x="129" y="313" type="curve" smooth="yes"/>
      <point x="144" y="313"/>
      <point x="150" y="298"/>
    </contour>
    <contour>
      <point x="134" y="87" type="curve" smooth="yes"/>
      <point x="131" y="56"/>
      <point x="123" y="40"/>
      <point x="110" y="40" type="curve" smooth="yes"/>
      <point x="93" y="40"/>
      <point x="87" y="54"/>
      <point x="89" y="83" type="curve" smooth="yes"/>
      <point x="92" y="116"/>
      <point x="99" y="132"/>
      <point x="114" y="132" type="curve" smooth="yes"/>
      <point x="131" y="132"/>
      <point x="137" y="117"/>
    </contour>
  </outline>
</glyph>
<glyph name="U0C05" format="1">
  <advance width="479"/>
  <unicode hex="0C05"/>
  <outline>
    <contour>
      <point x="424" y="224" type="curve" smooth="yes" name="hr00"/>
      <point x="427" y="264"/>
      <point x="422" y="298"/>
      <point x="408" y="327" type="curve" smooth="yes"/>
      <point x="391" y="360"/>
      <point x="365" y="376"/>
      <point x="330" y="376" type="curve" smooth="yes"/>
      <point x="305" y="376"/>
      <point x="283" y="367"/>
      <point x="264" y="348" type="curve" smooth="yes"/>
      <point x="243" y="325"/>
      <point x="232" y="296"/>
      <point x="229" y="260" type="curve" smooth="yes"/>
      <point x="227" y="230"/>
      <point x="234" y="204"/>
      <point x="252" y="182" type="curve"/>
      <point x="102" y="182" type="line"/>
      <point x="99" y="132" type="line"/>
      <point x="302" y="132" type="line"/>
      <point x="306" y="190" type="line"/>
      <point x="298" y="190"/>
      <point x="294" y="198"/>
      <point x="294" y="214" type="curve" smooth="yes"/>
      <point x="294" y="209"/>
      <point x="296" y="221"/>
      <point x="298" y="256" type="curve" smooth="yes"/>
      <point x="300" y="297"/>
      <point x="312" y="318"/>
      <point x="329" y="318" type="curve" smooth="yes"/>
      <point x="338" y="318"/>
      <point x="345" y="309"/>
      <point x="350" y="292" type="curve" smooth="yes"/>
      <point x="353" y="281"/>
      <point x="354" y="268"/>
      <point x="353" y="254" type="curve" smooth="yes"/>
      <point x="349" y="211"/>
      <point x="344" y="179"/>
      <point x="336" y="156" type="curve" smooth="yes"/>
      <point x="313" y="91"/>
      <point x="267" y="59"/>
      <point x="196" y="59" type="curve" smooth="yes"/>
      <point x="115" y="59"/>
      <point x="75" y="103"/>
      <point x="75" y="190" type="curve" smooth="yes"/>
      <point x="75" y="197"/>
      <point x="75" y="204"/>
      <point x="76" y="212" type="curve"/>
      <point x="90" y="197"/>
      <point x="109" y="190"/>
      <point x="133" y="190" type="curve" smooth="yes"/>
      <point x="181" y="190"/>
      <point x="220" y="227"/>
      <point x="224" y="291" type="curve" smooth="yes"/>
      <point x="228" y="342"/>
      <point x="198" y="376"/>
      <point x="141" y="376" type="curve" smooth="yes"/>
      <point x="106" y="376"/>
      <point x="76" y="364"/>
      <point x="52" y="340" type="curve" smooth="yes"/>
      <point x="23" y="311"/>
      <point x="6" y="265"/>
      <point x="1" y="203" type="curve" smooth="yes"/>
      <point x="-10" y="80"/>
      <point x="68" y="0"/>
      <point x="201" y="0" type="curve" smooth="yes"/>
      <point x="257" y="0"/>
      <point x="305" y="18"/>
      <point x="346" y="54" type="curve" smooth="yes"/>
      <point x="393" y="95"/>
      <point x="419" y="152"/>
    </contour>
    <contour>
      <point x="155" y="290" type="curve" smooth="yes"/>
      <point x="153" y="251"/>
      <point x="142" y="232"/>
      <point x="125" y="232" type="curve" smooth="yes"/>
      <point x="111" y="232"/>
      <point x="105" y="248"/>
      <point x="107" y="280" type="curve" smooth="yes"/>
      <point x="110" y="314"/>
      <point x="121" y="331"/>
      <point x="138" y="331" type="curve" smooth="yes"/>
      <point x="151" y="331"/>
      <point x="157" y="317"/>
    </contour>
  </outline>
</glyph>
<glyph name="U0C06" format="1">
  <advance width="480"/>
  <unicode hex="0C06"/>
  <outline>
    <contour>
      <point x="424" y="284" type="curve" smooth="yes" name="hr00"/>
      <point x="428" y="343"/>
      <point x="399" y="373"/>
      <point x="338" y="373" type="curve" smooth="yes"/>
      <point x="274" y="373"/>
      <point x="240" y="343"/>
      <point x="236" y="284" type="curve" smooth="yes"/>
      <point x="233" y="250"/>
      <point x="241" y="226"/>
      <point x="260" y="212" type="curve"/>
      <point x="265" y="205"/>
      <point x="282" y="198"/>
      <point x="310" y="186" type="curve"/>
      <point x="305" y="181"/>
      <point x="293" y="178"/>
      <point x="276" y="178" type="curve" smooth="yes"/>
      <point x="106" y="178" type="line"/>
      <point x="102" y="125" type="line"/>
      <point x="268" y="125" type="line" smooth="yes"/>
      <point x="293" y="125"/>
      <point x="324" y="145"/>
      <point x="333" y="161" type="curve"/>
      <point x="338" y="131"/>
      <point x="326" y="105"/>
      <point x="299" y="82" type="curve" smooth="yes"/>
      <point x="274" y="61"/>
      <point x="243" y="50"/>
      <point x="208" y="50" type="curve" smooth="yes"/>
      <point x="121" y="50"/>
      <point x="77" y="91"/>
      <point x="77" y="173" type="curve" smooth="yes"/>
      <point x="77" y="186"/>
      <point x="78" y="197"/>
      <point x="81" y="212" type="curve"/>
      <point x="95" y="198" type="line"/>
      <point x="104" y="191"/>
      <point x="117" y="188"/>
      <point x="134" y="188" type="curve" smooth="yes"/>
      <point x="183" y="188"/>
      <point x="224" y="223"/>
      <point x="228" y="288" type="curve" smooth="yes"/>
      <point x="230" y="316"/>
      <point x="224" y="335"/>
      <point x="207" y="350" type="curve" smooth="yes"/>
      <point x="193" y="364"/>
      <point x="173" y="369"/>
      <point x="148" y="369" type="curve" smooth="yes"/>
      <point x="97" y="369"/>
      <point x="58" y="350"/>
      <point x="33" y="312" type="curve" smooth="yes"/>
      <point x="12" y="279"/>
      <point x="0" y="238"/>
      <point x="0" y="183" type="curve" smooth="yes"/>
      <point x="0" y="60"/>
      <point x="69" y="-1"/>
      <point x="206" y="-1" type="curve" smooth="yes"/>
      <point x="251" y="-1"/>
      <point x="291" y="8"/>
      <point x="328" y="25" type="curve" smooth="yes"/>
      <point x="381" y="48"/>
      <point x="409" y="86"/>
      <point x="414" y="139" type="curve" smooth="yes"/>
      <point x="417" y="170"/>
      <point x="404" y="199"/>
      <point x="384" y="207" type="curve"/>
      <point x="408" y="221"/>
      <point x="421" y="247"/>
    </contour>
    <contour>
      <point x="160" y="284" type="curve" smooth="yes"/>
      <point x="157" y="247"/>
      <point x="148" y="229"/>
      <point x="133" y="229" type="curve" smooth="yes"/>
      <point x="117" y="229"/>
      <point x="109" y="246"/>
      <point x="111" y="279" type="curve" smooth="yes"/>
      <point x="113" y="316"/>
      <point x="124" y="334"/>
      <point x="139" y="334" type="curve" smooth="yes"/>
      <point x="155" y="334"/>
      <point x="162" y="317"/>
    </contour>
    <contour>
      <point x="354" y="280" type="curve" smooth="yes"/>
      <point x="351" y="244"/>
      <point x="344" y="226"/>
      <point x="331" y="226" type="curve" smooth="yes"/>
      <point x="315" y="226"/>
      <point x="308" y="244"/>
      <point x="311" y="280" type="curve" smooth="yes"/>
      <point x="313" y="313"/>
      <point x="322" y="330"/>
      <point x="337" y="330" type="curve" smooth="yes"/>
      <point x="351" y="330"/>
      <point x="357" y="313"/>
    </contour>
  </outline>
</glyph>
<glyph name="U0C07" format="1">
  <advance width="472"/>
  <unicode hex="0C07"/>
  <outline>
    <contour>
      <point x="417" y="11" type="curve" smooth="yes" name="hr00"/>
      <point x="420" y="56"/>
      <point x="406" y="96"/>
      <point x="374" y="131" type="curve"/>
      <point x="389" y="160"/>
      <point x="397" y="192"/>
      <point x="399" y="226" type="curve" smooth="yes"/>
      <point x="402" y="269"/>
      <point x="394" y="303"/>
      <point x="374" y="326" type="curve" smooth="yes"/>
      <point x="354" y="348"/>
      <point x="327" y="359"/>
      <point x="293" y="359" type="curve" smooth="yes"/>
      <point x="254" y="359"/>
      <point x="226" y="347"/>
      <point x="211" y="323" type="curve"/>
      <point x="198" y="346"/>
      <point x="172" y="358"/>
      <point x="131" y="358" type="curve" smooth="yes"/>
      <point x="74" y="358"/>
      <point x="37" y="336"/>
      <point x="18" y="293" type="curve" smooth="yes"/>
      <point x="8" y="269"/>
      <point x="3" y="246"/>
      <point x="8" y="226" type="curve"/>
      <point x="93" y="226" type="line"/>
      <point x="88" y="234"/>
      <point x="87" y="245"/>
      <point x="88" y="259" type="curve" smooth="yes"/>
      <point x="91" y="292"/>
      <point x="103" y="308"/>
      <point x="128" y="308" type="curve" smooth="yes"/>
      <point x="148" y="308"/>
      <point x="168" y="287"/>
      <point x="167" y="259" type="curve" smooth="yes"/>
      <point x="166" y="237" type="line"/>
      <point x="246" y="237" type="line"/>
      <point x="246" y="255" type="line"/>
      <point x="249" y="282"/>
      <point x="263" y="305"/>
      <point x="283" y="305" type="curve" smooth="yes"/>
      <point x="312" y="305"/>
      <point x="324" y="277"/>
      <point x="320" y="222" type="curve" smooth="yes"/>
      <point x="319" y="205"/>
      <point x="317" y="190"/>
      <point x="314" y="176" type="curve"/>
      <point x="277" y="195"/>
      <point x="232" y="204"/>
      <point x="173" y="204" type="curve" smooth="yes"/>
      <point x="128" y="204"/>
      <point x="90" y="197"/>
      <point x="59" y="183" type="curve" smooth="yes"/>
      <point x="22" y="167"/>
      <point x="3" y="143"/>
      <point x="0" y="110" type="curve" smooth="yes"/>
      <point x="-3" y="73"/>
      <point x="15" y="45"/>
      <point x="52" y="25" type="curve" smooth="yes"/>
      <point x="83" y="8"/>
      <point x="124" y="-1"/>
      <point x="173" y="-1" type="curve" smooth="yes"/>
      <point x="232" y="-1"/>
      <point x="283" y="20"/>
      <point x="326" y="62" type="curve"/>
      <point x="329" y="45"/>
      <point x="331" y="31"/>
      <point x="330" y="16" type="curve"/>
      <point x="327" y="4"/>
      <point x="327" y="-4"/>
      <point x="324" y="-9" type="curve"/>
      <point x="413" y="-9" type="line"/>
      <point x="416" y="-4"/>
      <point x="416" y="3"/>
    </contour>
    <contour>
      <point x="292" y="117" type="curve"/>
      <point x="269" y="72"/>
      <point x="231" y="50"/>
      <point x="178" y="50" type="curve" smooth="yes"/>
      <point x="122" y="50"/>
      <point x="96" y="70"/>
      <point x="99" y="109" type="curve" smooth="yes"/>
      <point x="100" y="126"/>
      <point x="109" y="139"/>
      <point x="127" y="148" type="curve" smooth="yes"/>
      <point x="142" y="156"/>
      <point x="158" y="160"/>
      <point x="177" y="160" type="curve" smooth="yes"/>
      <point x="229" y="160"/>
      <point x="267" y="146"/>
    </contour>
  </outline>
</glyph>
<glyph name="U0C08" format="1">
  <advance width="699"/>
  <unicode hex="0C08"/>
  <outline>
    <contour>
      <point x="644" y="109" type="curve" smooth="yes" name="hr00"/>
      <point x="647" y="156"/>
      <point x="635" y="187"/>
      <point x="607" y="201" type="curve"/>
      <point x="620" y="222"/>
      <point x="627" y="244"/>
      <point x="629" y="265" type="curve" smooth="yes"/>
      <point x="631" y="292"/>
      <point x="622" y="311"/>
      <point x="604" y="326" type="curve" smooth="yes"/>
      <point x="588" y="338"/>
      <point x="570" y="345"/>
      <point x="547" y="345" type="curve" smooth="yes"/>
      <point x="518" y="345"/>
      <point x="494" y="338"/>
      <point x="476" y="323" type="curve"/>
      <point x="474" y="273" type="line"/>
      <point x="481" y="277"/>
      <point x="487" y="282"/>
      <point x="492" y="287" type="curve" smooth="yes"/>
      <point x="501" y="294"/>
      <point x="511" y="298"/>
      <point x="521" y="298" type="curve"/>
      <point x="546" y="301"/>
      <point x="565" y="283"/>
      <point x="564" y="252" type="curve" smooth="yes"/>
      <point x="563" y="237"/>
      <point x="555" y="223"/>
      <point x="540" y="212" type="curve"/>
      <point x="434" y="212" type="line"/>
      <point x="433" y="273"/>
      <point x="404" y="314"/>
      <point x="347" y="336" type="curve"/>
      <point x="348" y="337"/>
      <point x="361" y="353"/>
      <point x="386" y="386" type="curve" smooth="yes"/>
      <point x="399" y="403"/>
      <point x="413" y="412"/>
      <point x="428" y="412" type="curve" smooth="yes"/>
      <point x="437" y="412"/>
      <point x="443" y="411"/>
      <point x="446" y="408" type="curve"/>
      <point x="449" y="450" type="line"/>
      <point x="442" y="453"/>
      <point x="430" y="455"/>
      <point x="414" y="455" type="curve" smooth="yes"/>
      <point x="383" y="455"/>
      <point x="355" y="444"/>
      <point x="331" y="421" type="curve"/>
      <point x="296" y="377" type="line" smooth="yes"/>
      <point x="284" y="362"/>
      <point x="271" y="352"/>
      <point x="256" y="348" type="curve"/>
      <point x="253" y="348" type="line" smooth="yes"/>
      <point x="248" y="348"/>
      <point x="238" y="347"/>
      <point x="223" y="345" type="curve"/>
      <point x="193" y="347"/>
      <point x="178" y="359"/>
      <point x="178" y="382" type="curve" smooth="yes"/>
      <point x="178" y="386"/>
      <point x="179" y="390"/>
      <point x="180" y="393" type="curve"/>
      <point x="85" y="393" type="line"/>
      <point x="80" y="380"/>
      <point x="80" y="366"/>
      <point x="85" y="351" type="curve"/>
      <point x="88" y="338"/>
      <point x="104" y="325"/>
      <point x="133" y="312" type="curve"/>
      <point x="99" y="290"/>
      <point x="77" y="257"/>
      <point x="68" y="212" type="curve"/>
      <point x="4" y="212" type="line"/>
      <point x="0" y="156" type="line"/>
      <point x="60" y="156" type="line"/>
      <point x="59" y="106"/>
      <point x="76" y="67"/>
      <point x="110" y="38" type="curve" smooth="yes"/>
      <point x="142" y="12"/>
      <point x="185" y="-1"/>
      <point x="240" y="-1" type="curve" smooth="yes"/>
      <point x="285" y="-1"/>
      <point x="323" y="10"/>
      <point x="355" y="32" type="curve" smooth="yes"/>
      <point x="394" y="58"/>
      <point x="419" y="99"/>
      <point x="430" y="156" type="curve"/>
      <point x="462" y="156" type="line"/>
      <point x="449" y="145"/>
      <point x="440" y="128"/>
      <point x="439" y="107" type="curve" smooth="yes"/>
      <point x="437" y="78"/>
      <point x="444" y="54"/>
      <point x="457" y="35" type="curve" smooth="yes"/>
      <point x="472" y="14"/>
      <point x="495" y="3"/>
      <point x="526" y="3" type="curve" smooth="yes"/>
      <point x="559" y="3"/>
      <point x="586" y="14"/>
      <point x="609" y="37" type="curve" smooth="yes"/>
      <point x="631" y="58"/>
      <point x="643" y="82"/>
    </contour>
    <contour>
      <point x="160" y="212" type="line"/>
      <point x="169" y="259"/>
      <point x="190" y="288"/>
      <point x="223" y="299" type="curve"/>
      <point x="258" y="303" type="line"/>
      <point x="317" y="302"/>
      <point x="348" y="272"/>
      <point x="351" y="212" type="curve"/>
    </contour>
    <contour>
      <point x="573" y="112" type="curve" smooth="yes"/>
      <point x="570" y="72"/>
      <point x="559" y="52"/>
      <point x="538" y="52" type="curve" smooth="yes"/>
      <point x="514" y="52"/>
      <point x="504" y="72"/>
      <point x="507" y="111" type="curve" smooth="yes"/>
      <point x="508" y="132"/>
      <point x="517" y="147"/>
      <point x="532" y="156" type="curve"/>
      <point x="561" y="156"/>
      <point x="575" y="141"/>
    </contour>
    <contour>
      <point x="348" y="156" type="line"/>
      <point x="339" y="87"/>
      <point x="304" y="52"/>
      <point x="245" y="52" type="curve" smooth="yes"/>
      <point x="182" y="52"/>
      <point x="151" y="87"/>
      <point x="154" y="156" type="curve"/>
    </contour>
  </outline>
</glyph>
<glyph name="U0C09" format="1">
  <advance width="496"/>
  <unicode hex="0C09"/>
  <outline>
    <contour>
      <point x="298" y="468" type="curve" smooth="yes" name="hr00"/>
      <point x="300" y="501"/>
      <point x="288" y="518"/>
      <point x="261" y="518" type="curve" smooth="yes"/>
      <point x="235" y="518"/>
      <point x="221" y="503"/>
      <point x="218" y="474" type="curve"/>
      <point x="218" y="450"/>
      <point x="228" y="424"/>
      <point x="253" y="393" type="curve"/>
      <point x="280" y="426"/>
      <point x="297" y="452"/>
    </contour>
    <contour>
      <point x="439" y="150" type="curve" smooth="yes"/>
      <point x="444" y="223"/>
      <point x="415" y="259"/>
      <point x="353" y="259" type="curve" smooth="yes"/>
      <point x="330" y="259"/>
      <point x="309" y="253"/>
      <point x="292" y="242" type="curve" smooth="yes"/>
      <point x="274" y="230"/>
      <point x="265" y="212"/>
      <point x="263" y="188" type="curve" smooth="yes"/>
      <point x="261" y="164"/>
      <point x="265" y="144"/>
      <point x="281" y="131" type="curve" smooth="yes"/>
      <point x="294" y="119"/>
      <point x="310" y="113"/>
      <point x="331" y="113" type="curve" smooth="yes"/>
      <point x="344" y="113"/>
      <point x="356" y="116"/>
      <point x="368" y="121" type="curve"/>
      <point x="362" y="75"/>
      <point x="343" y="52"/>
      <point x="310" y="52" type="curve" smooth="yes"/>
      <point x="275" y="52"/>
      <point x="261" y="72"/>
      <point x="263" y="113" type="curve" smooth="yes"/>
      <point x="265" y="150" type="line"/>
      <point x="194" y="150" type="line"/>
      <point x="190" y="105" type="line" smooth="yes"/>
      <point x="187" y="71"/>
      <point x="176" y="54"/>
      <point x="156" y="54" type="curve" smooth="yes"/>
      <point x="129" y="54"/>
      <point x="116" y="81"/>
      <point x="116" y="135" type="curve" smooth="yes"/>
      <point x="116" y="155"/>
      <point x="115" y="187"/>
      <point x="118" y="195" type="curve"/>
      <point x="243" y="195" type="line"/>
      <point x="247" y="250" type="line"/>
      <point x="132" y="250" type="line"/>
      <point x="157" y="309"/>
      <point x="196" y="338"/>
      <point x="247" y="338" type="curve" smooth="yes"/>
      <point x="278" y="338"/>
      <point x="301" y="332"/>
      <point x="314" y="320" type="curve" smooth="yes"/>
      <point x="327" y="307"/>
      <point x="331" y="287"/>
      <point x="334" y="282" type="curve"/>
      <point x="416" y="282" type="line"/>
      <point x="418" y="303"/>
      <point x="408" y="323"/>
      <point x="385" y="342" type="curve" smooth="yes"/>
      <point x="355" y="367"/>
      <point x="311" y="380"/>
      <point x="252" y="380" type="curve" smooth="yes"/>
      <point x="211" y="380"/>
      <point x="171" y="368"/>
      <point x="133" y="345" type="curve" smooth="yes"/>
      <point x="92" y="320"/>
      <point x="66" y="289"/>
      <point x="53" y="250" type="curve"/>
      <point x="3" y="250" type="line"/>
      <point x="0" y="195" type="line"/>
      <point x="39" y="195" type="line"/>
      <point x="38" y="180"/>
      <point x="37" y="168"/>
      <point x="37" y="155" type="curve" smooth="yes"/>
      <point x="37" y="96"/>
      <point x="48" y="54"/>
      <point x="70" y="29" type="curve" smooth="yes"/>
      <point x="87" y="10"/>
      <point x="111" y="0"/>
      <point x="144" y="0" type="curve" smooth="yes"/>
      <point x="171" y="0"/>
      <point x="196" y="13"/>
      <point x="221" y="38" type="curve"/>
      <point x="234" y="22"/>
      <point x="245" y="12"/>
      <point x="252" y="8" type="curve" smooth="yes"/>
      <point x="263" y="2"/>
      <point x="280" y="-1"/>
      <point x="301" y="-1" type="curve" smooth="yes"/>
      <point x="336" y="-1"/>
      <point x="367" y="13"/>
      <point x="394" y="42" type="curve" smooth="yes"/>
      <point x="422" y="73"/>
      <point x="436" y="109"/>
    </contour>
    <contour>
      <point x="370" y="190" type="curve" smooth="yes"/>
      <point x="368" y="167"/>
      <point x="361" y="155"/>
      <point x="348" y="155" type="curve" smooth="yes"/>
      <point x="335" y="155"/>
      <point x="330" y="165"/>
      <point x="331" y="186" type="curve" smooth="yes"/>
      <point x="332" y="208"/>
      <point x="338" y="219"/>
      <point x="351" y="219" type="curve" smooth="yes"/>
      <point x="364" y="219"/>
      <point x="371" y="209"/>
    </contour>
  </outline>
</glyph>
<glyph name="U0C0A" format="1">
  <advance width="719"/>
  <unicode hex="0C0A"/>
  <outline>
    <contour>
      <point x="349" y="457" type="curve" smooth="yes" name="hr00"/>
      <point x="352" y="492"/>
      <point x="340" y="509"/>
      <point x="313" y="509" type="curve" smooth="yes"/>
      <point x="287" y="509"/>
      <point x="273" y="493"/>
      <point x="271" y="462" type="curve" smooth="yes"/>
      <point x="270" y="438"/>
      <point x="282" y="411"/>
      <point x="309" y="382" type="curve"/>
      <point x="335" y="416"/>
      <point x="348" y="441"/>
    </contour>
    <contour>
      <point x="254" y="457" type="curve" smooth="yes"/>
      <point x="257" y="492"/>
      <point x="245" y="509"/>
      <point x="218" y="509" type="curve" smooth="yes"/>
      <point x="191" y="509"/>
      <point x="177" y="493"/>
      <point x="175" y="462" type="curve" smooth="yes"/>
      <point x="174" y="439"/>
      <point x="186" y="413"/>
      <point x="213" y="382" type="curve"/>
      <point x="239" y="416"/>
      <point x="253" y="441"/>
    </contour>
    <contour>
      <point x="664" y="152" type="curve" smooth="yes"/>
      <point x="667" y="193"/>
      <point x="654" y="224"/>
      <point x="625" y="243" type="curve"/>
      <point x="642" y="254"/>
      <point x="652" y="272"/>
      <point x="654" y="297" type="curve" smooth="yes"/>
      <point x="658" y="350"/>
      <point x="634" y="377"/>
      <point x="581" y="377" type="curve" smooth="yes"/>
      <point x="555" y="377"/>
      <point x="532" y="371"/>
      <point x="511" y="360" type="curve"/>
      <point x="508" y="314" type="line"/>
      <point x="532" y="326" type="line"/>
      <point x="544" y="329"/>
      <point x="547" y="330"/>
      <point x="559" y="330" type="curve" smooth="yes"/>
      <point x="582" y="330"/>
      <point x="593" y="317"/>
      <point x="591" y="291" type="curve" smooth="yes"/>
      <point x="590" y="275"/>
      <point x="583" y="263"/>
      <point x="574" y="254" type="curve"/>
      <point x="133" y="254" type="line"/>
      <point x="158" y="313"/>
      <point x="198" y="342"/>
      <point x="252" y="342" type="curve" smooth="yes"/>
      <point x="310" y="342"/>
      <point x="339" y="321"/>
      <point x="338" y="279" type="curve"/>
      <point x="426" y="279" type="line"/>
      <point x="427" y="306"/>
      <point x="416" y="330"/>
      <point x="388" y="348" type="curve" smooth="yes"/>
      <point x="358" y="368"/>
      <point x="313" y="377"/>
      <point x="257" y="377" type="curve" smooth="yes"/>
      <point x="206" y="377"/>
      <point x="162" y="365"/>
      <point x="127" y="342" type="curve" smooth="yes"/>
      <point x="93" y="320"/>
      <point x="69" y="291"/>
      <point x="55" y="254" type="curve"/>
      <point x="3" y="254" type="line"/>
      <point x="0" y="205" type="line"/>
      <point x="43" y="205" type="line"/>
      <point x="42" y="194" type="line" smooth="yes"/>
      <point x="41" y="182"/>
      <point x="40" y="171"/>
      <point x="40" y="160" type="curve" smooth="yes"/>
      <point x="40" y="101"/>
      <point x="54" y="58"/>
      <point x="80" y="30" type="curve" smooth="yes"/>
      <point x="99" y="11"/>
      <point x="122" y="0"/>
      <point x="151" y="0" type="curve" smooth="yes"/>
      <point x="184" y="0"/>
      <point x="210" y="13"/>
      <point x="230" y="39" type="curve"/>
      <point x="243" y="22"/>
      <point x="253" y="12"/>
      <point x="259" y="8" type="curve" smooth="yes"/>
      <point x="269" y="2"/>
      <point x="283" y="-1"/>
      <point x="302" y="-1" type="curve" smooth="yes"/>
      <point x="338" y="-1"/>
      <point x="370" y="13"/>
      <point x="398" y="41" type="curve" smooth="yes"/>
      <point x="427" y="70"/>
      <point x="443" y="106"/>
      <point x="446" y="151" type="curve" smooth="yes"/>
      <point x="447" y="170"/>
      <point x="444" y="188"/>
      <point x="438" y="205" type="curve"/>
      <point x="493" y="205" type="line"/>
      <point x="483" y="193"/>
      <point x="476" y="177"/>
      <point x="475" y="157" type="curve" smooth="yes"/>
      <point x="470" y="92"/>
      <point x="497" y="59"/>
      <point x="552" y="59" type="curve" smooth="yes"/>
      <point x="585" y="59"/>
      <point x="613" y="69"/>
      <point x="634" y="89" type="curve" smooth="yes"/>
      <point x="652" y="107"/>
      <point x="662" y="128"/>
    </contour>
    <contour>
      <point x="377" y="177" type="curve" smooth="yes"/>
      <point x="375" y="158"/>
      <point x="369" y="149"/>
      <point x="358" y="149" type="curve" smooth="yes"/>
      <point x="348" y="149"/>
      <point x="343" y="158"/>
      <point x="343" y="176" type="curve" smooth="yes"/>
      <point x="344" y="195"/>
      <point x="350" y="205"/>
      <point x="360" y="205" type="curve" smooth="yes"/>
      <point x="372" y="205"/>
      <point x="378" y="196"/>
    </contour>
    <contour>
      <point x="591" y="157" type="curve" smooth="yes"/>
      <point x="588" y="125"/>
      <point x="578" y="109"/>
      <point x="563" y="109" type="curve" smooth="yes"/>
      <point x="544" y="109"/>
      <point x="537" y="125"/>
      <point x="539" y="156" type="curve" smooth="yes"/>
      <point x="541" y="176"/>
      <point x="548" y="192"/>
      <point x="561" y="205" type="curve"/>
      <point x="584" y="205"/>
      <point x="594" y="189"/>
    </contour>
    <contour>
      <point x="369" y="116" type="curve"/>
      <point x="366" y="100"/>
      <point x="359" y="86"/>
      <point x="348" y="73" type="curve" smooth="yes"/>
      <point x="335" y="56"/>
      <point x="321" y="48"/>
      <point x="306" y="48" type="curve" smooth="yes"/>
      <point x="275" y="48"/>
      <point x="263" y="71"/>
      <point x="266" y="116" type="curve" smooth="yes"/>
      <point x="269" y="160" type="line"/>
      <point x="199" y="160" type="line"/>
      <point x="196" y="116" type="line" smooth="yes"/>
      <point x="193" y="75"/>
      <point x="182" y="55"/>
      <point x="161" y="55" type="curve" smooth="yes"/>
      <point x="128" y="55"/>
      <point x="112" y="86"/>
      <point x="112" y="148" type="curve" smooth="yes"/>
      <point x="112" y="163"/>
      <point x="115" y="182"/>
      <point x="118" y="205" type="curve"/>
      <point x="283" y="205" type="line"/>
      <point x="278" y="193"/>
      <point x="276" y="182"/>
      <point x="275" y="173" type="curve" smooth="yes"/>
      <point x="274" y="153"/>
      <point x="279" y="136"/>
      <point x="292" y="123" type="curve" smooth="yes"/>
      <point x="304" y="112"/>
      <point x="316" y="106"/>
      <point x="333" y="106" type="curve" smooth="yes"/>
      <point x="360" y="106"/>
      <point x="362" y="112"/>
    </contour>
  </outline>
</glyph>
<glyph name="U0C0B" format="1">
  <advance width="821"/>
  <unicode hex="0C0B"/>
  <outline>
    <contour>
      <point x="770" y="167" type="curve" smooth="yes" name="hr00"/>
      <point x="771" y="176"/>
      <point x="771" y="187"/>
      <point x="771" y="195" type="curve" smooth="yes"/>
      <point x="771" y="298"/>
      <point x="729" y="350"/>
      <point x="646" y="350" type="curve" smooth="yes"/>
      <point x="635" y="350"/>
      <point x="624" y="348"/>
      <point x="612" y="347" type="curve"/>
      <point x="608" y="293" type="line"/>
      <point x="615" y="297"/>
      <point x="616" y="304"/>
      <point x="631" y="304" type="curve" smooth="yes"/>
      <point x="666" y="305"/>
      <point x="683" y="273"/>
      <point x="683" y="212" type="curve" smooth="yes"/>
      <point x="683" y="200"/>
      <point x="682" y="187"/>
      <point x="681" y="175" type="curve" smooth="yes"/>
      <point x="674" y="97"/>
      <point x="656" y="58"/>
      <point x="625" y="58" type="curve" smooth="yes"/>
      <point x="600" y="58"/>
      <point x="587" y="72"/>
      <point x="587" y="99" type="curve" smooth="yes"/>
      <point x="587" y="110"/>
      <point x="590" y="138"/>
      <point x="591" y="149" type="curve" smooth="yes"/>
      <point x="592" y="159"/>
      <point x="593" y="174"/>
      <point x="593" y="195" type="curve" smooth="yes"/>
      <point x="593" y="298"/>
      <point x="552" y="350"/>
      <point x="469" y="350" type="curve" smooth="yes"/>
      <point x="460" y="350"/>
      <point x="448" y="348"/>
      <point x="435" y="347" type="curve"/>
      <point x="432" y="297" type="line"/>
      <point x="441" y="300"/>
      <point x="442" y="304"/>
      <point x="455" y="304" type="curve" smooth="yes"/>
      <point x="488" y="305"/>
      <point x="505" y="273"/>
      <point x="505" y="212" type="curve" smooth="yes"/>
      <point x="505" y="201"/>
      <point x="505" y="188"/>
      <point x="504" y="175" type="curve" smooth="yes"/>
      <point x="498" y="97"/>
      <point x="479" y="58"/>
      <point x="447" y="58" type="curve" smooth="yes"/>
      <point x="420" y="58"/>
      <point x="403" y="75"/>
      <point x="404" y="110" type="curve" smooth="yes"/>
      <point x="405" y="161" type="line"/>
      <point x="396" y="203" type="line" smooth="yes"/>
      <point x="395" y="207"/>
      <point x="395" y="213"/>
      <point x="394" y="221" type="curve"/>
      <point x="359" y="80" type="line"/>
      <point x="360" y="64"/>
      <point x="365" y="49"/>
      <point x="376" y="34" type="curve" smooth="yes"/>
      <point x="393" y="11"/>
      <point x="417" y="0"/>
      <point x="450" y="0" type="curve" smooth="yes"/>
      <point x="492" y="0"/>
      <point x="526" y="16"/>
      <point x="552" y="47" type="curve"/>
      <point x="564" y="16"/>
      <point x="589" y="0"/>
      <point x="628" y="0" type="curve" smooth="yes"/>
      <point x="707" y="0"/>
      <point x="762" y="60"/>
    </contour>
    <contour>
      <point x="407" y="182" type="curve" smooth="yes"/>
      <point x="410" y="231"/>
      <point x="402" y="272"/>
      <point x="378" y="303" type="curve" smooth="yes"/>
      <point x="356" y="333"/>
      <point x="328" y="348"/>
      <point x="293" y="348" type="curve" smooth="yes"/>
      <point x="281" y="348"/>
      <point x="274" y="349"/>
      <point x="259" y="345" type="curve"/>
      <point x="256" y="294" type="line"/>
      <point x="265" y="299"/>
      <point x="272" y="301"/>
      <point x="281" y="301" type="curve" smooth="yes"/>
      <point x="292" y="301"/>
      <point x="303" y="294"/>
      <point x="312" y="281" type="curve" smooth="yes"/>
      <point x="325" y="263"/>
      <point x="330" y="237"/>
      <point x="330" y="204" type="curve" smooth="yes"/>
      <point x="330" y="175"/>
      <point x="326" y="146"/>
      <point x="318" y="115" type="curve" smooth="yes"/>
      <point x="307" y="74"/>
      <point x="290" y="54"/>
      <point x="269" y="54" type="curve" smooth="yes"/>
      <point x="246" y="54"/>
      <point x="232" y="78"/>
      <point x="234" y="109" type="curve" smooth="yes"/>
      <point x="236" y="138" type="line"/>
      <point x="167" y="138" type="line"/>
      <point x="165" y="107" type="line" smooth="yes"/>
      <point x="162" y="68"/>
      <point x="148" y="49"/>
      <point x="124" y="49" type="curve" smooth="yes"/>
      <point x="112" y="49"/>
      <point x="103" y="56"/>
      <point x="97" y="69" type="curve"/>
      <point x="91" y="79"/>
      <point x="89" y="93"/>
      <point x="90" y="110" type="curve" smooth="yes"/>
      <point x="93" y="146"/>
      <point x="101" y="166"/>
      <point x="136" y="171" type="curve" smooth="yes"/>
      <point x="159" y="174"/>
      <point x="180" y="182"/>
      <point x="197" y="195" type="curve" smooth="yes"/>
      <point x="217" y="210"/>
      <point x="228" y="230"/>
      <point x="229" y="255" type="curve" smooth="yes"/>
      <point x="233" y="317"/>
      <point x="200" y="348"/>
      <point x="131" y="348" type="curve" smooth="yes"/>
      <point x="62" y="348"/>
      <point x="12" y="312"/>
      <point x="4" y="256" type="curve" smooth="yes"/>
      <point x="2" y="243"/>
      <point x="2" y="232"/>
      <point x="3" y="224" type="curve"/>
      <point x="89" y="224" type="line"/>
      <point x="88" y="239"/>
      <point x="89" y="249"/>
      <point x="89" y="261" type="curve"/>
      <point x="92" y="281"/>
      <point x="106" y="300"/>
      <point x="121" y="300" type="curve" smooth="yes"/>
      <point x="141" y="300"/>
      <point x="150" y="286"/>
      <point x="149" y="259" type="curve" smooth="yes"/>
      <point x="148" y="241"/>
      <point x="141" y="228"/>
      <point x="128" y="219" type="curve" smooth="yes"/>
      <point x="117" y="212"/>
      <point x="97" y="208"/>
      <point x="70" y="204" type="curve" smooth="yes"/>
      <point x="51" y="202"/>
      <point x="36" y="193"/>
      <point x="23" y="182" type="curve" smooth="yes"/>
      <point x="3" y="166"/>
      <point x="3" y="145"/>
      <point x="0" y="116" type="curve" smooth="yes"/>
      <point x="-3" y="78"/>
      <point x="6" y="49"/>
      <point x="27" y="28" type="curve" smooth="yes"/>
      <point x="46" y="9"/>
      <point x="71" y="-1"/>
      <point x="103" y="-1" type="curve" smooth="yes"/>
      <point x="143" y="-1"/>
      <point x="183" y="14"/>
      <point x="199" y="41" type="curve"/>
      <point x="208" y="12"/>
      <point x="230" y="-1"/>
      <point x="259" y="-1" type="curve" smooth="yes"/>
      <point x="347" y="-1"/>
      <point x="400" y="74"/>
    </contour>
  </outline>
</glyph>
<glyph name="U0C0C" format="1">
  <advance width="546"/>
  <unicode hex="0C0C"/>
  <outline>
    <contour>
      <point x="450" y="-131" type="curve" smooth="yes" name="hr00"/>
      <point x="520" y="-42"/>
      <point x="500" y="113"/>
      <point x="421" y="113" type="curve"/>
      <point x="421" y="47" type="line"/>
      <point x="449" y="47"/>
      <point x="427" y="-50"/>
      <point x="401" y="-86" type="curve" smooth="yes"/>
      <point x="385" y="-107"/>
      <point x="338" y="-169"/>
      <point x="219" y="-169" type="curve" smooth="yes"/>
      <point x="185" y="-169"/>
      <point x="131" y="-132"/>
      <point x="131" y="-92" type="curve" smooth="yes"/>
      <point x="131" y="-75"/>
      <point x="131" y="-34"/>
      <point x="191" y="-11" type="curve" smooth="yes"/>
      <point x="318" y="38"/>
      <point x="428" y="70"/>
      <point x="428" y="208" type="curve" smooth="yes"/>
      <point x="428" y="286"/>
      <point x="389" y="358"/>
      <point x="296" y="358" type="curve" smooth="yes"/>
      <point x="254" y="358"/>
      <point x="225" y="342"/>
      <point x="209" y="311" type="curve"/>
      <point x="196" y="340"/>
      <point x="165" y="358"/>
      <point x="122" y="358" type="curve" smooth="yes"/>
      <point x="46" y="358"/>
      <point x="-12" y="282"/>
      <point x="1" y="192" type="curve"/>
      <point x="88" y="192" type="line"/>
      <point x="73" y="225"/>
      <point x="79" y="301"/>
      <point x="126" y="301" type="curve" smooth="yes"/>
      <point x="157" y="301"/>
      <point x="168" y="266"/>
      <point x="166" y="233" type="curve" smooth="yes"/>
      <point x="164" y="205" type="line"/>
      <point x="246" y="205" type="line"/>
      <point x="247" y="228" type="line" smooth="yes"/>
      <point x="248" y="257"/>
      <point x="264" y="297"/>
      <point x="292" y="297" type="curve" smooth="yes"/>
      <point x="324" y="297"/>
      <point x="346" y="277"/>
      <point x="346" y="208" type="curve" smooth="yes"/>
      <point x="346" y="116"/>
      <point x="264" y="88"/>
      <point x="184" y="60" type="curve" smooth="yes"/>
      <point x="128" y="40"/>
      <point x="33" y="6"/>
      <point x="33" y="-93" type="curve" smooth="yes"/>
      <point x="33" y="-171"/>
      <point x="131" y="-233"/>
      <point x="219" y="-233" type="curve" smooth="yes"/>
      <point x="344" y="-233"/>
      <point x="415" y="-174"/>
    </contour>
  </outline>
</glyph>
<glyph name="U0C0F" format="1">
  <advance width="439"/>
  <unicode hex="0C0F"/>
  <outline>
    <contour>
      <point x="255" y="478" type="line" name="hr00"/>
      <point x="236" y="479"/>
      <point x="220" y="479"/>
      <point x="211" y="479" type="curve" smooth="yes"/>
      <point x="164" y="479"/>
      <point x="123" y="466"/>
      <point x="87" y="439" type="curve" smooth="yes"/>
      <point x="66" y="423"/>
      <point x="49" y="399"/>
      <point x="38" y="364" type="curve" smooth="yes"/>
      <point x="29" y="335"/>
      <point x="27" y="313"/>
      <point x="30" y="297" type="curve"/>
      <point x="109" y="297" type="line"/>
      <point x="104" y="346"/>
      <point x="118" y="386"/>
      <point x="150" y="415" type="curve" smooth="yes"/>
      <point x="168" y="432"/>
      <point x="193" y="440"/>
      <point x="225" y="440" type="curve" smooth="yes"/>
      <point x="236" y="440"/>
      <point x="244" y="439"/>
      <point x="252" y="439" type="curve"/>
    </contour>
    <contour>
      <point x="388" y="188" type="curve" smooth="yes"/>
      <point x="389" y="199"/>
      <point x="389" y="210"/>
      <point x="389" y="219" type="curve" smooth="yes"/>
      <point x="389" y="300"/>
      <point x="368" y="353"/>
      <point x="325" y="377" type="curve" smooth="yes"/>
      <point x="307" y="387"/>
      <point x="256" y="392"/>
      <point x="173" y="392" type="curve"/>
      <point x="171" y="356" type="line"/>
      <point x="210" y="359"/>
      <point x="235" y="358"/>
      <point x="246" y="351" type="curve" smooth="yes"/>
      <point x="281" y="329"/>
      <point x="298" y="283"/>
      <point x="298" y="214" type="curve" smooth="yes"/>
      <point x="298" y="205"/>
      <point x="298" y="193"/>
      <point x="297" y="184" type="curve" smooth="yes"/>
      <point x="291" y="96"/>
      <point x="271" y="52"/>
      <point x="236" y="52" type="curve" smooth="yes"/>
      <point x="225" y="52"/>
      <point x="218" y="54"/>
      <point x="215" y="58" type="curve" smooth="yes"/>
      <point x="210" y="63"/>
      <point x="207" y="75"/>
      <point x="207" y="92" type="curve"/>
      <point x="209" y="99"/>
      <point x="210" y="104"/>
      <point x="210" y="107" type="curve" smooth="yes"/>
      <point x="215" y="176"/>
      <point x="184" y="211"/>
      <point x="116" y="211" type="curve" smooth="yes"/>
      <point x="57" y="211"/>
      <point x="6" y="167"/>
      <point x="1" y="106" type="curve" smooth="yes"/>
      <point x="-2" y="69"/>
      <point x="7" y="41"/>
      <point x="26" y="23" type="curve" smooth="yes"/>
      <point x="42" y="7"/>
      <point x="65" y="-1"/>
      <point x="94" y="-1" type="curve" smooth="yes"/>
      <point x="120" y="-1"/>
      <point x="144" y="7"/>
      <point x="166" y="23" type="curve"/>
      <point x="178" y="7"/>
      <point x="197" y="-1"/>
      <point x="224" y="-1" type="curve" smooth="yes"/>
      <point x="267" y="-1"/>
      <point x="303" y="14"/>
      <point x="332" y="45" type="curve" smooth="yes"/>
      <point x="365" y="80"/>
      <point x="384" y="128"/>
    </contour>
    <contour>
      <point x="137" y="107" type="curve" smooth="yes"/>
      <point x="134" y="70"/>
      <point x="125" y="52"/>
      <point x="109" y="52" type="curve" smooth="yes"/>
      <point x="89" y="52"/>
      <point x="80" y="70"/>
      <point x="81" y="105" type="curve" smooth="yes"/>
      <point x="82" y="145"/>
      <point x="94" y="165"/>
      <point x="115" y="165" type="curve" smooth="yes"/>
      <point x="132" y="165"/>
      <point x="140" y="146"/>
    </contour>
  </outline>
</glyph>
<glyph name="U0C10" format="1">
  <advance width="462"/>
  <unicode hex="0C10"/>
  <outline>
    <contour>
      <point x="382" y="68" type="curve" smooth="yes" name="hr00"/>
      <point x="402" y="100"/>
      <point x="412" y="145"/>
      <point x="412" y="204" type="curve" smooth="yes"/>
      <point x="412" y="245"/>
      <point x="405" y="278"/>
      <point x="388" y="303" type="curve" smooth="yes"/>
      <point x="366" y="336"/>
      <point x="333" y="352"/>
      <point x="291" y="352" type="curve" smooth="yes"/>
      <point x="253" y="352"/>
      <point x="225" y="337"/>
      <point x="207" y="308" type="curve"/>
      <point x="185" y="337"/>
      <point x="159" y="352"/>
      <point x="128" y="352" type="curve" smooth="yes"/>
      <point x="94" y="352"/>
      <point x="67" y="342"/>
      <point x="46" y="321" type="curve" smooth="yes"/>
      <point x="21" y="298"/>
      <point x="7" y="266"/>
      <point x="4" y="226" type="curve"/>
      <point x="87" y="226" type="line"/>
      <point x="88" y="250"/>
      <point x="85" y="267"/>
      <point x="97" y="284" type="curve" smooth="yes"/>
      <point x="104" y="294"/>
      <point x="113" y="299"/>
      <point x="125" y="299" type="curve" smooth="yes"/>
      <point x="141" y="299"/>
      <point x="151" y="294"/>
      <point x="156" y="284" type="curve" smooth="yes"/>
      <point x="159" y="277"/>
      <point x="159" y="265"/>
      <point x="158" y="248" type="curve" smooth="yes"/>
      <point x="157" y="233" type="line"/>
      <point x="236" y="233" type="line"/>
      <point x="238" y="253" type="line" smooth="yes"/>
      <point x="241" y="286"/>
      <point x="254" y="303"/>
      <point x="280" y="303" type="curve" smooth="yes"/>
      <point x="310" y="303"/>
      <point x="325" y="276"/>
      <point x="325" y="221" type="curve" smooth="yes"/>
      <point x="325" y="208"/>
      <point x="323" y="191"/>
      <point x="322" y="170" type="curve" smooth="yes"/>
      <point x="316" y="89"/>
      <point x="295" y="49"/>
      <point x="257" y="49" type="curve" smooth="yes"/>
      <point x="238" y="49"/>
      <point x="228" y="64"/>
      <point x="227" y="94" type="curve"/>
      <point x="228" y="99" type="line"/>
      <point x="233" y="167"/>
      <point x="197" y="201"/>
      <point x="122" y="201" type="curve" smooth="yes"/>
      <point x="58" y="201"/>
      <point x="6" y="160"/>
      <point x="1" y="99" type="curve" smooth="yes"/>
      <point x="-2" y="66"/>
      <point x="8" y="40"/>
      <point x="31" y="23" type="curve" smooth="yes"/>
      <point x="50" y="8"/>
      <point x="75" y="0"/>
      <point x="106" y="0" type="curve" smooth="yes"/>
      <point x="140" y="0"/>
      <point x="169" y="10"/>
      <point x="193" y="31" type="curve"/>
      <point x="210" y="10"/>
      <point x="231" y="0"/>
      <point x="258" y="0" type="curve" smooth="yes"/>
      <point x="312" y="0"/>
      <point x="353" y="23"/>
    </contour>
    <contour>
      <point x="139" y="95" type="curve" smooth="yes"/>
      <point x="136" y="64"/>
      <point x="127" y="48"/>
      <point x="111" y="48" type="curve" smooth="yes"/>
      <point x="92" y="48"/>
      <point x="86" y="63"/>
      <point x="88" y="93" type="curve" smooth="yes"/>
      <point x="91" y="129"/>
      <point x="99" y="147"/>
      <point x="115" y="147" type="curve" smooth="yes"/>
      <point x="134" y="147"/>
      <point x="142" y="130"/>
    </contour>
  </outline>
</glyph>
<glyph name="U0C12" format="1">
  <advance width="442"/>
  <unicode hex="0C12"/>
  <outline>
    <contour>
      <point x="391" y="112" type="curve" smooth="yes" name="hr00"/>
      <point x="392" y="124"/>
      <point x="393" y="139"/>
      <point x="390" y="156" type="curve"/>
      <point x="304" y="156" type="line"/>
      <point x="310" y="145"/>
      <point x="312" y="130"/>
      <point x="311" y="113" type="curve" smooth="yes"/>
      <point x="310" y="100"/>
      <point x="305" y="87"/>
      <point x="297" y="74" type="curve" smooth="yes"/>
      <point x="288" y="57"/>
      <point x="276" y="49"/>
      <point x="263" y="49" type="curve" smooth="yes"/>
      <point x="237" y="49"/>
      <point x="227" y="70"/>
      <point x="228" y="111" type="curve" smooth="yes"/>
      <point x="229" y="140" type="line"/>
      <point x="155" y="140" type="line"/>
      <point x="152" y="116" type="line" smooth="yes"/>
      <point x="147" y="73"/>
      <point x="136" y="52"/>
      <point x="113" y="52" type="curve" smooth="yes"/>
      <point x="90" y="52"/>
      <point x="81" y="72"/>
      <point x="84" y="111" type="curve" smooth="yes"/>
      <point x="87" y="148"/>
      <point x="112" y="173"/>
      <point x="151" y="173" type="curve" smooth="yes"/>
      <point x="170" y="173"/>
      <point x="188" y="178"/>
      <point x="204" y="188" type="curve" smooth="yes"/>
      <point x="227" y="203"/>
      <point x="239" y="225"/>
      <point x="241" y="255" type="curve" smooth="yes"/>
      <point x="245" y="317"/>
      <point x="209" y="348"/>
      <point x="132" y="348" type="curve" smooth="yes"/>
      <point x="59" y="348"/>
      <point x="11" y="303"/>
      <point x="6" y="234" type="curve"/>
      <point x="99" y="234" type="line"/>
      <point x="96" y="244"/>
      <point x="96" y="254"/>
      <point x="97" y="263" type="curve" smooth="yes"/>
      <point x="98" y="271"/>
      <point x="101" y="279"/>
      <point x="106" y="286" type="curve"/>
      <point x="115" y="295"/>
      <point x="124" y="300"/>
      <point x="134" y="300" type="curve" smooth="yes"/>
      <point x="155" y="300"/>
      <point x="165" y="286"/>
      <point x="162" y="259" type="curve" smooth="yes"/>
      <point x="159" y="228"/>
      <point x="140" y="212"/>
      <point x="105" y="212" type="curve" smooth="yes"/>
      <point x="80" y="212"/>
      <point x="56" y="205"/>
      <point x="37" y="189" type="curve" smooth="yes"/>
      <point x="15" y="172"/>
      <point x="4" y="147"/>
      <point x="1" y="116" type="curve" smooth="yes"/>
      <point x="-6" y="39"/>
      <point x="27" y="0"/>
      <point x="99" y="0" type="curve" smooth="yes"/>
      <point x="126" y="0"/>
      <point x="146" y="5"/>
      <point x="161" y="14" type="curve"/>
      <point x="187" y="38" type="line"/>
      <point x="212" y="13" type="line"/>
      <point x="223" y="4"/>
      <point x="241" y="0"/>
      <point x="264" y="0" type="curve" smooth="yes"/>
      <point x="343" y="0"/>
      <point x="386" y="37"/>
    </contour>
  </outline>
</glyph>
<glyph name="U0C13" format="1">
  <advance width="452"/>
  <unicode hex="0C13"/>
  <outline>
    <contour>
      <point x="401" y="112" type="curve" smooth="yes" name="hr00"/>
      <point x="402" y="124"/>
      <point x="403" y="139"/>
      <point x="400" y="156" type="curve"/>
      <point x="314" y="156" type="line"/>
      <point x="320" y="145"/>
      <point x="322" y="130"/>
      <point x="321" y="113" type="curve" smooth="yes"/>
      <point x="320" y="100"/>
      <point x="316" y="87"/>
      <point x="308" y="74" type="curve" smooth="yes"/>
      <point x="298" y="57"/>
      <point x="286" y="49"/>
      <point x="273" y="49" type="curve" smooth="yes"/>
      <point x="247" y="49"/>
      <point x="235" y="70"/>
      <point x="238" y="111" type="curve" smooth="yes"/>
      <point x="240" y="140" type="line"/>
      <point x="165" y="140" type="line"/>
      <point x="162" y="116" type="line" smooth="yes"/>
      <point x="157" y="73"/>
      <point x="146" y="52"/>
      <point x="123" y="52" type="curve" smooth="yes"/>
      <point x="100" y="52"/>
      <point x="91" y="72"/>
      <point x="94" y="111" type="curve" smooth="yes"/>
      <point x="97" y="148"/>
      <point x="122" y="173"/>
      <point x="161" y="173" type="curve" smooth="yes"/>
      <point x="180" y="173"/>
      <point x="198" y="178"/>
      <point x="214" y="188" type="curve" smooth="yes"/>
      <point x="237" y="203"/>
      <point x="250" y="225"/>
      <point x="252" y="255" type="curve" smooth="yes"/>
      <point x="256" y="303"/>
      <point x="233" y="332"/>
      <point x="186" y="343" type="curve"/>
      <point x="185" y="348"/>
      <point x="184" y="352"/>
      <point x="184" y="359" type="curve" smooth="yes"/>
      <point x="186" y="379"/>
      <point x="196" y="389"/>
      <point x="215" y="389" type="curve" smooth="yes"/>
      <point x="232" y="389"/>
      <point x="248" y="375"/>
      <point x="263" y="348" type="curve"/>
      <point x="263" y="422" type="line"/>
      <point x="248" y="440"/>
      <point x="230" y="449"/>
      <point x="209" y="449" type="curve" smooth="yes"/>
      <point x="155" y="449"/>
      <point x="126" y="421"/>
      <point x="121" y="365" type="curve" smooth="yes"/>
      <point x="120" y="357"/>
      <point x="120" y="350"/>
      <point x="120" y="347" type="curve"/>
      <point x="61" y="338"/>
      <point x="21" y="295"/>
      <point x="16" y="234" type="curve"/>
      <point x="110" y="234" type="line"/>
      <point x="107" y="244"/>
      <point x="106" y="254"/>
      <point x="107" y="263" type="curve" smooth="yes"/>
      <point x="108" y="271"/>
      <point x="111" y="279"/>
      <point x="116" y="286" type="curve"/>
      <point x="125" y="295"/>
      <point x="134" y="300"/>
      <point x="144" y="300" type="curve" smooth="yes"/>
      <point x="165" y="300"/>
      <point x="176" y="286"/>
      <point x="173" y="259" type="curve" smooth="yes"/>
      <point x="170" y="228"/>
      <point x="150" y="212"/>
      <point x="116" y="212" type="curve" smooth="yes"/>
      <point x="90" y="212"/>
      <point x="67" y="204"/>
      <point x="48" y="189" type="curve" smooth="yes"/>
      <point x="26" y="171"/>
      <point x="14" y="147"/>
      <point x="11" y="116" type="curve" smooth="yes"/>
      <point x="5" y="39"/>
      <point x="38" y="0"/>
      <point x="110" y="0" type="curve" smooth="yes"/>
      <point x="137" y="0"/>
      <point x="157" y="5"/>
      <point x="172" y="14" type="curve"/>
      <point x="197" y="38" type="line"/>
      <point x="222" y="13" type="line"/>
      <point x="234" y="4"/>
      <point x="252" y="0"/>
      <point x="275" y="0" type="curve" smooth="yes"/>
      <point x="354" y="0"/>
      <point x="396" y="37"/>
    </contour>
  </outline>
</glyph>
<glyph name="U0C14" format="1">
  <advance width="538"/>
  <unicode hex="0C14"/>
  <outline>
    <contour>
      <point x="484" y="343" type="curve" smooth="yes" name="hr00"/>
      <point x="486" y="372"/>
      <point x="480" y="397"/>
      <point x="465" y="418" type="curve" smooth="yes"/>
      <point x="451" y="436"/>
      <point x="433" y="445"/>
      <point x="411" y="445" type="curve" smooth="yes"/>
      <point x="40" y="445" type="line"/>
      <point x="37" y="398" type="line"/>
      <point x="169" y="398" type="line"/>
      <point x="184" y="395"/>
      <point x="191" y="386"/>
      <point x="190" y="371" type="curve" smooth="yes"/>
      <point x="189" y="361"/>
      <point x="184" y="353"/>
      <point x="173" y="348" type="curve"/>
      <point x="158" y="348" type="line"/>
      <point x="143" y="348" type="line" smooth="yes"/>
      <point x="71" y="348"/>
      <point x="22" y="304"/>
      <point x="17" y="233" type="curve"/>
      <point x="110" y="233" type="line"/>
      <point x="107" y="245"/>
      <point x="107" y="254"/>
      <point x="108" y="263" type="curve" smooth="yes"/>
      <point x="109" y="279"/>
      <point x="121" y="300"/>
      <point x="145" y="300" type="curve" smooth="yes"/>
      <point x="166" y="300"/>
      <point x="176" y="286"/>
      <point x="173" y="258" type="curve" smooth="yes"/>
      <point x="170" y="227"/>
      <point x="151" y="212"/>
      <point x="116" y="212" type="curve" smooth="yes"/>
      <point x="91" y="212"/>
      <point x="67" y="205"/>
      <point x="48" y="189" type="curve" smooth="yes"/>
      <point x="26" y="172"/>
      <point x="15" y="147"/>
      <point x="12" y="116" type="curve" smooth="yes"/>
      <point x="6" y="39"/>
      <point x="39" y="0"/>
      <point x="111" y="0" type="curve" smooth="yes"/>
      <point x="137" y="0"/>
      <point x="158" y="5"/>
      <point x="173" y="14" type="curve"/>
      <point x="198" y="38" type="line"/>
      <point x="223" y="14" type="line"/>
      <point x="236" y="5"/>
      <point x="253" y="0"/>
      <point x="276" y="0" type="curve" smooth="yes"/>
      <point x="355" y="0"/>
      <point x="397" y="37"/>
      <point x="402" y="111" type="curve" smooth="yes"/>
      <point x="403" y="123"/>
      <point x="403" y="138"/>
      <point x="402" y="156" type="curve"/>
      <point x="314" y="156" type="line"/>
      <point x="320" y="145"/>
      <point x="322" y="131"/>
      <point x="321" y="113" type="curve" smooth="yes"/>
      <point x="320" y="100"/>
      <point x="316" y="87"/>
      <point x="308" y="74" type="curve" smooth="yes"/>
      <point x="298" y="57"/>
      <point x="287" y="49"/>
      <point x="275" y="49" type="curve" smooth="yes"/>
      <point x="248" y="49"/>
      <point x="239" y="70"/>
      <point x="240" y="111" type="curve" smooth="yes"/>
      <point x="241" y="140" type="line"/>
      <point x="166" y="140" type="line"/>
      <point x="164" y="116" type="line" smooth="yes"/>
      <point x="160" y="73"/>
      <point x="147" y="52"/>
      <point x="124" y="52" type="curve" smooth="yes"/>
      <point x="102" y="52"/>
      <point x="93" y="72"/>
      <point x="96" y="111" type="curve" smooth="yes"/>
      <point x="99" y="148"/>
      <point x="123" y="173"/>
      <point x="162" y="173" type="curve" smooth="yes"/>
      <point x="218" y="173"/>
      <point x="248" y="200"/>
      <point x="252" y="255" type="curve" smooth="yes"/>
      <point x="255" y="286"/>
      <point x="247" y="310"/>
      <point x="227" y="327" type="curve"/>
      <point x="252" y="338"/>
      <point x="265" y="352"/>
      <point x="267" y="371" type="curve" smooth="yes"/>
      <point x="268" y="382"/>
      <point x="267" y="391"/>
      <point x="262" y="398" type="curve"/>
      <point x="382" y="398" type="line" smooth="yes"/>
      <point x="409" y="398"/>
      <point x="422" y="388"/>
      <point x="422" y="369" type="curve"/>
      <point x="407" y="378"/>
      <point x="396" y="382"/>
      <point x="383" y="382" type="curve" smooth="yes"/>
      <point x="358" y="382"/>
      <point x="338" y="376"/>
      <point x="321" y="364" type="curve" smooth="yes"/>
      <point x="300" y="349"/>
      <point x="289" y="329"/>
      <point x="287" y="303" type="curve" smooth="yes"/>
      <point x="286" y="284"/>
      <point x="291" y="267"/>
      <point x="304" y="252" type="curve" smooth="yes"/>
      <point x="319" y="235"/>
      <point x="341" y="226"/>
      <point x="368" y="226" type="curve" smooth="yes"/>
      <point x="439" y="226"/>
      <point x="477" y="265"/>
    </contour>
    <contour>
      <point x="405" y="302" type="curve" smooth="yes"/>
      <point x="404" y="276"/>
      <point x="396" y="263"/>
      <point x="382" y="263" type="curve" smooth="yes"/>
      <point x="366" y="263"/>
      <point x="358" y="275"/>
      <point x="360" y="300" type="curve" smooth="yes"/>
      <point x="362" y="327"/>
      <point x="371" y="341"/>
      <point x="385" y="341" type="curve" smooth="yes"/>
      <point x="400" y="341"/>
      <point x="407" y="328"/>
    </contour>
  </outline>
</glyph>
<glyph name="U0C17" format="1">
  <advance width="455"/>
  <unicode hex="0C17"/>
  <outline>
    <contour>
      <point x="73" y="394" type="line" name="hr00"/>
      <point x="69" y="356"/>
      <point x="88" y="327"/>
      <point x="131" y="306" type="curve"/>
      <point x="142" y="302"/>
      <point x="154" y="298"/>
      <point x="170" y="298" type="curve" smooth="yes"/>
      <point x="187" y="298"/>
      <point x="201" y="301"/>
      <point x="214" y="308" type="curve"/>
      <point x="235" y="317"/>
      <point x="252" y="330"/>
      <point x="269" y="343" type="curve" smooth="yes"/>
      <point x="298" y="365"/>
      <point x="328" y="376"/>
      <point x="359" y="376" type="curve" smooth="yes"/>
      <point x="374" y="376"/>
      <point x="390" y="373"/>
      <point x="405" y="368" type="curve"/>
      <point x="404" y="368"/>
      <point x="397" y="381"/>
      <point x="382" y="408" type="curve" smooth="yes"/>
      <point x="366" y="437"/>
      <point x="356" y="461"/>
      <point x="351" y="479" type="curve"/>
      <point x="342" y="480"/>
      <point x="334" y="481"/>
      <point x="326" y="481" type="curve" smooth="yes"/>
      <point x="303" y="481"/>
      <point x="282" y="472"/>
      <point x="268" y="451" type="curve" smooth="yes"/>
      <point x="231" y="396" type="line"/>
      <point x="212" y="367" type="line"/>
      <point x="203" y="356"/>
      <point x="192" y="352"/>
      <point x="179" y="354" type="curve" smooth="yes"/>
      <point x="159" y="357"/>
      <point x="149" y="374"/>
      <point x="149" y="404" type="curve" smooth="yes"/>
      <point x="149" y="419"/>
      <point x="151" y="435"/>
      <point x="156" y="454" type="curve"/>
    </contour>
    <contour>
      <point x="373" y="145" type="curve"/>
      <point x="373" y="154"/>
      <point x="374" y="166"/>
      <point x="374" y="175" type="curve" smooth="yes"/>
      <point x="374" y="290"/>
      <point x="314" y="348"/>
      <point x="195" y="348" type="curve" smooth="yes"/>
      <point x="133" y="348"/>
      <point x="85" y="325"/>
      <point x="50" y="279" type="curve" smooth="yes"/>
      <point x="22" y="242"/>
      <point x="6" y="198"/>
      <point x="1" y="145" type="curve" smooth="yes"/>
      <point x="-4" y="92"/>
      <point x="6" y="43"/>
      <point x="31" y="-1" type="curve"/>
      <point x="127" y="0" type="line"/>
      <point x="107" y="31"/>
      <point x="97" y="73"/>
      <point x="97" y="127" type="curve" smooth="yes"/>
      <point x="97" y="136"/>
      <point x="98" y="147"/>
      <point x="99" y="156" type="curve" smooth="yes"/>
      <point x="104" y="239"/>
      <point x="145" y="297"/>
      <point x="205" y="297" type="curve" smooth="yes"/>
      <point x="236" y="297"/>
      <point x="259" y="283"/>
      <point x="272" y="256" type="curve" smooth="yes"/>
      <point x="283" y="233"/>
      <point x="287" y="203"/>
      <point x="285" y="166" type="curve" smooth="yes"/>
      <point x="282" y="119"/>
      <point x="272" y="76"/>
      <point x="255" y="39" type="curve"/>
      <point x="250" y="24"/>
      <point x="242" y="11"/>
      <point x="233" y="-1" type="curve"/>
      <point x="322" y="-1" type="line"/>
      <point x="353" y="52"/>
      <point x="369" y="101"/>
    </contour>
  </outline>
</glyph>
<glyph name="U0C18" format="1">
  <advance width="722"/>
  <unicode hex="0C18"/>
  <outline>
    <contour>
      <point x="671" y="166" type="curve" smooth="yes" name="hr00"/>
      <point x="671" y="175"/>
      <point x="672" y="185"/>
      <point x="672" y="194" type="curve" smooth="yes"/>
      <point x="672" y="257"/>
      <point x="656" y="302"/>
      <point x="623" y="330" type="curve" smooth="yes"/>
      <point x="602" y="349"/>
      <point x="574" y="358"/>
      <point x="539" y="358" type="curve" smooth="yes"/>
      <point x="529" y="358"/>
      <point x="520" y="357"/>
      <point x="513" y="355" type="curve"/>
      <point x="510" y="299" type="line"/>
      <point x="509" y="299"/>
      <point x="517" y="300"/>
      <point x="533" y="303" type="curve"/>
      <point x="578" y="303"/>
      <point x="601" y="268"/>
      <point x="601" y="199" type="curve" smooth="yes"/>
      <point x="601" y="191"/>
      <point x="600" y="182"/>
      <point x="600" y="173" type="curve"/>
      <point x="597" y="139"/>
      <point x="585" y="111"/>
      <point x="566" y="88" type="curve" smooth="yes"/>
      <point x="547" y="67"/>
      <point x="528" y="56"/>
      <point x="508" y="56" type="curve" smooth="yes"/>
      <point x="483" y="56"/>
      <point x="467" y="66"/>
      <point x="458" y="87" type="curve" smooth="yes"/>
      <point x="453" y="100"/>
      <point x="460" y="138"/>
      <point x="460" y="167" type="curve"/>
      <point x="456" y="171"/>
      <point x="431" y="181"/>
      <point x="430" y="180" type="curve"/>
      <point x="423" y="82" type="line"/>
      <point x="430" y="22"/>
      <point x="460" y="-12"/>
      <point x="511" y="-12" type="curve" smooth="yes"/>
      <point x="551" y="-12"/>
      <point x="585" y="5"/>
      <point x="616" y="36" type="curve" smooth="yes"/>
      <point x="648" y="70"/>
      <point x="668" y="113"/>
    </contour>
    <contour>
      <point x="28" y="388" type="curve"/>
      <point x="28" y="348"/>
      <point x="48" y="318"/>
      <point x="73" y="306" type="curve" smooth="yes"/>
      <point x="85" y="301"/>
      <point x="96" y="297"/>
      <point x="112" y="297" type="curve" smooth="yes"/>
      <point x="128" y="297"/>
      <point x="150" y="301"/>
      <point x="167" y="314" type="curve" smooth="yes"/>
      <point x="196" y="335"/>
      <point x="217" y="365"/>
      <point x="246" y="388" type="curve" smooth="yes"/>
      <point x="272" y="410"/>
      <point x="295" y="413"/>
      <point x="320" y="413" type="curve" smooth="yes"/>
      <point x="333" y="413"/>
      <point x="343" y="409"/>
      <point x="362" y="404" type="curve"/>
      <point x="356" y="418"/>
      <point x="313" y="487"/>
      <point x="299" y="506" type="curve"/>
      <point x="292" y="507"/>
      <point x="286" y="508"/>
      <point x="280" y="508" type="curve" smooth="yes"/>
      <point x="249" y="508"/>
      <point x="228" y="490"/>
      <point x="210" y="460" type="curve" smooth="yes"/>
      <point x="178" y="406"/>
      <point x="170" y="389"/>
      <point x="151" y="365" type="curve" smooth="yes"/>
      <point x="142" y="353"/>
      <point x="129" y="353"/>
      <point x="116" y="354" type="curve" smooth="yes"/>
      <point x="103" y="356"/>
      <point x="96" y="365"/>
      <point x="96" y="382" type="curve" smooth="yes"/>
      <point x="96" y="385"/>
      <point x="98" y="405"/>
      <point x="105" y="448" type="curve"/>
      <point x="69" y="421"/>
      <point x="44" y="401"/>
    </contour>
    <contour>
      <point x="249" y="-56" type="curve" smooth="yes"/>
      <point x="251" y="-35"/>
      <point x="239" y="-9"/>
      <point x="212" y="22" type="curve"/>
      <point x="177" y="-6"/>
      <point x="158" y="-32"/>
      <point x="157" y="-55" type="curve" smooth="yes"/>
      <point x="155" y="-82"/>
      <point x="177" y="-102"/>
      <point x="201" y="-102" type="curve" smooth="yes"/>
      <point x="225" y="-102"/>
      <point x="246" y="-83"/>
    </contour>
    <contour>
      <point x="461" y="170" type="curve" smooth="yes"/>
      <point x="465" y="227"/>
      <point x="453" y="274"/>
      <point x="424" y="309" type="curve" smooth="yes"/>
      <point x="387" y="354"/>
      <point x="335" y="348"/>
      <point x="307" y="348" type="curve"/>
      <point x="303" y="296" type="line"/>
      <point x="326" y="296"/>
      <point x="344" y="285"/>
      <point x="358" y="256" type="curve" smooth="yes"/>
      <point x="371" y="229"/>
      <point x="375" y="198"/>
      <point x="372" y="173" type="curve"/>
      <point x="371" y="140"/>
      <point x="360" y="111"/>
      <point x="343" y="88" type="curve" smooth="yes"/>
      <point x="326" y="65"/>
      <point x="308" y="53"/>
      <point x="288" y="53" type="curve" smooth="yes"/>
      <point x="263" y="53"/>
      <point x="252" y="73"/>
      <point x="253" y="113" type="curve"/>
      <point x="254" y="116"/>
      <point x="254" y="119"/>
      <point x="254" y="122" type="curve" smooth="yes"/>
      <point x="259" y="191"/>
      <point x="217" y="229"/>
      <point x="146" y="229" type="curve" smooth="yes"/>
      <point x="111" y="229"/>
      <point x="80" y="220"/>
      <point x="54" y="201" type="curve" smooth="yes"/>
      <point x="27" y="181"/>
      <point x="11" y="154"/>
      <point x="8" y="119" type="curve" smooth="yes"/>
      <point x="3" y="44"/>
      <point x="43" y="0"/>
      <point x="116" y="0" type="curve" smooth="yes"/>
      <point x="156" y="0"/>
      <point x="188" y="11"/>
      <point x="213" y="33" type="curve"/>
      <point x="228" y="10"/>
      <point x="252" y="-1"/>
      <point x="284" y="-1" type="curve" smooth="yes"/>
      <point x="328" y="-1"/>
      <point x="367" y="13"/>
      <point x="400" y="42" type="curve" smooth="yes"/>
      <point x="437" y="74"/>
      <point x="457" y="117"/>
    </contour>
    <contour>
      <point x="169" y="113" type="curve" smooth="yes"/>
      <point x="166" y="70"/>
      <point x="153" y="49"/>
      <point x="130" y="49" type="curve" smooth="yes"/>
      <point x="108" y="49"/>
      <point x="99" y="70"/>
      <point x="102" y="113" type="curve" smooth="yes"/>
      <point x="105" y="159"/>
      <point x="119" y="182"/>
      <point x="142" y="182" type="curve" smooth="yes"/>
      <point x="165" y="182"/>
      <point x="172" y="160"/>
    </contour>
  </outline>
</glyph>
<glyph name="U0C1A" format="1">
  <advance width="514"/>
  <unicode hex="0C1A"/>
  <outline>
    <contour>
      <point x="130" y="388" type="line" name="hr00"/>
      <point x="131" y="347"/>
      <point x="146" y="319"/>
      <point x="175" y="306" type="curve" smooth="yes"/>
      <point x="186" y="301"/>
      <point x="199" y="298"/>
      <point x="215" y="298" type="curve" smooth="yes"/>
      <point x="257" y="298"/>
      <point x="268" y="306"/>
      <point x="294" y="337" type="curve" smooth="yes"/>
      <point x="314" y="360"/>
      <point x="333" y="375"/>
      <point x="348" y="388" type="curve"/>
      <point x="372" y="405"/>
      <point x="396" y="413"/>
      <point x="421" y="413" type="curve" smooth="yes"/>
      <point x="434" y="413"/>
      <point x="448" y="410"/>
      <point x="464" y="404" type="curve" smooth="yes"/>
      <point x="459" y="406"/>
      <point x="449" y="420"/>
      <point x="434" y="447" type="curve" smooth="yes"/>
      <point x="418" y="478"/>
      <point x="407" y="498"/>
      <point x="400" y="506" type="curve"/>
      <point x="393" y="507"/>
      <point x="387" y="508"/>
      <point x="380" y="508" type="curve" smooth="yes"/>
      <point x="350" y="508"/>
      <point x="324" y="494"/>
      <point x="303" y="466" type="curve"/>
      <point x="264" y="396" type="line" smooth="yes"/>
      <point x="259" y="387"/>
      <point x="255" y="377"/>
      <point x="250" y="367" type="curve"/>
      <point x="242" y="356"/>
      <point x="231" y="352"/>
      <point x="218" y="354" type="curve" smooth="yes"/>
      <point x="204" y="357"/>
      <point x="197" y="365"/>
      <point x="197" y="382" type="curve" smooth="yes"/>
      <point x="197" y="385"/>
      <point x="199" y="405"/>
      <point x="206" y="448" type="curve"/>
    </contour>
    <contour>
      <point x="455" y="170" type="curve" smooth="yes"/>
      <point x="460" y="240"/>
      <point x="442" y="290"/>
      <point x="401" y="320" type="curve" smooth="yes"/>
      <point x="376" y="338"/>
      <point x="344" y="348"/>
      <point x="305" y="348" type="curve" smooth="yes"/>
      <point x="238" y="348" type="line" smooth="yes"/>
      <point x="226" y="348"/>
      <point x="219" y="339"/>
      <point x="218" y="320" type="curve" smooth="yes"/>
      <point x="217" y="306"/>
      <point x="223" y="299"/>
      <point x="235" y="299" type="curve" smooth="yes"/>
      <point x="277" y="299" type="line" smooth="yes"/>
      <point x="286" y="299"/>
      <point x="294" y="299"/>
      <point x="303" y="300" type="curve"/>
      <point x="352" y="301"/>
      <point x="377" y="265"/>
      <point x="377" y="193" type="curve" smooth="yes"/>
      <point x="377" y="160"/>
      <point x="373" y="133"/>
      <point x="365" y="106" type="curve" smooth="yes"/>
      <point x="354" y="70"/>
      <point x="336" y="52"/>
      <point x="312" y="52" type="curve" smooth="yes"/>
      <point x="283" y="52"/>
      <point x="274" y="89"/>
      <point x="275" y="113" type="curve" smooth="yes"/>
      <point x="276" y="138" type="line"/>
      <point x="207" y="138" type="line"/>
      <point x="204" y="111" type="line" smooth="yes"/>
      <point x="201" y="80"/>
      <point x="183" y="50"/>
      <point x="162" y="50" type="curve" smooth="yes"/>
      <point x="137" y="50"/>
      <point x="126" y="72"/>
      <point x="129" y="116" type="curve" smooth="yes"/>
      <point x="132" y="169"/>
      <point x="153" y="195"/>
      <point x="191" y="195" type="curve" smooth="yes"/>
      <point x="213" y="195" type="line"/>
      <point x="218" y="253" type="line"/>
      <point x="17" y="253" type="line"/>
      <point x="14" y="202" type="line"/>
      <point x="100" y="202" type="line"/>
      <point x="85" y="198"/>
      <point x="72" y="189"/>
      <point x="61" y="174" type="curve" smooth="yes"/>
      <point x="48" y="158"/>
      <point x="41" y="139"/>
      <point x="39" y="116" type="curve" smooth="yes"/>
      <point x="34" y="49"/>
      <point x="83" y="0"/>
      <point x="149" y="0" type="curve" smooth="yes"/>
      <point x="192" y="0"/>
      <point x="213" y="19"/>
      <point x="236" y="40" type="curve"/>
      <point x="257" y="11"/>
      <point x="280" y="-1"/>
      <point x="308" y="0" type="curve" smooth="yes"/>
      <point x="347" y="1"/>
      <point x="377" y="11"/>
      <point x="405" y="42" type="curve" smooth="yes"/>
      <point x="434" y="75"/>
      <point x="451" y="117"/>
    </contour>
  </outline>
</glyph>
<glyph name="U0C1C" format="1">
  <advance width="465"/>
  <unicode hex="0C1C"/>
  <outline>
    <contour>
      <point x="412" y="122" type="curve" smooth="yes" name="hr00"/>
      <point x="413" y="142"/>
      <point x="412" y="160"/>
      <point x="407" y="175" type="curve"/>
      <point x="320" y="175" type="line"/>
      <point x="332" y="151"/>
      <point x="340" y="132"/>
      <point x="337" y="116" type="curve"/>
      <point x="334" y="71"/>
      <point x="318" y="49"/>
      <point x="288" y="49" type="curve" smooth="yes"/>
      <point x="261" y="49"/>
      <point x="249" y="66"/>
      <point x="252" y="101" type="curve" smooth="yes"/>
      <point x="256" y="142" type="line"/>
      <point x="174" y="142" type="line"/>
      <point x="172" y="106" type="line" smooth="yes"/>
      <point x="170" y="77"/>
      <point x="151" y="54"/>
      <point x="128" y="54" type="curve" smooth="yes"/>
      <point x="99" y="54"/>
      <point x="85" y="73"/>
      <point x="88" y="111" type="curve" smooth="yes"/>
      <point x="91" y="148"/>
      <point x="123" y="180"/>
      <point x="161" y="180" type="curve" smooth="yes"/>
      <point x="192" y="180"/>
      <point x="215" y="193"/>
      <point x="230" y="219" type="curve"/>
      <point x="247" y="195"/>
      <point x="269" y="183"/>
      <point x="295" y="183" type="curve" smooth="yes"/>
      <point x="336" y="183"/>
      <point x="367" y="197"/>
      <point x="388" y="224" type="curve" smooth="yes"/>
      <point x="400" y="241"/>
      <point x="407" y="262"/>
      <point x="409" y="285" type="curve" smooth="yes"/>
      <point x="410" y="308"/>
      <point x="402" y="328"/>
      <point x="385" y="343" type="curve" smooth="yes"/>
      <point x="367" y="359"/>
      <point x="346" y="367"/>
      <point x="321" y="367" type="curve" smooth="yes"/>
      <point x="297" y="367"/>
      <point x="282" y="363"/>
      <point x="269" y="358" type="curve"/>
      <point x="266" y="308" type="line"/>
      <point x="273" y="318"/>
      <point x="285" y="323"/>
      <point x="300" y="323" type="curve" smooth="yes"/>
      <point x="319" y="323"/>
      <point x="331" y="298"/>
      <point x="328" y="275" type="curve" smooth="yes"/>
      <point x="324" y="250"/>
      <point x="306" y="232"/>
      <point x="286" y="233" type="curve" smooth="yes"/>
      <point x="265" y="234"/>
      <point x="251" y="244"/>
      <point x="243" y="265" type="curve"/>
      <point x="244" y="295"/>
      <point x="235" y="319"/>
      <point x="216" y="337" type="curve" smooth="yes"/>
      <point x="199" y="354"/>
      <point x="177" y="362"/>
      <point x="148" y="362" type="curve" smooth="yes"/>
      <point x="101" y="362"/>
      <point x="65" y="346"/>
      <point x="42" y="313" type="curve" smooth="yes"/>
      <point x="26" y="290"/>
      <point x="19" y="265"/>
      <point x="16" y="237" type="curve"/>
      <point x="104" y="237" type="line"/>
      <point x="103" y="250"/>
      <point x="103" y="259"/>
      <point x="104" y="265" type="curve"/>
      <point x="105" y="292"/>
      <point x="117" y="305"/>
      <point x="140" y="305" type="curve" smooth="yes"/>
      <point x="161" y="305"/>
      <point x="170" y="292"/>
      <point x="168" y="265" type="curve" smooth="yes"/>
      <point x="167" y="241"/>
      <point x="155" y="226"/>
      <point x="132" y="220" type="curve"/>
      <point x="111" y="217"/>
      <point x="92" y="213"/>
      <point x="71" y="209" type="curve"/>
      <point x="33" y="194"/>
      <point x="12" y="165"/>
      <point x="9" y="122" type="curve" smooth="yes"/>
      <point x="4" y="46"/>
      <point x="44" y="1"/>
      <point x="115" y="1" type="curve" smooth="yes"/>
      <point x="134" y="1"/>
      <point x="153" y="4"/>
      <point x="171" y="12" type="curve" smooth="yes"/>
      <point x="190" y="20"/>
      <point x="201" y="30"/>
      <point x="204" y="39" type="curve"/>
      <point x="213" y="12"/>
      <point x="236" y="-1"/>
      <point x="271" y="-1" type="curve" smooth="yes"/>
      <point x="352" y="-1"/>
      <point x="407" y="47"/>
    </contour>
  </outline>
</glyph>
